<?xml version="1.0" encoding="UTF-8" standalone="no"?>
<svg
   width="20.32mm"
   height="128.5mm"
   viewBox="0 0 20.32 128.5"
   version="1.1"
   id="svg70"
   sodipodi:docname="Bufke.0.svg"
   xmlns:inkscape="http://www.inkscape.org/namespaces/inkscape"
   xmlns:sodipodi="http://sodipodi.sourceforge.net/DTD/sodipodi-0.dtd"
   xmlns="http://www.w3.org/2000/svg"
   xmlns:svg="http://www.w3.org/2000/svg">
  <defs
     id="defs74" />
  <sodipodi:namedview
     id="namedview72"
     pagecolor="#ffffff"
     bordercolor="#666666"
     borderopacity="1.0"
     inkscape:showpageshadow="2"
     inkscape:pageopacity="0.0"
     inkscape:pagecheckerboard="0"
     inkscape:deskcolor="#d1d1d1"
     inkscape:document-units="mm"
     showgrid="false" />
  <path
     id="rect2"
     style="fill:#000010"
     d="M 0,0 H 20.32 V 128.5 H 0 Z" />
  <g
     aria-label="Bufke"
     id="text4"
     style="font-weight:bold;font-size:6px;font-family:Roboto;text-anchor:middle;fill:#ffffbf">
    <path
       d="m 5.846035,8.7431641 q 0,0.6152343 -0.3925781,0.9345703 Q 5.0608788,9.9941406 4.3343163,10 H 2.6761131 V 5.734375 h 1.4970703 q 0.741211,0 1.1601563,0.2841797 0.4189453,0.2841797 0.4189453,0.8818359 0,0.2900391 -0.1464844,0.5332031 Q 5.4593163,7.6767578 5.14291,7.8027344 5.51791,7.8964844 5.6819725,8.1660156 5.846035,8.4355469 5.846035,8.7431641 Z M 3.5579491,6.4462891 v 1.0722656 h 0.6152343 q 0.6972657,0 0.6972657,-0.5273438 0,-0.5332031 -0.6679688,-0.5449218 z M 4.9671288,8.734375 q 0,-0.5742187 -0.5800782,-0.5947266 H 3.5579491 v 1.1513672 h 0.75 q 0.336914,0 0.4980468,-0.1582031 Q 4.9671288,8.9746094 4.9671288,8.734375 Z"
       id="path200" />
    <path
       d="M 8.3743553,10 8.3509178,9.6748047 Q 8.0403709,10.058594 7.4837303,10.058594 7.01791,10.058594 6.7249413,9.7861328 6.4349022,9.5136719 6.4319725,8.8925781 v -2.0625 h 0.8466797 v 2.0566407 q 0,0.2636718 0.1259766,0.375 0.1259765,0.1083984 0.3222656,0.1083984 0.430664,0 0.5947265,-0.3017578 V 6.8300781 H 9.1712303 V 10 Z"
       id="path202" />
    <path
       d="M 11.52084,7.4482422 H 10.890957 V 10 H 10.041348 V 7.4482422 H 9.5696678 V 6.8300781 H 10.041348 V 6.5546875 q 0,-0.5419922 0.313476,-0.8291016 0.313477,-0.2871093 0.849609,-0.2871093 0.205079,0 0.433594,0.058594 l -0.0088,0.65625 q -0.111328,-0.026367 -0.260742,-0.026367 -0.46875,0 -0.477539,0.413086 v 0.290039 h 0.629883 z"
       id="path204" />
    <path
       d="M 13.926113,10 13.11166,8.7285156 12.809902,9.0302734 V 10 H 11.963223 V 5.4970703 h 0.846679 V 7.9902344 L 12.973965,7.7792969 13.782558,6.8300781 H 14.79916 L 13.656582,8.1484375 14.901699,10 Z"
       id="path206" />
    <path
       d="m 17.805019,9.484375 q -0.152343,0.2167969 -0.46289,0.3955078 -0.310547,0.1787112 -0.773438,0.1787112 -0.738281,0 -1.154297,-0.4453127 Q 14.998379,9.1650391 14.995449,8.5322266 V 8.4091797 q 0,-0.7177735 0.398438,-1.1777344 0.401367,-0.4599609 1.081054,-0.4599609 0.682617,0 1.040039,0.4277343 0.357422,0.4277344 0.357422,1.1308594 v 0.3603516 h -2.018554 q 0.04395,0.3076172 0.243164,0.4980469 0.199218,0.1875 0.524414,0.1875 0.483398,0 0.764648,-0.3544922 z M 16.469082,7.4541016 q -0.269531,0 -0.416016,0.1816406 -0.146484,0.1816406 -0.190429,0.4746094 h 1.177734 V 8.0458984 Q 17.034512,7.7910156 16.896816,7.6240234 16.762051,7.4541016 16.469082,7.4541016 Z"
       id="path208" />
  </g>
  <g
     aria-label="cv buffer"
     id="text6"
     style="font-size:3px;font-family:Roboto;text-anchor:end;fill:#ffffbf">
    <path
       d="m 6.8566608,12.806641 q 0.1450196,0 0.253418,-0.08643 0.1098633,-0.08643 0.1201172,-0.221192 h 0.2578125 q -0.010254,0.212403 -0.1948242,0.372071 -0.1845703,0.158203 -0.4365235,0.158203 -0.3574218,0 -0.5317382,-0.23584 Q 6.152071,12.557617 6.152071,12.238281 v -0.06152 q 0,-0.319336 0.1728516,-0.555176 0.1743164,-0.23584 0.5317382,-0.23584 0.2783204,0 0.4497071,0.165528 0.1713867,0.164062 0.1816406,0.408691 H 7.230196 q -0.010254,-0.146484 -0.1113281,-0.249023 -0.099609,-0.10254 -0.2622071,-0.10254 -0.1669921,0 -0.262207,0.08496 -0.09375,0.08496 -0.1333008,0.215332 -0.038086,0.130372 -0.038086,0.268067 v 0.06152 q 0,0.13916 0.038086,0.269532 0.038086,0.130371 0.131836,0.215332 0.095215,0.0835 0.2636718,0.0835 z"
       id="path211" />
    <path
       d="M 8.9850788,11.415039 8.4152546,13 H 8.2087116 L 7.6344929,11.415039 h 0.2783203 l 0.402832,1.214356 0.3925781,-1.214356 z"
       id="path213" />
    <path
       d="m 11.331758,12.225098 q 0,0.347168 -0.161132,0.575683 -0.161133,0.228516 -0.455567,0.228516 -0.300293,0 -0.46289,-0.212402 L 10.23752,13 H 9.9884968 v -2.25 h 0.2724612 v 0.836426 q 0.161133,-0.200684 0.451172,-0.200684 0.298828,0 0.458496,0.222656 0.161132,0.222657 0.161132,0.585938 z m -0.687011,-0.61084 q -0.147949,0 -0.240235,0.07178 -0.09229,0.07031 -0.143554,0.174317 v 0.689941 q 0.05273,0.105469 0.146484,0.177246 0.09375,0.07178 0.240234,0.07178 0.219727,0 0.314942,-0.168457 0.09668,-0.169921 0.09668,-0.405761 v -0.03076 q 0,-0.23584 -0.09229,-0.407227 -0.09082,-0.172851 -0.322265,-0.172851 z"
       id="path215" />
    <path
       d="m 12.657442,13 -0.0059,-0.156738 q -0.155274,0.186035 -0.462891,0.186035 -0.23291,0 -0.376465,-0.137695 -0.143554,-0.137696 -0.143554,-0.454102 v -1.022461 h 0.270996 v 1.025391 q 0,0.213867 0.08935,0.287109 0.09082,0.07178 0.202149,0.07178 0.306152,0 0.413085,-0.22998 v -1.154297 h 0.272461 V 13 Z"
       id="path217" />
    <path
       d="M 14.069551,11.623047 H 13.732637 V 13 h -0.270996 v -1.376953 h -0.250488 v -0.208008 h 0.250488 v -0.177246 q 0.0029,-0.251953 0.140625,-0.385254 0.13916,-0.133301 0.379395,-0.133301 0.08935,0 0.1875,0.02344 l -0.01465,0.221191 q -0.06152,-0.01318 -0.146484,-0.01318 -0.270996,0 -0.275391,0.288574 v 0.175781 h 0.336914 z"
       id="path219" />
    <path
       d="M 15.11252,11.623047 H 14.775606 V 13 H 14.50461 v -1.376953 h -0.250488 v -0.208008 h 0.250488 v -0.177246 q 0.0029,-0.251953 0.140625,-0.385254 0.13916,-0.133301 0.379395,-0.133301 0.08935,0 0.1875,0.02344 l -0.01465,0.221191 q -0.06152,-0.01318 -0.146484,-0.01318 -0.270996,0 -0.275391,0.288574 v 0.175781 h 0.336914 z"
       id="path221" />
    <path
       d="m 16.633028,12.723145 q -0.07764,0.117187 -0.219727,0.212402 -0.142089,0.09375 -0.376464,0.09375 -0.331055,0 -0.530274,-0.215332 -0.197754,-0.215332 -0.197754,-0.550781 v -0.06152 q 0,-0.259277 0.09815,-0.440918 0.09961,-0.183105 0.257812,-0.27832 0.158203,-0.09668 0.336914,-0.09668 0.339844,0 0.495118,0.222656 0.156738,0.221192 0.156738,0.553711 v 0.121582 H 15.58127 q 0.0059,0.218262 0.128906,0.372071 0.124512,0.152343 0.341309,0.152343 0.143555,0 0.243164,-0.05859 0.09961,-0.05859 0.174317,-0.156739 z M 16.00168,11.608398 q -0.161132,0 -0.272461,0.117188 -0.111328,0.117187 -0.13916,0.336914 h 0.792481 v -0.02051 q -0.01025,-0.158203 -0.09229,-0.295898 -0.08057,-0.137696 -0.288575,-0.137696 z"
       id="path223" />
    <path
       d="m 17.602755,11.646484 q -0.265137,0 -0.361817,0.228516 V 13 h -0.270996 v -1.584961 h 0.263672 l 0.0059,0.181641 q 0.130371,-0.210938 0.376465,-0.210938 0.07617,0 0.120117,0.02051 l -0.0015,0.251953 q -0.06006,-0.01172 -0.131836,-0.01172 z"
       id="path225" />
  </g>
  <g
     aria-label="expander"
     id="text8"
     style="font-size:3px;font-family:Roboto;text-anchor:end;fill:#ffffbf">
    <path
       d="m 6.8888874,15.723145 q -0.077637,0.117187 -0.2197266,0.212402 -0.1420898,0.09375 -0.3764648,0.09375 -0.3310547,0 -0.5302734,-0.215332 -0.1977539,-0.215332 -0.1977539,-0.550781 v -0.06152 q 0,-0.259277 0.098145,-0.440918 0.099609,-0.183105 0.2578125,-0.27832 0.1582031,-0.09668 0.336914,-0.09668 0.3398438,0 0.4951172,0.222656 0.1567383,0.221192 0.1567383,0.553711 v 0.121582 H 5.8371296 q 0.00586,0.218262 0.1289062,0.372071 0.1245118,0.152343 0.3413086,0.152343 0.1435547,0 0.2431641,-0.05859 0.099609,-0.05859 0.1743164,-0.156739 z M 6.2575397,14.608398 q -0.1611328,0 -0.2724609,0.117188 -0.1113281,0.117187 -0.1391601,0.336914 h 0.7924804 v -0.02051 Q 6.6281452,14.883789 6.546114,14.746094 6.4655476,14.608398 6.2575397,14.608398 Z"
       id="path228" />
    <path
       d="m 7.4089069,14.415039 0.347168,0.577149 0.3515625,-0.577149 H 8.4255085 L 7.9069538,15.197266 8.4416218,16 H 8.1281452 L 7.7619343,15.405273 7.3957233,16 H 7.0807819 L 7.6139851,15.197266 7.0968952,14.415039 Z"
       id="path230" />
    <path
       d="m 9.4377155,16.029297 q -0.2856445,0 -0.4526367,-0.183106 v 0.763184 H 8.7126179 v -2.194336 h 0.2490234 l 0.013184,0.174316 q 0.1669922,-0.203613 0.4584961,-0.203613 0.300293,0 0.4599609,0.222656 0.1596681,0.222657 0.1596681,0.585938 v 0.03076 q 0,0.347168 -0.1611329,0.575683 -0.159668,0.228516 -0.4541016,0.228516 z m -0.083496,-1.415039 q -0.2460937,0 -0.3691406,0.218262 v 0.758789 q 0.1245117,0.215332 0.3720703,0.215332 0.2197266,0 0.3208008,-0.172852 0.1025391,-0.172851 0.1025391,-0.408691 v -0.03076 q 0,-0.23584 -0.1025391,-0.407227 -0.1010742,-0.172851 -0.3237305,-0.172851 z"
       id="path232" />
    <path
       d="m 11.377169,16 q -0.02637,-0.05713 -0.03809,-0.166992 -0.07617,0.08057 -0.19043,0.13916 -0.114258,0.05713 -0.260742,0.05713 -0.243164,0 -0.389649,-0.136231 -0.146484,-0.13623 -0.146484,-0.333984 0,-0.254883 0.193359,-0.386719 0.19336,-0.1333 0.52002,-0.1333 h 0.268066 v -0.125977 q 0,-0.140625 -0.08496,-0.224121 -0.0835,-0.08496 -0.249023,-0.08496 -0.153809,0 -0.249023,0.07617 -0.09375,0.07471 -0.09375,0.174316 h -0.270997 q 0,-0.169922 0.171387,-0.319336 0.171387,-0.149414 0.458496,-0.149414 0.257813,0 0.42334,0.131836 0.165527,0.131836 0.165527,0.398438 v 0.711914 q 0,0.219726 0.05566,0.348633 V 16 Z m -0.449707,-0.208008 q 0.146484,0 0.253418,-0.07324 0.108398,-0.07324 0.152343,-0.162598 v -0.32666 H 11.08127 q -0.457031,0.0088 -0.457031,0.292969 0,0.112793 0.07617,0.191894 0.07617,0.07764 0.227051,0.07764 z"
       id="path234" />
    <path
       d="m 12.688204,14.614258 q -0.130371,0 -0.229981,0.07031 -0.09961,0.07031 -0.156738,0.183106 V 16 h -0.270996 v -1.584961 h 0.256348 l 0.0088,0.197754 q 0.180175,-0.227051 0.473144,-0.227051 0.23291,0 0.369141,0.130371 0.137695,0.130371 0.13916,0.437989 V 16 H 13.00461 v -1.041504 q 0,-0.186035 -0.08203,-0.265137 -0.08057,-0.0791 -0.234375,-0.0791 z"
       id="path236" />
    <path
       d="m 14.709688,16 -0.01318,-0.169922 q -0.162598,0.199219 -0.452637,0.199219 -0.27832,0 -0.449707,-0.225586 -0.171387,-0.225586 -0.174317,-0.566895 v -0.04248 q 0,-0.363281 0.171387,-0.585938 0.172852,-0.222656 0.455567,-0.222656 0.279785,0 0.439453,0.1875 V 13.75 h 0.272461 V 16 Z m -0.817383,-0.774902 q 0,0.23584 0.09961,0.405761 0.09961,0.168457 0.319336,0.168457 0.251953,0 0.375,-0.22998 v -0.729492 q -0.121582,-0.225586 -0.372071,-0.225586 -0.221191,0 -0.322265,0.172851 -0.09961,0.171387 -0.09961,0.407227 z"
       id="path238" />
    <path
       d="m 16.633028,15.723145 q -0.07764,0.117187 -0.219727,0.212402 -0.142089,0.09375 -0.376464,0.09375 -0.331055,0 -0.530274,-0.215332 -0.197754,-0.215332 -0.197754,-0.550781 v -0.06152 q 0,-0.259277 0.09815,-0.440918 0.09961,-0.183105 0.257812,-0.27832 0.158203,-0.09668 0.336914,-0.09668 0.339844,0 0.495118,0.222656 0.156738,0.221192 0.156738,0.553711 v 0.121582 H 15.58127 q 0.0059,0.218262 0.128906,0.372071 0.124512,0.152343 0.341309,0.152343 0.143555,0 0.243164,-0.05859 0.09961,-0.05859 0.174317,-0.156739 z M 16.00168,14.608398 q -0.161132,0 -0.272461,0.117188 -0.111328,0.117187 -0.13916,0.336914 h 0.792481 v -0.02051 q -0.01025,-0.158203 -0.09229,-0.295898 -0.08057,-0.137696 -0.288575,-0.137696 z"
       id="path240" />
    <path
       d="m 17.602755,14.646484 q -0.265137,0 -0.361817,0.228516 V 16 h -0.270996 v -1.584961 h 0.263672 l 0.0059,0.181641 q 0.130371,-0.210938 0.376465,-0.210938 0.07617,0 0.120117,0.02051 l -0.0015,0.251953 q -0.06006,-0.01172 -0.131836,-0.01172 z"
       id="path242" />
  </g>
  <g
     aria-label="van"
     id="text10"
     style="font-size:3px;font-family:Roboto;text-anchor:middle;fill:#ffffbf">
    <path
       d="M 4.1190624,122.41504 3.5492382,124 h -0.206543 l -0.5742187,-1.58496 h 0.2783203 l 0.402832,1.21435 0.3925782,-1.21435 z"
       id="path245" />
    <path
       d="m 5.3363476,124 q -0.026367,-0.0571 -0.038086,-0.16699 -0.076172,0.0806 -0.1904296,0.13916 -0.1142579,0.0571 -0.2607422,0.0571 -0.2431641,0 -0.3896485,-0.13623 -0.1464843,-0.13623 -0.1464843,-0.33399 0,-0.25488 0.1933593,-0.38672 0.1933594,-0.1333 0.5200196,-0.1333 h 0.2680664 v -0.12597 q 0,-0.14063 -0.084961,-0.22413 -0.083496,-0.085 -0.2490234,-0.085 -0.1538086,0 -0.2490234,0.0762 -0.09375,0.0747 -0.09375,0.17431 H 4.3446484 q 0,-0.16992 0.1713867,-0.31933 0.1713867,-0.14942 0.4584961,-0.14942 0.2578125,0 0.4233398,0.13184 0.1655274,0.13183 0.1655274,0.39844 v 0.71191 q 0,0.21973 0.055664,0.34863 V 124 Z m -0.4497071,-0.20801 q 0.1464844,0 0.253418,-0.0732 0.1083985,-0.0732 0.1523438,-0.1626 v -0.32666 H 5.0404491 q -0.4570312,0.009 -0.4570312,0.29297 0,0.11279 0.076172,0.1919 0.076172,0.0776 0.2270507,0.0776 z"
       id="path247" />
    <path
       d="m 6.6473827,122.61426 q -0.1303711,0 -0.2299804,0.0703 -0.099609,0.0703 -0.1567383,0.18311 V 124 H 5.9896679 v -1.58496 h 0.2563476 l 0.00879,0.19775 q 0.1801758,-0.22705 0.4731445,-0.22705 0.2329102,0 0.3691407,0.13037 0.1376953,0.13037 0.1391601,0.43799 V 124 H 6.963789 v -1.0415 q 0,-0.18604 -0.082031,-0.26514 -0.080566,-0.0791 -0.234375,-0.0791 z"
       id="path249" />
  </g>
  <g
     aria-label="Ties"
     id="text12"
     style="font-size:3px;font-family:Roboto;text-anchor:middle;fill:#ffffbf">
    <path
       d="m 2.3238964,125.09863 v -0.23144 h 1.6479492 v 0.23144 H 3.2862988 V 127 H 3.0079784 v -1.90137 z"
       id="path252" />
    <path
       d="m 4.2487011,124.99463 q 0,-0.0659 0.039551,-0.11133 0.041016,-0.0454 0.1201172,-0.0454 0.077637,0 0.1186523,0.0454 0.04248,0.0454 0.04248,0.11133 0,0.063 -0.04248,0.1084 -0.041016,0.0439 -0.1186523,0.0439 -0.079102,0 -0.1201172,-0.0439 -0.039551,-0.0454 -0.039551,-0.1084 z m 0.2929687,0.42041 V 127 H 4.2692089 v -1.58496 z"
       id="path254" />
    <path
       d="m 6.2306347,126.72314 q -0.077637,0.11719 -0.2197266,0.21241 -0.1420898,0.0937 -0.3764648,0.0937 -0.3310547,0 -0.5302735,-0.21534 -0.1977539,-0.21533 -0.1977539,-0.55078 v -0.0615 q 0,-0.25928 0.098145,-0.44092 0.099609,-0.1831 0.2578125,-0.27832 0.1582031,-0.0967 0.336914,-0.0967 0.3398438,0 0.4951172,0.22266 0.1567383,0.22119 0.1567383,0.55371 v 0.12158 H 5.1788769 q 0.00586,0.21826 0.1289062,0.37207 0.1245117,0.15235 0.3413086,0.15235 0.1435547,0 0.2431641,-0.0586 0.099609,-0.0586 0.1743164,-0.15674 z M 5.599287,125.6084 q -0.1611328,0 -0.2724609,0.11719 -0.1113281,0.11718 -0.1391602,0.33691 h 0.7924805 v -0.0205 q -0.010254,-0.1582 -0.092285,-0.2959 -0.080566,-0.13769 -0.2885743,-0.13769 z"
       id="path256" />
    <path
       d="m 7.4904003,126.57959 q 0,-0.0864 -0.064453,-0.15527 -0.062988,-0.0703 -0.2929688,-0.11719 -0.2651367,-0.0542 -0.421875,-0.15674 -0.1567382,-0.104 -0.1567382,-0.30176 0,-0.1875 0.1596679,-0.32519 0.1611328,-0.1377 0.4277344,-0.1377 0.2841797,0 0.4438477,0.14502 0.1596679,0.14502 0.1596679,0.3501 H 7.474287 q 0,-0.0982 -0.086426,-0.18457 -0.086426,-0.0879 -0.2460938,-0.0879 -0.168457,0 -0.2416992,0.0732 -0.073242,0.0732 -0.073242,0.15967 0,0.0864 0.067383,0.14062 0.068848,0.0527 0.2900391,0.10254 0.2915039,0.0659 0.4335937,0.17285 0.1435547,0.10694 0.1435547,0.30176 0,0.20947 -0.168457,0.33985 -0.1669922,0.13037 -0.4438477,0.13037 -0.3149414,0 -0.4819336,-0.16114 -0.1669922,-0.16113 -0.1669922,-0.35742 h 0.272461 q 0.00879,0.16846 0.1289062,0.23291 0.1215821,0.063 0.2475586,0.063 0.1655274,0 0.253418,-0.0645 0.087891,-0.0645 0.087891,-0.1626 z"
       id="path258" />
  </g>
  <path
     id="polygon14"
     style="fill:#ffffbf"
     d="m -10,121 v -11 h 40.32 v 11 z" />
  <path
     style="color:#000000;fill:#ffffbf;stroke-linecap:round;stroke-dasharray:0.1, 0.7;-inkscape-stroke:none"
     d="m 5.0800781,102.9375 a 0.0625,0.0625 0 0 0 -0.0625,0.0625 0.0625,0.0625 0 0 0 0.0625,0.0625 h 0.099609 a 0.0625,0.0625 0 0 0 0.0625,-0.0625 0.0625,0.0625 0 0 0 -0.0625,-0.0625 z m 0.8007813,0 a 0.0625,0.0625 0 0 0 -0.0625,0.0625 0.0625,0.0625 0 0 0 0.0625,0.0625 h 0.099609 a 0.0625,0.0625 0 0 0 0.0625,-0.0625 0.0625,0.0625 0 0 0 -0.0625,-0.0625 z m 0.7988281,0 a 0.0625,0.0625 0 0 0 -0.0625,0.0625 0.0625,0.0625 0 0 0 0.0625,0.0625 h 0.099609 a 0.0625,0.0625 0 0 0 0.0625,-0.0625 0.0625,0.0625 0 0 0 -0.0625,-0.0625 z m 0.8007812,0 a 0.0625,0.0625 0 0 0 -0.0625,0.0625 0.0625,0.0625 0 0 0 0.0625,0.0625 h 0.099609 a 0.0625,0.0625 0 0 0 0.0625,-0.0625 0.0625,0.0625 0 0 0 -0.0625,-0.0625 z m 0.7988282,0 a 0.0625,0.0625 0 0 0 -0.0625,0.0625 0.0625,0.0625 0 0 0 0.0625,0.0625 h 0.1015625 a 0.0625,0.0625 0 0 0 0.0625,-0.0625 0.0625,0.0625 0 0 0 -0.0625,-0.0625 z m 0.8007812,0 a 0.0625,0.0625 0 0 0 -0.0625,0.0625 0.0625,0.0625 0 0 0 0.0625,0.0625 h 0.099609 a 0.0625,0.0625 0 0 0 0.0625,-0.0625 0.0625,0.0625 0 0 0 -0.0625,-0.0625 z m 0.8007813,0 a 0.0625,0.0625 0 0 0 -0.0625,0.0625 0.0625,0.0625 0 0 0 0.0625,0.0625 h 0.099609 a 0.0625,0.0625 0 0 0 0.0625,-0.0625 0.0625,0.0625 0 0 0 -0.0625,-0.0625 z m 0.7988286,0 a 0.0625,0.0625 0 0 0 -0.0625,0.0625 0.0625,0.0625 0 0 0 0.0625,0.0625 h 0.09961 a 0.0625,0.0625 0 0 0 0.0625,-0.0625 0.0625,0.0625 0 0 0 -0.0625,-0.0625 z m 0.800781,0 a 0.0625,0.0625 0 0 0 -0.0625,0.0625 0.0625,0.0625 0 0 0 0.0625,0.0625 h 0.09961 a 0.0625,0.0625 0 0 0 0.0625,-0.0625 0.0625,0.0625 0 0 0 -0.0625,-0.0625 z m 0.798828,0 a 0.0625,0.0625 0 0 0 -0.0625,0.0625 0.0625,0.0625 0 0 0 0.0625,0.0625 h 0.101562 a 0.0625,0.0625 0 0 0 0.0625,-0.0625 0.0625,0.0625 0 0 0 -0.0625,-0.0625 z m 0.800781,0 a 0.0625,0.0625 0 0 0 -0.0625,0.0625 0.0625,0.0625 0 0 0 0.0625,0.0625 h 0.09961 a 0.0625,0.0625 0 0 0 0.0625,-0.0625 0.0625,0.0625 0 0 0 -0.0625,-0.0625 z m 0.800781,0 a 0.0625,0.0625 0 0 0 -0.0625,0.0625 0.0625,0.0625 0 0 0 0.0625,0.0625 h 0.09961 a 0.0625,0.0625 0 0 0 0.0625,-0.0625 0.0625,0.0625 0 0 0 -0.0625,-0.0625 z m 0.798829,0 a 0.0625,0.0625 0 0 0 -0.0625,0.0625 0.0625,0.0625 0 0 0 0.0625,0.0625 h 0.09961 a 0.0625,0.0625 0 0 0 0.0625,-0.0625 0.0625,0.0625 0 0 0 -0.0625,-0.0625 z"
     id="path16" />
  <path
     style="color:#000000;fill:#ffffbf;stroke-linecap:round;stroke-dasharray:0.1, 0.7;-inkscape-stroke:none"
     d="m 10.03125,71.59375 a 0.0625,0.0625 0 0 0 -0.082031,0.0332 l -0.015625,0.03516 -0.025391,0.05273 a 0.0625,0.0625 0 0 0 0.029297,0.08398 0.0625,0.0625 0 0 0 0.083984,-0.0293 l 0.02734,-0.05664 0.01563,-0.03711 a 0.0625,0.0625 0 0 0 -0.0332,-0.08203 z m -0.3925781,0.695312 a 0.0625,0.0625 0 0 0 -0.087891,0.01367 l -0.058594,0.08008 a 0.0625,0.0625 0 0 0 0.013672,0.08789 0.0625,0.0625 0 0 0 0.087891,-0.01367 l 0.058594,-0.08008 a 0.0625,0.0625 0 0 0 -0.013672,-0.08789 z m -0.5429688,0.609375 a 0.0625,0.0625 0 0 0 -0.042969,0.02148 l -0.066406,0.07422 a 0.0625,0.0625 0 0 0 0.00391,0.08789 0.0625,0.0625 0 0 0 0.087891,-0.0039 l 0.066406,-0.07617 a 0.0625,0.0625 0 0 0 -0.00391,-0.08789 0.0625,0.0625 0 0 0 -0.044922,-0.01563 z m -0.4980468,0.603516 a 0.0625,0.0625 0 0 0 -0.089844,0.002 l -0.068359,0.07031 a 0.0625,0.0625 0 0 0 0,0.08789 0.0625,0.0625 0 0 0 0.087891,0 l 0.070312,-0.07031 v -0.002 a 0.0625,0.0625 0 0 0 0,-0.08789 z m -0.6542969,0.564453 -0.072266,0.07031 a 0.0625,0.0625 0 0 0 0,0.08789 0.0625,0.0625 0 0 0 0.087891,0.002 L 8.03125,74.15625 a 0.0625,0.0625 0 0 0 0,-0.08789 0.0625,0.0625 0 0 0 -0.087891,-0.002 z M 7.4160156,74.607422 A 0.0625,0.0625 0 0 0 7.3710937,74.625 l -0.072266,0.07031 a 0.0625,0.0625 0 0 0 0,0.08789 0.0625,0.0625 0 0 0 0.087891,0.002 l 0.072266,-0.07031 a 0.0625,0.0625 0 0 0 0,-0.08789 0.0625,0.0625 0 0 0 -0.042969,-0.01953 z m -0.5703125,0.5625 a 0.0625,0.0625 0 0 0 -0.044922,0.01953 l -0.070312,0.07031 a 0.0625,0.0625 0 0 0 0,0.08789 0.0625,0.0625 0 0 0 0.089844,0 l 0.070312,-0.07031 a 0.0625,0.0625 0 0 0 -0.00195,-0.08984 0.0625,0.0625 0 0 0 -0.042969,-0.01758 z m -0.5566406,0.578125 a 0.0625,0.0625 0 0 0 -0.042969,0.01953 l -0.033203,0.03711 -0.035156,0.03906 a 0.0625,0.0625 0 0 0 0.00586,0.08789 0.0625,0.0625 0 0 0 0.087891,-0.0059 l 0.033203,-0.03711 0.033203,-0.03516 a 0.0625,0.0625 0 0 0 -0.00391,-0.08984 0.0625,0.0625 0 0 0 -0.044922,-0.01563 z M 5.765625,76.357422 a 0.0625,0.0625 0 0 0 -0.041016,0.02344 l -0.060547,0.08008 a 0.0625,0.0625 0 0 0 0.011719,0.08789 0.0625,0.0625 0 0 0 0.087891,-0.01172 l 0.060547,-0.08008 A 0.0625,0.0625 0 0 0 5.8125,76.369141 0.0625,0.0625 0 0 0 5.765625,76.357422 Z m -0.4511719,0.667969 a 0.0625,0.0625 0 0 0 -0.037109,0.03125 l -0.035156,0.06445 -0.011719,0.02539 a 0.0625,0.0625 0 0 0 0.029297,0.08398 0.0625,0.0625 0 0 0 0.083984,-0.0293 l 0.00977,-0.02344 0.033203,-0.0625 a 0.0625,0.0625 0 0 0 -0.025391,-0.08594 0.0625,0.0625 0 0 0 -0.046875,-0.0039 z m -0.2226562,0.751953 a 0.0625,0.0625 0 0 0 -0.070312,0.05664 v 0.0059 l -0.00391,0.09766 a 0.0625,0.0625 0 0 0 0.060547,0.06445 0.0625,0.0625 0 0 0 0.064453,-0.05859 l 0.00391,-0.09375 v -0.002 a 0.0625,0.0625 0 0 0 -0.054687,-0.07031 z"
     id="path18" />
  <g
     aria-label="delay"
     id="text20"
     style="font-size:3px;font-family:Roboto;dominant-baseline:middle;text-anchor:middle;fill:#ffffbf">
    <path
       d="m 7.8682518,70.79248 -0.013184,-0.169921 q -0.1625976,0.199218 -0.4526367,0.199218 -0.2783203,0 -0.449707,-0.225586 -0.1713868,-0.225586 -0.1743164,-0.566894 v -0.04248 q 0,-0.363281 0.1713867,-0.585937 0.1728515,-0.222656 0.4555664,-0.222656 0.2797851,0 0.4394531,0.1875 V 68.54248 h 0.2724609 v 2.25 z M 7.050869,70.017578 q 0,0.23584 0.099609,0.405762 0.099609,0.168457 0.3193359,0.168457 0.2519531,0 0.375,-0.229981 v -0.729492 q -0.121582,-0.225586 -0.3720703,-0.225586 -0.2211914,0 -0.3222656,0.172852 -0.099609,0.171387 -0.099609,0.407226 z"
       id="path262" />
    <path
       d="m 9.7915916,70.515625 q -0.077637,0.117187 -0.2197265,0.212402 -0.1420899,0.09375 -0.3764649,0.09375 -0.3310546,0 -0.5302734,-0.215332 -0.1977539,-0.215332 -0.1977539,-0.550781 v -0.06152 q 0,-0.259278 0.098144,-0.440918 0.099609,-0.183106 0.2578125,-0.278321 0.1582032,-0.09668 0.3369141,-0.09668 0.3398437,0 0.4951172,0.222656 0.1567383,0.221191 0.1567383,0.553711 v 0.121582 H 8.7398338 q 0.00586,0.218262 0.1289063,0.37207 0.1245117,0.152344 0.3413086,0.152344 0.1435547,0 0.243164,-0.05859 0.099609,-0.05859 0.1743164,-0.156738 z M 9.160244,69.400879 q -0.1611328,0 -0.2724609,0.117187 -0.1113282,0.117188 -0.1391602,0.336914 h 0.7924805 v -0.02051 Q 9.5308495,69.67627 9.4488182,69.538574 9.3682518,69.400879 9.160244,69.400879 Z"
       id="path264" />
    <path
       d="m 10.422939,68.54248 v 2.25 h -0.272461 v -2.25 z"
       id="path266" />
    <path
       d="m 11.836514,70.79248 q -0.02637,-0.05713 -0.03809,-0.166992 -0.07617,0.08057 -0.19043,0.13916 -0.114258,0.05713 -0.260742,0.05713 -0.243164,0 -0.389649,-0.13623 -0.146484,-0.136231 -0.146484,-0.333985 0,-0.254882 0.193359,-0.386718 0.19336,-0.133301 0.52002,-0.133301 h 0.268066 v -0.125977 q 0,-0.140625 -0.08496,-0.224121 -0.0835,-0.08496 -0.249023,-0.08496 -0.153809,0 -0.249024,0.07617 -0.09375,0.07471 -0.09375,0.174317 h -0.270996 q 0,-0.169922 0.171387,-0.319336 0.171387,-0.149414 0.458496,-0.149414 0.257813,0 0.42334,0.131836 0.165527,0.131836 0.165527,0.398437 v 0.711914 q 0,0.219727 0.05566,0.348633 v 0.02344 z m -0.449708,-0.208007 q 0.146485,0 0.253418,-0.07324 0.108399,-0.07324 0.152344,-0.162597 v -0.32666 h -0.251953 q -0.457031,0.0088 -0.457031,0.292968 0,0.112793 0.07617,0.191895 0.07617,0.07764 0.22705,0.07764 z"
       id="path268" />
    <path
       d="m 13.008389,71.037109 q -0.140625,0.372071 -0.424805,0.394043 l -0.04541,0.0015 q -0.08643,0 -0.152344,-0.02344 l -0.0015,-0.219727 0.07324,0.0059 q 0.137696,0 0.215332,-0.05713 0.07764,-0.05566 0.127442,-0.202149 l 0.05859,-0.161133 -0.565429,-1.567382 h 0.295898 l 0.396973,1.186523 0.367676,-1.186523 h 0.290039 z"
       id="path270" />
  </g>
  <g
     aria-label="clock"
     id="text22"
     style="font-size:3px;font-family:Roboto;dominant-baseline:middle;text-anchor:middle;fill:#ffffbf">
    <path
       d="m 12.530039,87.099121 q 0.145019,0 0.253418,-0.08643 0.109863,-0.08642 0.120117,-0.221191 h 0.257812 q -0.01025,0.212402 -0.194824,0.37207 -0.18457,0.158203 -0.436523,0.158203 -0.357422,0 -0.531738,-0.23584 -0.172852,-0.235839 -0.172852,-0.555175 v -0.06152 q 0,-0.319336 0.172852,-0.555176 0.174316,-0.235839 0.531738,-0.235839 0.27832,0 0.449707,0.165527 0.171387,0.164062 0.18164,0.408691 h -0.257812 q -0.01025,-0.146484 -0.111328,-0.249023 -0.09961,-0.102539 -0.262207,-0.102539 -0.166992,0 -0.262207,0.08496 -0.09375,0.08496 -0.133301,0.215332 -0.03809,0.130371 -0.03809,0.268066 v 0.06152 q 0,0.13916 0.03809,0.269531 0.03809,0.130371 0.131836,0.215332 0.09521,0.0835 0.263672,0.0835 z"
       id="path273" />
    <path
       d="m 13.760508,85.04248 v 2.25 h -0.272461 v -2.25 z"
       id="path275" />
    <path
       d="m 14.123789,86.483887 q 0,-0.344239 0.193359,-0.574219 0.19336,-0.231445 0.525879,-0.231445 0.33252,0 0.525879,0.22705 0.193359,0.225586 0.197754,0.563965 v 0.04834 q 0,0.344238 -0.194824,0.574219 -0.19336,0.22998 -0.525879,0.22998 -0.333985,0 -0.528809,-0.22998 -0.193359,-0.229981 -0.193359,-0.574219 z m 0.270996,0.03369 q 0,0.23584 0.111328,0.408692 0.112793,0.172851 0.339844,0.172851 0.221191,0 0.333984,-0.169922 0.112793,-0.171387 0.114258,-0.407226 v -0.03809 q 0,-0.23291 -0.112793,-0.407227 -0.112793,-0.175781 -0.338379,-0.175781 -0.224121,0 -0.336914,0.175781 -0.111328,0.174317 -0.111328,0.407227 z"
       id="path277" />
    <path
       d="m 16.540781,87.099121 q 0.14502,0 0.253418,-0.08643 0.109863,-0.08642 0.120117,-0.221191 h 0.257813 q -0.01025,0.212402 -0.194825,0.37207 -0.18457,0.158203 -0.436523,0.158203 -0.357422,0 -0.531738,-0.23584 -0.172852,-0.235839 -0.172852,-0.555175 v -0.06152 q 0,-0.319336 0.172852,-0.555176 0.174316,-0.235839 0.531738,-0.235839 0.27832,0 0.449707,0.165527 0.171387,0.164062 0.181641,0.408691 h -0.257813 q -0.01025,-0.146484 -0.111328,-0.249023 -0.09961,-0.102539 -0.262207,-0.102539 -0.166992,0 -0.262207,0.08496 -0.09375,0.08496 -0.133301,0.215332 -0.03809,0.130371 -0.03809,0.268066 v 0.06152 q 0,0.13916 0.03809,0.269531 0.03809,0.130371 0.131836,0.215332 0.09521,0.0835 0.263672,0.0835 z"
       id="path279" />
    <path
       d="m 18.46998,87.29248 -0.549316,-0.735351 -0.171387,0.177246 v 0.558105 h -0.272461 v -2.25 h 0.272461 v 1.359375 l 0.14502,-0.172851 0.492187,-0.521484 h 0.331055 l -0.618164,0.660644 0.689941,0.924316 z"
       id="path281" />
  </g>
  <g
     aria-label="→buffer"
     id="text24"
     style="font-size:3px;font-family:Roboto;dominant-baseline:middle;text-anchor:middle;fill:#ffffbf">
    <path
       d="m 7.2720604,97.313965 v 0.131836 L 6.6963768,98.021484 6.5205956,97.845703 6.8619041,97.504395 H 5.0762596 V 97.255371 H 6.8619041 L 6.5205956,96.914062 6.6963768,96.738281 Z"
       id="path284" />
    <path
       d="m 8.9668846,97.517578 q 0,0.347168 -0.1611328,0.575684 -0.1611328,0.228515 -0.4555664,0.228515 -0.300293,0 -0.4628906,-0.212402 L 7.8726463,98.29248 H 7.6236229 v -2.25 h 0.2724609 v 0.836426 q 0.1611328,-0.200683 0.4511719,-0.200683 0.2988281,0 0.4584961,0.222656 0.1611328,0.222656 0.1611328,0.585937 z m -0.6870117,-0.61084 q -0.1479492,0 -0.2402344,0.07178 -0.092285,0.07031 -0.1435547,0.174316 v 0.689941 q 0.052734,0.105469 0.1464844,0.177247 0.09375,0.07178 0.2402344,0.07178 0.2197265,0 0.3149414,-0.168457 0.09668,-0.169922 0.09668,-0.405762 v -0.03076 q 0,-0.235839 -0.092285,-0.407226 -0.09082,-0.172852 -0.3222656,-0.172852 z"
       id="path286" />
    <path
       d="m 10.292568,98.29248 -0.0059,-0.156738 q -0.155274,0.186035 -0.4628908,0.186035 -0.2329101,0 -0.3764648,-0.137695 Q 9.3037987,98.046387 9.3037987,97.72998 v -1.02246 h 0.2709961 v 1.02539 q 0,0.213867 0.089355,0.28711 0.09082,0.07178 0.2021485,0.07178 0.3061523,0 0.4130863,-0.229981 V 96.70752 h 0.272461 v 1.58496 z"
       id="path288" />
    <path
       d="M 11.704678,96.915527 H 11.367764 V 98.29248 H 11.096767 V 96.915527 H 10.846279 V 96.70752 h 0.250488 v -0.177247 q 0.0029,-0.251953 0.140625,-0.385253 0.139161,-0.133301 0.379395,-0.133301 0.08935,0 0.1875,0.02344 l -0.01465,0.221192 q -0.06152,-0.01318 -0.146485,-0.01318 -0.270996,0 -0.27539,0.288574 v 0.175782 h 0.336914 z"
       id="path290" />
    <path
       d="M 12.747646,96.915527 H 12.410732 V 98.29248 H 12.139736 V 96.915527 H 11.889248 V 96.70752 h 0.250488 v -0.177247 q 0.0029,-0.251953 0.140625,-0.385253 0.13916,-0.133301 0.379395,-0.133301 0.08935,0 0.1875,0.02344 l -0.01465,0.221192 q -0.06152,-0.01318 -0.146484,-0.01318 -0.270996,0 -0.275391,0.288574 v 0.175782 h 0.336914 z"
       id="path292" />
    <path
       d="m 14.268154,98.015625 q -0.07764,0.117187 -0.219726,0.212402 -0.14209,0.09375 -0.376465,0.09375 -0.331055,0 -0.530274,-0.215332 -0.197754,-0.215332 -0.197754,-0.550781 v -0.06152 q 0,-0.259278 0.09815,-0.440918 0.09961,-0.183106 0.257812,-0.278321 0.158204,-0.09668 0.336914,-0.09668 0.339844,0 0.495118,0.222656 0.156738,0.221191 0.156738,0.553711 v 0.121582 h -1.072266 q 0.0059,0.218262 0.128907,0.37207 0.124511,0.152344 0.341308,0.152344 0.143555,0 0.243164,-0.05859 0.09961,-0.05859 0.174317,-0.156738 z m -0.631348,-1.114746 q -0.161132,0 -0.27246,0.117187 -0.111329,0.117188 -0.139161,0.336914 h 0.792481 v -0.02051 q -0.01025,-0.158203 -0.09229,-0.295899 -0.08057,-0.137695 -0.288575,-0.137695 z"
       id="path294" />
    <path
       d="m 15.237881,96.938965 q -0.265137,0 -0.361817,0.228515 v 1.125 h -0.270996 v -1.58496 h 0.263672 l 0.0059,0.18164 q 0.130372,-0.210937 0.376465,-0.210937 0.07617,0 0.120117,0.02051 l -0.0015,0.251954 q -0.06006,-0.01172 -0.131836,-0.01172 z"
       id="path296" />
  </g>
  <g
     aria-label="reset"
     id="text26"
     style="font-size:3px;font-family:Roboto;dominant-baseline:middle;text-anchor:middle;fill:#ffffbf">
    <path
       d="m 7.6492577,107.93896 q -0.2651368,0 -0.3618164,0.22852 v 1.125 H 7.0164452 v -1.58496 H 7.280117 l 0.00586,0.18164 q 0.1303711,-0.21094 0.3764649,-0.21094 0.076172,0 0.1201171,0.0205 l -0.00146,0.25195 q -0.060059,-0.0117 -0.1318359,-0.0117 z"
       id="path299" />
    <path
       d="m 9.2591209,109.01563 q -0.077637,0.11718 -0.2197265,0.2124 -0.1420899,0.0937 -0.3764649,0.0937 -0.3310547,0 -0.5302734,-0.21533 -0.1977539,-0.21534 -0.1977539,-0.55079 v -0.0615 q 0,-0.25928 0.098145,-0.44092 0.099609,-0.1831 0.2578125,-0.27832 0.1582031,-0.0967 0.3369141,-0.0967 0.3398437,0 0.4951172,0.22266 0.1567383,0.22119 0.1567383,0.55371 v 0.12158 H 8.2073631 q 0.00586,0.21826 0.1289063,0.37207 0.1245117,0.15235 0.3413086,0.15235 0.1435547,0 0.243164,-0.0586 0.099609,-0.0586 0.1743164,-0.15674 z m -0.6313476,-1.11475 q -0.1611328,0 -0.272461,0.11719 -0.1113281,0.11718 -0.1391601,0.33691 h 0.7924805 v -0.0205 q -0.010254,-0.1582 -0.092285,-0.2959 -0.080566,-0.13769 -0.2885742,-0.13769 z"
       id="path301" />
    <path
       d="m 10.518887,108.87207 q 0,-0.0864 -0.06445,-0.15527 -0.06299,-0.0703 -0.292968,-0.11719 -0.265137,-0.0542 -0.4218753,-0.15674 -0.1567383,-0.104 -0.1567383,-0.30176 0,-0.1875 0.159668,-0.32519 0.1611328,-0.1377 0.4277346,-0.1377 0.284179,0 0.443847,0.14502 0.159668,0.14502 0.159668,0.3501 h -0.270996 q 0,-0.0981 -0.08643,-0.18457 -0.08643,-0.0879 -0.246094,-0.0879 -0.168457,0 -0.2416995,0.0732 -0.073242,0.0732 -0.073242,0.15967 0,0.0864 0.067383,0.14062 0.068848,0.0527 0.2900388,0.10254 0.291504,0.0659 0.433594,0.17285 0.143555,0.10694 0.143555,0.30176 0,0.20948 -0.168457,0.33985 -0.166993,0.13037 -0.443848,0.13037 -0.3149414,0 -0.4819336,-0.16114 -0.1669922,-0.16113 -0.1669922,-0.35742 h 0.2724609 q 0.00879,0.16846 0.1289063,0.23291 0.1215816,0.063 0.2475586,0.063 0.165527,0 0.253418,-0.0644 0.08789,-0.0645 0.08789,-0.1626 z"
       id="path303" />
    <path
       d="m 12.398281,109.01563 q -0.07764,0.11718 -0.219726,0.2124 -0.14209,0.0937 -0.376465,0.0937 -0.331055,0 -0.530274,-0.21533 -0.197754,-0.21534 -0.197754,-0.55079 v -0.0615 q 0,-0.25928 0.09815,-0.44092 0.09961,-0.1831 0.257812,-0.27832 0.158204,-0.0967 0.336914,-0.0967 0.339844,0 0.495118,0.22266 0.156738,0.22119 0.156738,0.55371 v 0.12158 h -1.072266 q 0.0059,0.21826 0.128907,0.37207 0.124511,0.15235 0.341308,0.15235 0.143555,0 0.243164,-0.0586 0.09961,-0.0586 0.174317,-0.15674 z m -0.631348,-1.11475 q -0.161132,0 -0.27246,0.11719 -0.111329,0.11718 -0.139161,0.33691 h 0.792481 v -0.0205 q -0.01025,-0.1582 -0.09229,-0.2959 -0.08057,-0.13769 -0.288575,-0.13769 z"
       id="path305" />
    <path
       d="m 13.406094,109.29248 q -0.09229,0.0293 -0.209473,0.0293 -0.150879,0 -0.257813,-0.0923 -0.106933,-0.0923 -0.106933,-0.33105 v -0.98291 h -0.290039 v -0.20801 h 0.290039 v -0.38525 h 0.270996 v 0.38525 h 0.295898 v 0.20801 h -0.295898 v 0.98437 q 0,0.12158 0.05273,0.15528 0.05274,0.0337 0.121582,0.0337 0.05127,0 0.127442,-0.0176 z"
       id="path307" />
  </g>
  <g
     aria-label="poly"
     id="text28"
     style="font-size:3px;font-family:Roboto;dominant-baseline:middle;text-anchor:middle;fill:#000010">
    <path
       d="m 8.3179588,120.32178 q -0.2856445,0 -0.4526367,-0.18311 v 0.76319 H 7.5928612 v -2.19434 h 0.2490234 l 0.013184,0.17432 q 0.1669922,-0.20362 0.4584961,-0.20362 0.300293,0 0.4599609,0.22266 0.159668,0.22266 0.159668,0.58594 v 0.0308 q 0,0.34717 -0.1611328,0.57568 -0.159668,0.22852 -0.4541016,0.22852 z m -0.083496,-1.41504 q -0.2460937,0 -0.3691406,0.21826 v 0.75879 q 0.1245117,0.21533 0.3720703,0.21533 0.2197266,0 0.3208008,-0.17285 0.1025391,-0.17285 0.1025391,-0.40869 v -0.0308 q 0,-0.23584 -0.1025391,-0.40723 -0.1010742,-0.17285 -0.3237305,-0.17285 z"
       id="path310" />
    <path
       d="m 9.207119,119.48389 q 0,-0.34424 0.1933594,-0.57422 0.1933593,-0.23145 0.5258789,-0.23145 0.3325197,0 0.5258787,0.22705 0.19336,0.22559 0.197754,0.56397 v 0.0483 q 0,0.34424 -0.194824,0.57422 -0.19336,0.22998 -0.525879,0.22998 -0.3339844,0 -0.5288086,-0.22998 -0.1933594,-0.22998 -0.1933594,-0.57422 z m 0.2709961,0.0337 q 0,0.23584 0.1113281,0.40869 0.112793,0.17285 0.3398438,0.17285 0.221191,0 0.333984,-0.16992 0.112793,-0.17139 0.114258,-0.40723 v -0.0381 q 0,-0.23291 -0.112793,-0.40723 -0.112793,-0.17578 -0.3383787,-0.17578 -0.2241211,0 -0.3369141,0.17578 -0.1113281,0.17432 -0.1113281,0.40723 z"
       id="path312" />
    <path
       d="m 11.284267,118.04248 v 2.25 h -0.272461 v -2.25 z"
       id="path314" />
    <path
       d="m 12.259853,120.53711 q -0.140625,0.37207 -0.424804,0.39404 l -0.04541,0.001 q -0.08643,0 -0.152344,-0.0234 l -0.0015,-0.21973 0.07324,0.006 q 0.137695,0 0.215332,-0.0571 0.07764,-0.0557 0.127442,-0.20214 l 0.05859,-0.16114 -0.565429,-1.56738 h 0.295898 l 0.396973,1.18652 0.367675,-1.18652 h 0.29004 z"
       id="path316" />
  </g>
  <path
     style="color:#000000;fill:#ffffbf;stroke-linecap:round;-inkscape-stroke:none"
     d="M 10.222656,59.892578 A 0.125,0.125 0 0 0 10.050781,59.9375 L 6.8125,65.548828 a 0.125,0.125 0 0 0 0.044922,0.171875 0.125,0.125 0 0 0 0.1699218,-0.04687 L 10.267578,60.0625 a 0.125,0.125 0 0 0 -0.04492,-0.169922 z"
     id="path30" />
  <g
     aria-label="0"
     id="text32"
     style="font-size:2.5px;font-family:Roboto;dominant-baseline:middle;text-anchor:middle;fill:#ffffbf">
    <path
       d="m 6.7309132,66.812004 q 0,0.437012 -0.1513672,0.610352 -0.1501465,0.173339 -0.4089356,0.173339 -0.2514648,0 -0.4052734,-0.168457 Q 5.6127491,67.258781 5.6078663,66.84008 v -0.299072 q 0,-0.435791 0.1525879,-0.603027 0.1525879,-0.168457 0.4077148,-0.168457 0.255127,0 0.4064942,0.163574 0.1513671,0.162353 0.15625,0.579834 z M 6.5038624,66.503166 q 0,-0.300293 -0.085449,-0.424804 -0.085449,-0.124512 -0.2502442,-0.124512 -0.1586914,0 -0.2453613,0.120849 -0.085449,0.12085 -0.087891,0.411377 v 0.362549 q 0,0.297852 0.08667,0.429688 0.087891,0.131836 0.2490234,0.131836 0.1647949,0 0.2478028,-0.129395 0.084229,-0.130615 0.085449,-0.422363 z"
       id="path319" />
  </g>
  <path
     style="color:#000000;fill:#ffffbf;stroke-linecap:round;-inkscape-stroke:none"
     d="m 10.199219,59.880859 a 0.125,0.125 0 0 0 -0.0957,0.0078 L 4.3125,62.796875 a 0.125,0.125 0 0 0 -0.054687,0.167969 0.125,0.125 0 0 0 0.1679687,0.05469 l 5.7910158,-2.908203 a 0.125,0.125 0 0 0 0.05469,-0.167969 0.125,0.125 0 0 0 -0.07226,-0.0625 z"
     id="path34" />
  <g
     id="text36"
     style="font-size:2.5px;font-family:Roboto;dominant-baseline:middle;text-anchor:middle;fill:#ffffbf" />
  <path
     style="color:#000000;fill:#ffffbf;stroke-linecap:round;-inkscape-stroke:none"
     d="m 3.7382813,59.123047 a 0.125,0.125 0 0 0 -0.1386719,0.109375 0.125,0.125 0 0 0 0.109375,0.138672 L 10.144531,60.125 A 0.125,0.125 0 0 0 10.283203,60.013672 0.125,0.125 0 0 0 10.173828,59.875 Z"
     id="path38" />
  <g
     id="text40"
     style="font-size:2.5px;font-family:Roboto;dominant-baseline:middle;text-anchor:middle;fill:#ffffbf" />
  <path
     style="color:#000000;fill:#ffffbf;stroke-linecap:round;-inkscape-stroke:none"
     d="m 5.2773437,55.738281 a 0.125,0.125 0 0 0 -0.1777343,0.01563 0.125,0.125 0 0 0 0.015625,0.175781 l 4.9648436,4.166016 a 0.125,0.125 0 0 0 0.175781,-0.01563 0.125,0.125 0 0 0 -0.01563,-0.175781 z"
     id="path42" />
  <g
     id="text44"
     style="font-size:2.5px;font-family:Roboto;dominant-baseline:middle;text-anchor:middle;fill:#ffffbf" />
  <path
     style="color:#000000;fill:#ffffbf;stroke-linecap:round;-inkscape-stroke:none"
     d="m 8.265625,53.671875 a 0.125,0.125 0 0 0 -0.083984,0.15625 l 1.8593754,6.207031 a 0.125,0.125 0 0 0 0.154297,0.08398 0.125,0.125 0 0 0 0.08398,-0.154297 L 8.421875,53.755859 a 0.125,0.125 0 0 0 -0.15625,-0.08398 z"
     id="path46" />
  <g
     id="text48"
     style="font-size:2.5px;font-family:Roboto;dominant-baseline:middle;text-anchor:middle;fill:#ffffbf" />
  <path
     style="color:#000000;fill:#ffffbf;stroke-linecap:round;-inkscape-stroke:none"
     d="m 12.054688,53.671875 a 0.125,0.125 0 0 0 -0.15625,0.08398 l -1.857422,6.208985 a 0.125,0.125 0 0 0 0.08398,0.154297 0.125,0.125 0 0 0 0.154297,-0.08398 l 1.859375,-6.207031 a 0.125,0.125 0 0 0 -0.08398,-0.15625 z"
     id="path50" />
  <g
     id="text52"
     style="font-size:2.5px;font-family:Roboto;dominant-baseline:middle;text-anchor:middle;fill:#ffffbf" />
  <path
     style="color:#000000;fill:#ffffbf;stroke-linecap:round;-inkscape-stroke:none"
     d="m 15.042969,55.738281 -4.962891,4.166016 a 0.125,0.125 0 0 0 -0.01563,0.175781 0.125,0.125 0 0 0 0.175781,0.01563 l 4.964844,-4.166016 a 0.125,0.125 0 0 0 0.01367,-0.175781 0.125,0.125 0 0 0 -0.175781,-0.01563 z"
     id="path54" />
  <g
     id="text56"
     style="font-size:2.5px;font-family:Roboto;dominant-baseline:middle;text-anchor:middle;fill:#ffffbf" />
  <path
     style="color:#000000;fill:#ffffbf;stroke-linecap:round;-inkscape-stroke:none"
     d="m 16.582031,59.123047 -6.4375,0.751953 a 0.125,0.125 0 0 0 -0.109375,0.138672 0.125,0.125 0 0 0 0.138672,0.111328 l 6.4375,-0.753906 a 0.125,0.125 0 0 0 0.109375,-0.138672 0.125,0.125 0 0 0 -0.138672,-0.109375 z"
     id="path58" />
  <g
     id="text60"
     style="font-size:2.5px;font-family:Roboto;dominant-baseline:middle;text-anchor:middle;fill:#ffffbf" />
  <path
     style="color:#000000;fill:#ffffbf;stroke-linecap:round;-inkscape-stroke:none"
     d="m 10.121094,59.880859 a 0.125,0.125 0 0 0 -0.07227,0.0625 0.125,0.125 0 0 0 0.05469,0.167969 l 5.791015,2.908203 a 0.125,0.125 0 0 0 0.167969,-0.05469 0.125,0.125 0 0 0 -0.05469,-0.167969 l -5.791015,-2.908203 a 0.125,0.125 0 0 0 -0.0957,-0.0078 z"
     id="path62" />
  <g
     id="text64"
     style="font-size:2.5px;font-family:Roboto;dominant-baseline:middle;text-anchor:middle;fill:#ffffbf" />
  <path
     style="color:#000000;fill:#ffffbf;stroke-linecap:round;-inkscape-stroke:none"
     d="m 10.097656,59.892578 a 0.125,0.125 0 0 0 -0.04687,0.169922 l 3.240235,5.611328 a 0.125,0.125 0 0 0 0.171875,0.04687 0.125,0.125 0 0 0 0.04492,-0.171875 L 10.267578,59.9375 a 0.125,0.125 0 0 0 -0.169922,-0.04492 z"
     id="path66" />
  <g
     aria-label="❄"
     id="text68"
     style="font-size:2.5px;font-family:Roboto;dominant-baseline:middle;text-anchor:middle;fill:#ffffbf">
    <path
       d="m 14.003515,66.68261 -0.292969,-0.168457 -0.236816,0.136718 -0.07324,-0.126953 0.163574,-0.09399 -0.239258,-0.13916 0.07324,-0.126953 0.239258,0.13916 v -0.189209 h 0.146485 v 0.273437 l 0.292968,0.169678 v -0.339355 l -0.236816,-0.135498 0.07324,-0.126954 0.163574,0.09399 v -0.2771 h 0.146485 v 0.2771 l 0.163574,-0.09399 0.07324,0.126954 -0.236816,0.135498 v 0.338134 l 0.292969,-0.168457 v -0.273437 h 0.146484 v 0.189209 l 0.239258,-0.13916 0.07324,0.126953 -0.239258,0.13916 0.163574,0.09399 -0.07324,0.126953 -0.236816,-0.136718 -0.292969,0.168457 0.292969,0.169677 0.236816,-0.136718 0.07324,0.126953 -0.163574,0.09399 0.239258,0.13916 -0.07324,0.126953 -0.239258,-0.13916 v 0.189209 H 14.516211 V 66.97924 l -0.292969,-0.169677 v 0.339355 l 0.236816,0.135498 -0.07324,0.126953 -0.163574,-0.09399 v 0.2771 h -0.146485 v -0.2771 l -0.163574,0.09399 -0.07324,-0.126953 0.236816,-0.135498 v -0.339355 l -0.292968,0.169677 v 0.273438 h -0.146485 v -0.189209 l -0.239258,0.13916 -0.07324,-0.126953 0.239258,-0.13916 -0.163574,-0.09399 0.07324,-0.126953 0.236816,0.136718 z"
       id="path330" />
  </g>
</svg>
