<?xml version="1.0" encoding="UTF-8" standalone="no"?>
<svg
   width="20.32mm"
   height="128.5mm"
   viewBox="0 0 20.32 128.5"
   version="1.1"
   id="svg13"
   sodipodi:docname="Bufke.svg"
   inkscape:version="1.4.2 (ebf0e94, 2025-05-08)"
   xmlns:inkscape="http://www.inkscape.org/namespaces/inkscape"
   xmlns:sodipodi="http://sodipodi.sourceforge.net/DTD/sodipodi-0.dtd"
   xmlns="http://www.w3.org/2000/svg"
   xmlns:svg="http://www.w3.org/2000/svg">
  <defs
     id="defs13" />
  <sodipodi:namedview
     id="namedview13"
     pagecolor="#ffffff"
     bordercolor="#000000"
     borderopacity="0.25"
     inkscape:showpageshadow="2"
     inkscape:pageopacity="0.0"
     inkscape:pagecheckerboard="0"
     inkscape:deskcolor="#d1d1d1"
     inkscape:document-units="mm"
     inkscape:zoom="2.1830005"
     inkscape:cx="16.720106"
     inkscape:cy="415.71222"
     inkscape:window-width="1366"
     inkscape:window-height="699"
     inkscape:window-x="0"
     inkscape:window-y="0"
     inkscape:window-maximized="1"
     inkscape:current-layer="svg13" />
  <rect
     style="fill:#000010"
     x="0"
     y="0"
     width="20.32"
     height="128.5"
     id="rect1" />
  <path
     id="text1"
     style="font-weight:bold;font-size:6px;font-family:Roboto;text-anchor:middle;fill:#ffffbf"
     d="M 11.201383 5.4384277 C 10.963102 5.4384277 10.757161 5.4816813 10.583333 5.5676188 C 10.411458 5.6516032 10.27751 5.7762573 10.181807 5.9422729 C 10.088057 6.1063355 10.041248 6.3087199 10.041248 6.5489543 L 10.041248 6.8300741 L 9.5694417 6.8300741 L 9.5694417 7.4279704 L 10.041248 7.4279704 L 10.041248 9.9999064 L 10.890808 9.9999064 L 10.890808 7.4279704 L 11.523844 7.4279704 L 11.523844 6.8300741 L 10.890808 6.8300741 L 10.890808 6.5489543 C 10.890808 6.4532509 10.909512 6.3719643 10.946619 6.3055583 C 10.983728 6.2391522 11.037536 6.1894167 11.107849 6.1562134 C 11.180114 6.1210574 11.266736 6.1035034 11.368298 6.1035034 C 11.422988 6.1035034 11.470945 6.1052812 11.511959 6.1091878 C 11.552977 6.1130945 11.592158 6.1200931 11.629264 6.1298584 L 11.638049 5.4942383 C 11.56969 5.4786129 11.499475 5.4657631 11.427209 5.4559977 C 11.354943 5.4442791 11.279508 5.4384277 11.201383 5.4384277 z M 11.963094 5.4968221 L 11.963094 9.9999064 L 12.80697 9.9999064 L 12.80697 9.0283895 L 13.110828 8.7214315 L 13.928866 9.9999064 L 14.901933 9.9999064 L 13.65343 8.1431722 L 14.804781 6.8300741 L 13.791406 6.8300741 L 12.968201 7.7938395 L 12.80697 7.9984782 L 12.80697 5.4968221 L 11.963094 5.4968221 z M 2.6789062 5.7345337 L 2.6789062 9.9999064 L 3.5579224 9.9999064 L 4.310848 9.9999064 C 4.640926 9.9999064 4.9200073 9.9530965 5.1485229 9.8593465 C 5.3789917 9.7655965 5.5538977 9.6257975 5.6730387 9.4402507 C 5.7921794 9.2527507 5.8518392 9.0222575 5.8518392 8.74882 C 5.8518392 8.576945 5.8149536 8.4160359 5.7407349 8.2656453 C 5.6684692 8.1152547 5.5520752 7.9930094 5.3919189 7.8992594 C 5.3212236 7.8564929 5.2405327 7.8239498 5.1495565 7.8010742 C 5.1897416 7.7849949 5.2276961 7.766655 5.2632446 7.746814 C 5.4331665 7.653064 5.5571899 7.5324832 5.6353149 7.3840454 C 5.7153931 7.2356079 5.7552043 7.0730347 5.7552043 6.8972534 C 5.7552043 6.6980347 5.7189494 6.5265707 5.6466838 6.3820394 C 5.5744181 6.2355551 5.4702433 6.1144572 5.3335246 6.0187541 C 5.1968058 5.9230506 5.0295289 5.8516883 4.8322632 5.8048136 C 4.6369507 5.757939 4.4152344 5.7345337 4.1671875 5.7345337 L 2.6789062 5.7345337 z M 3.5579224 6.4228638 L 4.1671875 6.4228638 C 4.33125 6.4228638 4.4651977 6.441565 4.5687134 6.4786743 C 4.6741821 6.5157837 4.7513959 6.5754438 4.8002238 6.6574748 C 4.8510051 6.739506 4.8761882 6.8466064 4.8761882 6.9794189 C 4.8761882 7.0966064 4.8498579 7.1960775 4.7971232 7.2781087 C 4.7463419 7.3581869 4.6691284 7.4201417 4.5656128 7.4631104 C 4.4620971 7.5041264 4.3292968 7.5246053 4.1671875 7.5246053 L 3.5579224 7.5246053 L 3.5579224 6.4228638 z M 16.474963 6.7716797 C 16.244495 6.7716797 16.037406 6.8114909 15.853813 6.891569 C 15.670219 6.969694 15.514013 7.082015 15.385107 7.2284993 C 15.258154 7.3749837 15.160461 7.5475952 15.092102 7.746814 C 15.023743 7.9460327 14.989783 8.1659708 14.989783 8.4062052 L 14.989783 8.5235107 C 14.989783 8.7344483 15.025521 8.9333903 15.097786 9.1208903 C 15.170052 9.3064372 15.273596 9.4696411 15.408362 9.6102661 C 15.54508 9.7508911 15.71121 9.8614366 15.906523 9.941512 C 16.101835 10.019637 16.322404 10.058818 16.568498 10.058818 C 16.773576 10.058818 16.956628 10.031339 17.116785 9.976652 C 17.276941 9.9200114 17.413297 9.8475017 17.526579 9.759611 C 17.641813 9.6717204 17.732507 9.5798788 17.798914 9.4841756 L 17.389119 9.0392415 C 17.293416 9.1603355 17.178801 9.2510297 17.045988 9.3115763 C 16.915129 9.3701703 16.773551 9.3994263 16.621208 9.3994263 C 16.49816 9.3994263 16.388135 9.3777994 16.290479 9.3348307 C 16.194775 9.291862 16.112858 9.2315715 16.044499 9.1534465 C 15.97809 9.0753215 15.926059 8.9823323 15.888953 8.8749105 C 15.868318 8.8118676 15.853552 8.745726 15.845028 8.6759562 L 17.86971 8.6759562 L 17.86971 8.3240397 C 17.86971 8.0916178 17.839306 7.8809733 17.77876 7.6915202 C 17.718213 7.500114 17.628149 7.3357626 17.509009 7.1990438 C 17.391821 7.062325 17.246171 6.9570028 17.072343 6.882784 C 16.898514 6.8085653 16.699573 6.7716797 16.474963 6.7716797 z M 6.4321655 6.8300741 L 6.4321655 8.8780111 C 6.4321655 9.0889485 6.4573486 9.2697062 6.5081299 9.4200968 C 6.5608642 9.5685343 6.633374 9.6902628 6.7251709 9.785966 C 6.8189209 9.879716 6.9300945 9.9492999 7.0590007 9.994222 C 7.1898601 10.037191 7.3325846 10.058818 7.4868815 10.058818 C 7.6880534 10.058818 7.862443 10.022563 8.0108805 9.950297 C 8.148565 9.8814548 8.2646688 9.7883017 8.3586629 9.6707275 L 8.380367 9.9999064 L 9.174117 9.9999064 L 9.174117 6.8300741 L 8.3302409 6.8300741 L 8.3302409 9.0728312 C 8.2877745 9.1605842 8.226336 9.2325354 8.145756 9.2883219 C 8.0461466 9.3586345 7.9092733 9.3937419 7.7354451 9.3937419 C 7.6670858 9.3937419 7.6050171 9.3849649 7.5483765 9.3673869 C 7.4936887 9.3498082 7.4457313 9.3205523 7.404716 9.2795369 C 7.3637 9.2385215 7.3315184 9.1853436 7.3080811 9.1208903 C 7.2865964 9.0564372 7.2755249 8.9774455 7.2755249 8.8836955 L 7.2755249 6.8300741 L 6.4321655 6.8300741 z M 16.466178 7.4305542 C 16.597038 7.4305542 16.704655 7.4580324 16.788639 7.5127197 C 16.872626 7.5674073 16.934695 7.6416951 16.975708 7.7354451 C 17.018675 7.827242 17.040304 7.9314169 17.040304 8.0486043 L 17.040304 8.1131999 L 15.855363 8.1131999 C 15.859872 8.0811583 15.86529 8.0501238 15.871383 8.0196655 C 15.896775 7.9005249 15.934177 7.7969808 15.983004 7.7090902 C 16.033785 7.6211994 16.098779 7.5527627 16.178857 7.5039347 C 16.258935 7.4551067 16.35485 7.4305542 16.466178 7.4305542 z M 3.5579224 8.128186 L 4.3490885 8.128186 C 4.4994791 8.128186 4.620577 8.1533691 4.7123739 8.2041504 C 4.8041708 8.2529785 4.8703128 8.3231932 4.9113281 8.4149902 C 4.9542968 8.5067871 4.9759237 8.615035 4.9759237 8.740035 C 4.9759237 8.8513631 4.9525184 8.9502035 4.9056437 9.036141 C 4.8587687 9.1220784 4.786259 9.1905151 4.6886027 9.2412964 C 4.5909465 9.2901244 4.4651448 9.3146769 4.310848 9.3146769 L 3.5579224 9.3146769 L 3.5579224 8.128186 z M 13.981576 10.719242 C 13.874154 10.719242 13.781681 10.739724 13.703556 10.780737 C 13.625432 10.820776 13.565199 10.880436 13.523206 10.959538 C 13.482192 11.037662 13.461711 11.133634 13.461711 11.247892 L 13.461711 11.414807 L 13.21108 11.414807 L 13.21108 11.623063 L 13.461711 11.623063 L 13.461711 13.00024 L 13.732495 13.00024 L 13.732495 11.623063 L 14.069425 11.623063 L 14.069425 11.414807 L 13.732495 11.414807 L 13.732495 11.247892 C 13.732495 11.18344 13.743565 11.129575 13.765051 11.085628 C 13.786538 11.041682 13.817572 11.008353 13.858586 10.985893 C 13.900575 10.962453 13.950311 10.950753 14.007931 10.950753 C 14.033317 10.950753 14.059018 10.95192 14.084412 10.953853 C 14.110778 10.95582 14.134185 10.958805 14.154692 10.963672 L 14.169161 10.742497 C 14.138888 10.73471 14.107853 10.72886 14.075627 10.724927 C 14.044373 10.720993 14.012822 10.719242 13.981576 10.719242 z M 15.024406 10.719242 C 14.916984 10.719242 14.824512 10.739724 14.746387 10.780737 C 14.668263 10.820776 14.608029 10.880436 14.566036 10.959538 C 14.525023 11.037662 14.504541 11.133634 14.504541 11.247892 L 14.504541 11.414807 L 14.25391 11.414807 L 14.25391 11.623063 L 14.504541 11.623063 L 14.504541 13.00024 L 14.775842 13.00024 L 14.775842 11.623063 L 15.112773 11.623063 L 15.112773 11.414807 L 14.775842 11.414807 L 14.775842 11.247892 C 14.775842 11.18344 14.786395 11.129575 14.807882 11.085628 C 14.829368 11.041682 14.860403 11.008353 14.901416 10.985893 C 14.943405 10.962453 14.993141 10.950753 15.050761 10.950753 C 15.076148 10.950753 15.101849 10.95192 15.127242 10.953853 C 15.153609 10.95582 15.177015 10.958805 15.197522 10.963672 L 15.211991 10.742497 C 15.181718 10.73471 15.150684 10.72886 15.118457 10.724927 C 15.087204 10.720993 15.055653 10.719242 15.024406 10.719242 z M 9.9885376 10.750248 L 9.9885376 13.00024 L 10.237618 13.00024 L 10.251571 12.816789 C 10.254216 12.820277 10.256621 12.82371 10.259322 12.827124 C 10.31108 12.892557 10.374813 12.942866 10.450008 12.978019 C 10.526179 13.012199 10.614522 13.029179 10.715108 13.029179 C 10.813741 13.029179 10.900936 13.009274 10.977108 12.969234 C 11.053281 12.929196 11.117644 12.873035 11.170378 12.800769 C 11.223109 12.728504 11.263437 12.643661 11.290784 12.546004 C 11.318124 12.447372 11.331608 12.340328 11.331608 12.225094 L 11.331608 12.194088 C 11.331608 12.072994 11.318124 11.963542 11.290784 11.864909 C 11.263439 11.7653 11.223111 11.679883 11.170378 11.608594 C 11.11862 11.537306 11.054256 11.482349 10.977108 11.444263 C 10.89996 11.405203 10.811617 11.385868 10.712008 11.385868 C 10.612398 11.385868 10.525203 11.403418 10.450008 11.438578 C 10.37552 11.472436 10.312365 11.521922 10.260872 11.587406 L 10.260872 10.750248 L 9.9885376 10.750248 z M 6.856429 11.385868 C 6.7372884 11.385868 6.6336873 11.40692 6.5448201 11.448914 C 6.4569298 11.490906 6.3832725 11.548271 6.3246785 11.621513 C 6.2670611 11.694755 6.2237506 11.779541 6.1944539 11.875244 C 6.1661339 11.969971 6.1520793 12.070072 6.1520793 12.176518 L 6.1520793 12.238529 C 6.1520793 12.344975 6.1661336 12.44565 6.1944539 12.541353 C 6.2237508 12.63608 6.2670613 12.720292 6.3246785 12.793534 C 6.3832723 12.866776 6.4569294 12.924143 6.5448201 12.966134 C 6.6336873 13.008127 6.7372884 13.029179 6.856429 13.029179 C 6.9687338 13.029179 7.0722209 13.004625 7.1659709 12.955798 C 7.2597207 12.905994 7.3352131 12.841057 7.3928304 12.760978 C 7.4514271 12.679924 7.483035 12.592729 7.487915 12.498979 L 7.2300496 12.498979 C 7.2251663 12.558551 7.205261 12.611786 7.170105 12.658659 C 7.1349486 12.704558 7.0899168 12.740813 7.0352295 12.767179 C 6.9805422 12.793546 6.9208824 12.806453 6.856429 12.806453 C 6.7724447 12.806453 6.7022299 12.790621 6.6455892 12.758394 C 6.5899254 12.72519 6.5454673 12.681306 6.512264 12.626619 C 6.4800373 12.571932 6.4572063 12.510551 6.4435343 12.443168 C 6.4298623 12.375785 6.4228638 12.307865 6.4228638 12.238529 L 6.4228638 12.176518 C 6.4228638 12.107182 6.4298623 12.039319 6.4435343 11.972913 C 6.4581823 11.905529 6.4815876 11.844665 6.5138143 11.789978 C 6.5470175 11.734314 6.5914755 11.69043 6.6471395 11.658203 C 6.7037801 11.624996 6.7734212 11.608594 6.856429 11.608594 C 6.928695 11.608594 6.9918541 11.624426 7.0455648 11.656653 C 7.1002522 11.687904 7.1435059 11.73001 7.1747559 11.782743 C 7.2069852 11.835474 7.2251696 11.89456 7.2300496 11.959993 L 7.487915 11.959993 C 7.4830317 11.850618 7.4537758 11.752925 7.4000651 11.666988 C 7.3473307 11.580076 7.274764 11.511639 7.1819906 11.461833 C 7.0892171 11.411053 6.9804525 11.385868 6.856429 11.385868 z M 16.001607 11.385868 C 15.912741 11.385868 15.82675 11.403995 15.743742 11.440129 C 15.660731 11.476262 15.586443 11.529497 15.521016 11.599809 C 15.455587 11.670121 15.404074 11.756111 15.365987 11.857674 C 15.3279 11.95826 15.308626 12.072933 15.308626 12.201839 L 15.308626 12.263334 C 15.308626 12.374662 15.326123 12.477059 15.360303 12.570809 C 15.394485 12.664559 15.443074 12.745846 15.506547 12.814205 C 15.571 12.882564 15.64764 12.935798 15.736507 12.973885 C 15.82635 13.010992 15.926395 13.029179 16.036747 13.029179 C 16.141239 13.029179 16.231877 13.014547 16.308049 12.985254 C 16.385198 12.955955 16.450135 12.917922 16.502869 12.871049 C 16.555603 12.824176 16.598913 12.775014 16.633093 12.723254 L 16.468762 12.59303 C 16.418958 12.658462 16.361019 12.710549 16.294613 12.749609 C 16.228207 12.788669 16.147437 12.808004 16.051733 12.808004 C 15.977514 12.808004 15.910856 12.793949 15.852262 12.765629 C 15.794643 12.737311 15.745481 12.69813 15.704468 12.648324 C 15.664428 12.598516 15.633454 12.541151 15.611967 12.475724 C 15.593335 12.415389 15.583181 12.351079 15.581478 12.283488 L 16.653764 12.283488 L 16.653764 12.162048 C 16.653764 12.05072 16.640917 11.948324 16.615523 11.854574 C 16.590131 11.759847 16.550951 11.67793 16.498218 11.608594 C 16.445484 11.538279 16.377621 11.483323 16.294613 11.444263 C 16.212581 11.405203 16.114889 11.385868 16.001607 11.385868 z M 17.615979 11.385868 C 17.530042 11.385868 17.455754 11.404572 17.393254 11.441679 C 17.331731 11.477808 17.280848 11.528174 17.240808 11.593608 C 17.240155 11.594659 17.239389 11.595652 17.238741 11.596708 L 17.233573 11.414807 L 16.970024 11.414807 L 16.970024 13.00024 L 17.240808 13.00024 L 17.240808 11.873177 C 17.259836 11.828872 17.284982 11.790505 17.315739 11.757939 C 17.34894 11.722785 17.389325 11.695306 17.437179 11.675773 C 17.485031 11.65624 17.540043 11.646318 17.602543 11.646318 C 17.62793 11.646318 17.650706 11.647485 17.670239 11.649418 C 17.690746 11.650418 17.711858 11.653336 17.734318 11.658203 L 17.735868 11.406022 C 17.726108 11.401169 17.708552 11.397036 17.683158 11.393103 C 17.657772 11.388236 17.635512 11.385868 17.615979 11.385868 z M 7.6346761 11.414807 L 8.2088013 13.00024 L 8.3901855 13.00024 L 8.415507 13.00024 L 8.9849813 11.414807 L 8.7079956 11.414807 L 8.3152547 12.628687 L 7.9126953 11.414807 L 7.6346761 11.414807 z M 12.644189 11.414807 L 12.644189 12.567708 C 12.614486 12.63627 12.568245 12.691548 12.50518 12.73359 C 12.437797 12.777536 12.346529 12.799219 12.231295 12.799219 C 12.194182 12.799219 12.157928 12.793939 12.122774 12.783199 C 12.088594 12.772459 12.05756 12.753755 12.02924 12.727389 C 12.001893 12.700047 11.979694 12.663734 11.963094 12.617834 C 11.947467 12.570959 11.93984 12.511873 11.93984 12.440584 L 11.93984 11.415324 L 11.668538 11.415324 L 11.668538 12.437484 C 11.668538 12.542952 11.680815 12.63359 11.705229 12.708785 C 11.730617 12.783982 11.766299 12.844846 11.812199 12.89172 C 11.858094 12.938595 11.91305 12.973129 11.97653 12.995589 C 12.040983 13.018049 12.111771 13.029179 12.18892 13.029179 C 12.302201 13.029179 12.398173 13.011052 12.477275 12.974919 C 12.547322 12.94206 12.605635 12.898215 12.651941 12.843144 L 12.657625 13.00024 L 12.916524 13.00024 L 12.916524 11.414807 L 12.644189 11.414807 z M 16.001607 11.608594 C 16.094379 11.608594 16.167519 11.629706 16.221232 11.672673 C 16.274943 11.715641 16.314124 11.770597 16.338538 11.837004 C 16.363904 11.90341 16.378529 11.971846 16.382463 12.042159 L 16.382463 12.062313 L 15.589229 12.062313 C 15.594351 12.021596 15.60204 11.983562 15.611967 11.948108 C 15.63248 11.874865 15.66116 11.812853 15.698267 11.762073 C 15.735373 11.711294 15.779832 11.673261 15.831592 11.647868 C 15.883346 11.621501 15.940081 11.608594 16.001607 11.608594 z M 10.644828 11.614278 C 10.721978 11.614278 10.786915 11.630057 10.839648 11.661304 C 10.892382 11.691574 10.934546 11.733164 10.966772 11.786877 C 10.998999 11.839612 11.022923 11.901566 11.037569 11.971879 C 11.052216 12.041215 11.059273 12.114986 11.059273 12.194088 L 11.059273 12.225094 C 11.059273 12.304195 11.051646 12.378483 11.036019 12.447819 C 11.020392 12.517156 10.995838 12.57802 10.962638 12.630754 C 10.93041 12.683488 10.887731 12.72502 10.834998 12.755294 C 10.78324 12.784587 10.721172 12.799219 10.647929 12.799219 C 10.559062 12.799219 10.4842 12.779314 10.423653 12.739274 C 10.364084 12.699235 10.316126 12.647778 10.279993 12.585278 C 10.27329 12.573176 10.266865 12.561385 10.260872 12.549105 L 10.260872 11.860258 C 10.281907 11.817158 10.30766 11.778645 10.338387 11.744503 C 10.373542 11.704469 10.416221 11.672858 10.466028 11.649418 C 10.516809 11.625978 10.576469 11.614278 10.644828 11.614278 z M 14.686442 13.750065 L 14.686442 14.574821 C 14.636916 14.515561 14.577254 14.470037 14.507642 14.438395 C 14.433423 14.403235 14.346285 14.385685 14.246676 14.385685 C 14.151949 14.385685 14.065959 14.40502 13.98881 14.44408 C 13.912641 14.482166 13.847073 14.537122 13.791406 14.608411 C 13.736719 14.6797 13.694039 14.765116 13.663765 14.864726 C 13.634465 14.963358 13.61984 15.073327 13.61984 15.194421 L 13.61984 15.22491 C 13.61984 15.340144 13.634465 15.447188 13.663765 15.545821 C 13.694039 15.643478 13.73672 15.728321 13.791406 15.800586 C 13.84707 15.872851 13.912638 15.929011 13.98881 15.969051 C 14.065959 16.009091 14.151318 16.029513 14.244092 16.029513 C 14.344678 16.029513 14.432446 16.012016 14.507642 15.977836 C 14.582193 15.942983 14.645261 15.893628 14.696777 15.829008 L 14.709696 16.000057 L 14.958777 16.000057 L 14.958777 13.750065 L 14.686442 13.750065 z M 6.2574992 14.385685 C 6.1686321 14.385685 6.0826417 14.403812 5.9996338 14.439945 C 5.9166263 14.476079 5.8423384 14.529314 5.7769084 14.599626 C 5.7114788 14.669938 5.6599651 14.755928 5.6218791 14.857491 C 5.5837931 14.958077 5.5645182 15.07275 5.5645182 15.201656 L 5.5645182 15.263151 C 5.5645182 15.374479 5.5820147 15.476876 5.6161947 15.570626 C 5.6503743 15.664376 5.6989623 15.745662 5.762439 15.814022 C 5.826892 15.88238 5.9035319 15.935615 5.9923991 15.973702 C 6.0822429 16.010809 6.1822876 16.029513 6.2926392 16.029513 C 6.3971314 16.029513 6.4877686 16.014881 6.5639404 15.985588 C 6.6410886 15.956289 6.7060259 15.917739 6.7587606 15.870866 C 6.8114946 15.823993 6.8548052 15.774831 6.8889852 15.723071 L 6.7246541 15.592847 C 6.6748492 15.658279 6.6169106 15.710366 6.5505046 15.749426 C 6.4840983 15.788486 6.4028117 15.808337 6.3071086 15.808337 C 6.2328901 15.808337 6.1667483 15.793766 6.1081543 15.765446 C 6.0505368 15.737128 6.001375 15.698464 5.9603597 15.648657 C 5.920321 15.598849 5.8893436 15.540968 5.8678589 15.475541 C 5.8492257 15.415206 5.8390732 15.351412 5.8373698 15.283822 L 6.909139 15.283822 L 6.909139 15.161865 C 6.909139 15.050537 6.8968059 14.94814 6.8714152 14.85439 C 6.8460249 14.759664 6.8068444 14.677747 6.7541097 14.608411 C 6.7013753 14.538096 6.6335124 14.483656 6.5505046 14.444596 C 6.4684733 14.405536 6.3707805 14.385685 6.2574992 14.385685 z M 9.4335327 14.385685 C 9.3339233 14.385685 9.245638 14.403235 9.1694661 14.438395 C 9.093393 14.472529 9.0288328 14.523012 8.9751628 14.58929 L 8.9617269 14.415141 L 8.7126465 14.415141 L 8.7126465 16.609322 L 8.9849813 16.609322 L 8.9849813 15.846061 C 9.0366986 15.903772 9.0987129 15.948271 9.1710164 15.979386 C 9.2481648 16.012586 9.3370809 16.029513 9.4376668 16.029513 C 9.5362996 16.029513 9.6234944 16.009091 9.6996663 15.969051 C 9.775838 15.929012 9.8401447 15.872852 9.8919027 15.800586 C 9.9446373 15.728321 9.9844487 15.643478 10.011792 15.545821 C 10.039139 15.447188 10.053133 15.340144 10.053133 15.22491 L 10.053133 15.194421 C 10.053133 15.073327 10.039139 14.963358 10.011792 14.864726 C 9.9854253 14.765116 9.9461876 14.6797 9.893453 14.608411 C 9.8407186 14.537123 9.7757813 14.482166 9.6986328 14.44408 C 9.6214844 14.40502 9.5331421 14.385685 9.4335327 14.385685 z M 11.015348 14.385685 C 10.919646 14.385685 10.832508 14.399163 10.754382 14.42651 C 10.677236 14.452875 10.611095 14.48913 10.555428 14.53503 C 10.500737 14.579949 10.458631 14.630259 10.429338 14.685925 C 10.400038 14.74159 10.385413 14.79775 10.385413 14.85439 L 10.656714 14.85439 C 10.656714 14.810446 10.670769 14.769487 10.699089 14.731401 C 10.728387 14.693314 10.768198 14.66234 10.818978 14.6389 C 10.870736 14.61546 10.930969 14.60376 10.999329 14.60376 C 11.072569 14.60376 11.134007 14.616607 11.183813 14.642 C 11.233619 14.667392 11.270504 14.703647 11.294918 14.750521 C 11.320311 14.796419 11.333158 14.850802 11.333158 14.913302 L 11.333158 15.038875 L 11.064958 15.038875 C 10.956559 15.038875 10.858809 15.050522 10.770919 15.072982 C 10.683028 15.095442 10.607593 15.128254 10.545093 15.172201 C 10.48259 15.215166 10.434632 15.269548 10.401432 15.334981 C 10.368226 15.399435 10.351823 15.474296 10.351823 15.559257 C 10.351823 15.647148 10.373505 15.726713 10.417452 15.798002 C 10.462374 15.868313 10.524959 15.924474 10.605037 15.966467 C 10.686092 16.008461 10.780286 16.029513 10.887708 16.029513 C 10.973645 16.029513 11.050859 16.014881 11.119218 15.985588 C 11.188552 15.955312 11.248212 15.917336 11.298018 15.872416 C 11.312635 15.859206 11.326442 15.846159 11.33936 15.832625 C 11.340927 15.846668 11.342874 15.860871 11.345044 15.875517 C 11.352857 15.927278 11.36341 15.96881 11.377083 16.000057 L 11.659753 16.000057 L 11.659753 15.976803 C 11.6412 15.93383 11.627145 15.882373 11.617379 15.822807 C 11.608592 15.763235 11.60446 15.707075 11.60446 15.654342 L 11.60446 14.915885 C 11.60446 14.797721 11.578759 14.699455 11.527979 14.62133 C 11.478174 14.542226 11.409107 14.48314 11.320239 14.44408 C 11.232349 14.40502 11.130583 14.385685 11.015348 14.385685 z M 12.76873 14.385685 C 12.673027 14.385685 12.585832 14.404959 12.50673 14.443046 C 12.428605 14.480155 12.360799 14.532817 12.304159 14.601176 C 12.301107 14.604859 12.298352 14.608274 12.295374 14.612028 L 12.286589 14.415141 L 12.030273 14.415141 L 12.030273 16.000057 L 12.301575 16.000057 L 12.301575 14.86886 C 12.318753 14.834686 12.338655 14.802931 12.361519 14.773775 C 12.401559 14.72397 12.448943 14.685306 12.50363 14.656986 C 12.559294 14.628666 12.620732 14.614095 12.688114 14.614095 C 12.756475 14.614095 12.814357 14.625795 12.86123 14.649235 C 12.908106 14.671697 12.943787 14.708526 12.968201 14.759306 C 12.992614 14.80911 13.004374 14.875252 13.004374 14.95826 L 13.004374 16.000057 L 13.277226 16.000057 L 13.277226 14.961361 C 13.277226 14.856869 13.265526 14.768527 13.242086 14.696261 C 13.218646 14.62302 13.18417 14.56336 13.13925 14.51746 C 13.095304 14.47156 13.042069 14.438231 12.979569 14.417725 C 12.917069 14.396238 12.846855 14.385685 12.76873 14.385685 z M 16.001607 14.385685 C 15.912741 14.385685 15.82675 14.403812 15.743742 14.439945 C 15.660731 14.476079 15.586443 14.529314 15.521016 14.599626 C 15.455587 14.669938 15.404074 14.755928 15.365987 14.857491 C 15.3279 14.958077 15.308626 15.07275 15.308626 15.201656 L 15.308626 15.263151 C 15.308626 15.374479 15.326123 15.476876 15.360303 15.570626 C 15.394485 15.664376 15.443074 15.745662 15.506547 15.814022 C 15.571 15.88238 15.64764 15.935615 15.736507 15.973702 C 15.82635 16.010809 15.926395 16.029513 16.036747 16.029513 C 16.141239 16.029513 16.231877 16.014881 16.308049 15.985588 C 16.385198 15.956289 16.450135 15.917739 16.502869 15.870866 C 16.555603 15.823993 16.598913 15.774831 16.633093 15.723071 L 16.468762 15.592847 C 16.418958 15.658279 16.361019 15.710366 16.294613 15.749426 C 16.228207 15.788486 16.147437 15.808337 16.051733 15.808337 C 15.977514 15.808337 15.910856 15.793766 15.852262 15.765446 C 15.794643 15.737128 15.745481 15.698464 15.704468 15.648657 C 15.664428 15.598849 15.633454 15.540968 15.611967 15.475541 C 15.593335 15.415206 15.583181 15.351412 15.581478 15.283822 L 16.653764 15.283822 L 16.653764 15.161865 C 16.653764 15.050537 16.640917 14.94814 16.615523 14.85439 C 16.590131 14.759664 16.550951 14.677747 16.498218 14.608411 C 16.445484 14.538096 16.377621 14.483656 16.294613 14.444596 C 16.212581 14.405536 16.114889 14.385685 16.001607 14.385685 z M 17.615979 14.385685 C 17.530042 14.385685 17.455754 14.404389 17.393254 14.441496 C 17.331731 14.477625 17.280848 14.528508 17.240808 14.593941 C 17.240155 14.594993 17.239389 14.595985 17.238741 14.597042 L 17.233573 14.415141 L 16.970024 14.415141 L 16.970024 16.000057 L 17.240808 16.000057 L 17.240808 14.872994 C 17.259836 14.828689 17.284982 14.790322 17.315739 14.757756 C 17.34894 14.722602 17.389325 14.695123 17.437179 14.67559 C 17.485031 14.656057 17.540043 14.646651 17.602543 14.646651 C 17.62793 14.646651 17.650706 14.647302 17.670239 14.649235 C 17.690746 14.650235 17.711858 14.653153 17.734318 14.65802 L 17.735868 14.406356 C 17.726108 14.401502 17.708552 14.396853 17.683158 14.39292 C 17.657772 14.388053 17.635512 14.385685 17.615979 14.385685 z M 7.0967244 14.415141 L 7.6140055 15.197522 L 7.0807048 16.000057 L 7.395931 16.000057 L 7.7618001 15.405261 L 8.128186 16.000057 L 8.441862 16.000057 L 7.9070109 15.197522 L 8.4253255 14.415141 L 8.1075155 14.415141 L 7.7561157 14.992367 L 7.4088501 14.415141 L 7.0967244 14.415141 z M 6.2574992 14.608411 C 6.3502729 14.608411 6.4234134 14.63004 6.477124 14.673006 C 6.530835 14.715974 6.5700155 14.770414 6.5944295 14.83682 C 6.6198195 14.903226 6.6344478 14.971663 6.6383545 15.041976 L 6.6383545 15.062646 L 5.8451213 15.062646 C 5.8502431 15.021929 5.8579316 14.983896 5.8678589 14.948442 C 5.8883669 14.875198 5.9170492 14.813186 5.9541585 14.762406 C 5.9912677 14.711628 6.0357257 14.673595 6.0874837 14.648201 C 6.1392416 14.621835 6.1959759 14.608411 6.2574992 14.608411 z M 16.001607 14.608411 C 16.094379 14.608411 16.167519 14.63004 16.221232 14.673006 C 16.274943 14.715974 16.314124 14.770414 16.338538 14.83682 C 16.363904 14.903226 16.378529 14.971663 16.382463 15.041976 L 16.382463 15.062646 L 15.589229 15.062646 C 15.594351 15.021929 15.60204 14.983896 15.611967 14.948442 C 15.63248 14.875198 15.66116 14.813186 15.698267 14.762406 C 15.735373 14.711628 15.779832 14.673595 15.831592 14.648201 C 15.883346 14.621835 15.940081 14.608411 16.001607 14.608411 z M 9.3544678 14.614095 C 9.4286868 14.614095 9.4924767 14.629874 9.5461873 14.661121 C 9.5998979 14.691391 9.6437822 14.733498 9.6779622 14.787211 C 9.7131189 14.839946 9.7388756 14.901383 9.7554769 14.971696 C 9.7720782 15.041032 9.7802816 15.11532 9.7802816 15.194421 L 9.7802816 15.22491 C 9.7802816 15.304012 9.7720782 15.378874 9.7554769 15.449186 C 9.7388749 15.51852 9.7131182 15.579958 9.6779622 15.633671 C 9.6437823 15.687385 9.599898 15.730065 9.5461873 15.761312 C 9.4934529 15.791585 9.4302938 15.806787 9.3570516 15.806787 C 9.2681847 15.806787 9.1944705 15.78866 9.1358765 15.752527 C 9.0772825 15.715421 9.0304726 15.666889 8.9953166 15.607316 C 8.9918216 15.601297 8.9883219 15.595326 8.9849813 15.589229 L 8.9849813 14.832686 C 9.0030342 14.800652 9.0240872 14.771434 9.0480265 14.744836 C 9.0831828 14.704803 9.1258627 14.672675 9.1756673 14.649235 C 9.2264486 14.625795 9.2861084 14.614095 9.3544678 14.614095 z M 14.314372 14.614095 C 14.382729 14.614095 14.441815 14.625795 14.491622 14.649235 C 14.542403 14.672668 14.584566 14.704796 14.618746 14.744836 C 14.645026 14.774041 14.6678 14.806236 14.686442 14.841988 L 14.686442 15.567008 C 14.682177 15.57523 14.67753 15.583253 14.673006 15.591296 C 14.63785 15.653796 14.59104 15.704105 14.532446 15.742192 C 14.474829 15.780278 14.401114 15.799552 14.311271 15.799552 C 14.238028 15.799552 14.174869 15.784404 14.122135 15.755111 C 14.069401 15.724836 14.026091 15.683821 13.991911 15.631087 C 13.957731 15.578353 13.932546 15.516972 13.915946 15.447636 C 13.90032 15.3783 13.892175 15.304012 13.892175 15.22491 L 13.892175 15.194421 C 13.892175 15.11532 13.90032 15.041032 13.915946 14.971696 C 13.932546 14.901382 13.957731 14.839944 13.991911 14.787211 C 14.026091 14.7335 14.069402 14.691394 14.122135 14.661121 C 14.175846 14.629874 14.240153 14.614095 14.314372 14.614095 z M 11.108883 15.229561 L 11.333158 15.229561 L 11.333158 15.554089 C 11.323858 15.572567 11.312181 15.591534 11.298018 15.610417 C 11.260906 15.661194 11.210597 15.703931 11.147123 15.739091 C 11.083647 15.774244 11.010506 15.791801 10.927498 15.791801 C 10.861094 15.791801 10.804933 15.780101 10.759033 15.756661 C 10.71411 15.732241 10.680207 15.699489 10.657747 15.658476 C 10.635287 15.617462 10.624158 15.572373 10.624158 15.522567 C 10.624158 15.473739 10.63471 15.431059 10.656197 15.394926 C 10.677684 15.357813 10.709235 15.327355 10.750248 15.302942 C 10.791264 15.278529 10.842147 15.260402 10.902694 15.248682 C 10.963241 15.235988 11.031735 15.229561 11.108883 15.229561 z M 10.160103 59.874898 A 0.125 0.125 0 0 0 10.050549 59.937427 L 6.8125041 65.548971 A 0.125 0.125 0 0 0 6.8574626 65.720536 A 0.125 0.125 0 0 0 7.027478 65.674028 L 10.15907 60.250586 L 13.291178 65.674028 A 0.125 0.125 0 0 0 13.462744 65.720536 A 0.125 0.125 0 0 0 13.507703 65.548971 L 10.500134 60.339986 L 15.709119 63.347555 A 0.125 0.125 0 0 0 15.880684 63.302596 A 0.125 0.125 0 0 0 15.834176 63.13103 L 10.222632 59.892468 A 0.125 0.125 0 0 0 10.160103 59.874898 z M 15.455904 63.30518 C 15.368013 63.30518 15.290609 63.320982 15.223877 63.352722 C 15.16161 63.381578 15.108884 63.421598 15.065747 63.473128 L 15.059029 63.329468 L 14.844572 63.329468 L 14.844572 64.650317 L 15.071431 64.650317 L 15.071431 63.682418 C 15.079968 63.663386 15.089897 63.645662 15.100887 63.628674 C 15.127742 63.587168 15.163097 63.554606 15.207857 63.531006 C 15.252617 63.507406 15.308558 63.495349 15.375289 63.495349 C 15.432253 63.495349 15.481797 63.505271 15.524117 63.524805 C 15.566437 63.543518 15.598999 63.573732 15.621785 63.615238 C 15.645385 63.656742 15.657442 63.711947 15.657442 63.78112 L 15.657442 64.650317 L 15.883268 64.650317 L 15.883268 63.770785 L 15.883268 63.770268 C 15.886259 63.74368 15.891957 63.717841 15.900321 63.69327 C 15.914155 63.655024 15.934226 63.621284 15.960266 63.591984 C 15.986313 63.561871 16.018138 63.538274 16.056384 63.521187 C 16.094634 63.504101 16.138519 63.495866 16.188159 63.495866 C 16.245937 63.495866 16.295481 63.504101 16.336987 63.521187 C 16.379307 63.537461 16.411869 63.566497 16.434656 63.608004 C 16.458256 63.648694 16.470312 63.70603 16.470312 63.780086 L 16.470312 64.650317 L 16.697172 64.650317 L 16.697172 63.78267 C 16.697172 63.699661 16.687767 63.627916 16.668233 63.567696 C 16.6487 63.507473 16.619663 63.458148 16.581417 63.419902 C 16.543983 63.380842 16.497747 63.351805 16.442407 63.333085 C 16.387883 63.314365 16.325106 63.30518 16.254305 63.30518 C 16.170486 63.30518 16.096169 63.320762 16.031063 63.351689 C 15.965959 63.381796 15.910975 63.422592 15.866215 63.474679 C 15.854928 63.488056 15.844121 63.502193 15.834176 63.516536 C 15.815057 63.47631 15.791167 63.441909 15.762345 63.4137 C 15.7241 63.37626 15.67904 63.349138 15.626953 63.332052 C 15.574868 63.314145 15.517751 63.30518 15.455904 63.30518 z M 17.552934 63.30518 C 17.473183 63.30518 17.400999 63.3165 17.335893 63.339286 C 17.271603 63.36126 17.216398 63.391473 17.170011 63.42972 C 17.124437 63.467155 17.089005 63.508907 17.064591 63.555294 C 17.040178 63.601681 17.027901 63.648654 17.027901 63.695854 L 17.254244 63.695854 C 17.254244 63.659234 17.265784 63.624758 17.289384 63.593018 C 17.313795 63.561284 17.347316 63.53607 17.389636 63.516536 C 17.432768 63.497003 17.482531 63.487081 17.539498 63.487081 C 17.60053 63.487081 17.651987 63.497444 17.693494 63.518604 C 17.734994 63.539764 17.765648 63.569977 17.785994 63.609037 C 17.807154 63.647283 17.818034 63.692343 17.818034 63.74443 L 17.818034 63.849849 L 17.594275 63.849849 C 17.503943 63.849849 17.422571 63.859035 17.349329 63.877755 C 17.27609 63.896475 17.213313 63.924334 17.161226 63.960954 C 17.10914 63.996759 17.069004 64.041819 17.041337 64.096346 C 17.01367 64.150057 16.999996 64.212097 16.999996 64.282898 C 16.999996 64.356141 17.018153 64.422446 17.054773 64.481852 C 17.092208 64.540446 17.144621 64.587419 17.211353 64.622412 C 17.278898 64.657405 17.357479 64.674605 17.446997 64.674605 C 17.518611 64.674605 17.582783 64.662845 17.63975 64.638432 C 17.697527 64.613205 17.747072 64.581814 17.788578 64.544381 C 17.800762 64.53337 17.812435 64.522072 17.823201 64.510791 C 17.824512 64.522496 17.826037 64.53424 17.827852 64.546448 C 17.834366 64.589581 17.843331 64.624277 17.854724 64.650317 L 18.090369 64.650317 L 18.090369 64.63068 C 18.074909 64.594871 18.062852 64.552163 18.054712 64.502523 C 18.047385 64.452882 18.04386 64.406426 18.04386 64.36248 L 18.04386 63.747013 C 18.04386 63.648545 18.022618 63.566657 17.980298 63.50155 C 17.938794 63.435634 17.881238 63.386826 17.807182 63.354272 C 17.73394 63.321719 17.648962 63.30518 17.552934 63.30518 z M 18.29139 63.329468 L 18.722371 63.981624 L 18.277954 64.650317 L 18.54047 64.650317 L 18.845878 64.15474 L 19.150769 64.650317 L 19.412252 64.650317 L 18.966801 63.981624 L 19.398816 63.329468 L 19.133716 63.329468 L 18.84071 63.810575 L 18.551839 63.329468 L 18.29139 63.329468 z M 17.630965 64.008496 L 17.818034 64.008496 L 17.818034 64.278764 C 17.81028 64.294172 17.800388 64.310043 17.788578 64.325789 C 17.757657 64.368111 17.715905 64.403983 17.663005 64.433276 C 17.610107 64.462576 17.548727 64.477201 17.479553 64.477201 C 17.424213 64.477201 17.377757 64.467279 17.33951 64.447746 C 17.302077 64.427399 17.273998 64.400277 17.255278 64.366097 C 17.236558 64.33192 17.226855 64.293916 17.226855 64.252409 C 17.226855 64.211722 17.235821 64.176586 17.253727 64.146472 C 17.271634 64.115546 17.298095 64.089821 17.332275 64.069474 C 17.366457 64.049128 17.408429 64.033766 17.458883 64.023999 C 17.509336 64.013419 17.566672 64.008496 17.630965 64.008496 z M 6.168099 65.769629 C 6.0826498 65.769629 6.005245 65.782346 5.9360718 65.808386 C 5.8677123 65.83443 5.8091999 65.877874 5.7603719 65.938094 C 5.7115436 65.997501 5.6735391 66.076302 5.6466838 66.174772 C 5.6206418 66.273242 5.6079264 66.395487 5.6079264 66.541158 L 5.6079264 66.811943 C 5.6079264 66.928317 5.6161579 67.030274 5.6332479 67.11735 C 5.6503379 67.204429 5.6756267 67.278526 5.7081787 67.339559 C 5.740731 67.400596 5.7793948 67.45014 5.8249674 67.488387 C 5.8713541 67.525827 5.923767 67.552949 5.981547 67.570036 C 6.039327 67.587122 6.1023234 67.595874 6.1706828 67.595874 C 6.2569458 67.595874 6.3343506 67.58242 6.40271 67.555566 C 6.4718833 67.527896 6.5306154 67.483275 6.5794434 67.422241 C 6.6282712 67.361206 6.666056 67.28101 6.692098 67.180912 C 6.71814 67.080815 6.7308553 66.957613 6.7308553 66.811943 L 6.7308553 66.541158 C 6.7308552 66.424784 6.7226239 66.323563 6.7055339 66.237301 C 6.6884439 66.151037 6.663155 66.078116 6.630603 66.018709 C 6.5988645 65.958487 6.5604205 65.910339 6.5148478 65.874532 C 6.4692752 65.837905 6.417379 65.811224 6.358785 65.79495 C 6.3010051 65.777864 6.2372722 65.769629 6.168099 65.769629 z M 14.07666 65.772213 L 14.07666 66.049198 L 13.913363 65.955147 L 13.839982 66.082271 L 14.07666 66.217664 L 14.07666 66.556661 L 13.783655 66.387162 L 13.783655 66.113794 L 13.63741 66.113794 L 13.63741 66.30293 L 13.398149 66.16392 L 13.324768 66.290527 L 13.56403 66.430054 L 13.400732 66.524105 L 13.473596 66.650712 L 13.710791 66.514286 L 14.00328 66.682751 L 13.710791 66.85225 L 13.473596 66.715824 L 13.400732 66.842432 L 13.56403 66.936483 L 13.324768 67.075492 L 13.398149 67.202616 L 13.63741 67.063607 L 13.63741 67.252743 L 13.783655 67.252743 L 13.783655 66.979374 L 14.07666 66.809359 L 14.07666 67.148873 L 13.839982 67.284265 L 13.913363 67.411389 L 14.07666 67.317338 L 14.07666 67.594324 L 14.223421 67.594324 L 14.223421 67.317338 L 14.386719 67.411389 L 14.460099 67.284265 L 14.223421 67.148873 L 14.223421 66.809359 L 14.516427 66.979374 L 14.516427 67.252743 L 14.662671 67.252743 L 14.662671 67.063607 L 14.901933 67.202616 L 14.975313 67.075492 L 14.736051 66.936483 L 14.899349 66.842432 L 14.826485 66.715824 L 14.58929 66.85225 L 14.296285 66.682751 L 14.58929 66.514286 L 14.826485 66.650712 L 14.899349 66.524105 L 14.736051 66.430054 L 14.975313 66.290527 L 14.901933 66.16392 L 14.662671 66.30293 L 14.662671 66.113794 L 14.516427 66.113794 L 14.516427 66.387162 L 14.223421 66.555627 L 14.223421 66.217664 L 14.460099 66.082271 L 14.386719 65.955147 L 14.223421 66.049198 L 14.223421 65.772213 L 14.07666 65.772213 z M 6.168099 65.953597 C 6.2120444 65.953597 6.2514447 65.960214 6.286438 65.973234 C 6.3222453 65.985441 6.3536338 66.005292 6.3804891 66.032145 C 6.4081584 66.058999 6.4307987 66.093915 6.448702 66.137048 C 6.4666053 66.180182 6.4800576 66.232078 6.4890096 66.293111 C 6.4987749 66.353332 6.5039958 66.423165 6.5039958 66.502917 L 6.5039958 66.848633 C 6.5039958 66.947917 6.4971599 67.033333 6.4833252 67.104948 C 6.4694905 67.175748 6.4482465 67.234041 6.4197632 67.279614 C 6.392094 67.324374 6.3573976 67.357156 6.3158936 67.378316 C 6.2743898 67.399476 6.2260214 67.410356 6.1706828 67.410356 C 6.1275513 67.410356 6.0881511 67.403739 6.0523437 67.390719 C 6.0173504 67.376879 5.9861815 67.355637 5.9593262 67.327157 C 5.9324708 67.298675 5.9098306 67.262583 5.8911133 67.218636 C 5.8723953 67.173875 5.8579872 67.121023 5.8482218 67.059989 C 5.8392698 66.998954 5.834786 66.928385 5.834786 66.848633 L 5.834786 66.502917 C 5.834786 66.40282 5.8423582 66.31814 5.8570068 66.248153 C 5.8716555 66.178168 5.8928995 66.121271 5.9205688 66.078137 C 5.9490518 66.035011 5.983968 66.004136 6.025472 65.984603 C 6.0669761 65.964256 6.1143883 65.953597 6.168099 65.953597 z M 7.8449992 68.542586 L 7.8449992 69.367342 C 7.7954725 69.308079 7.7358128 69.262559 7.6661987 69.230916 C 7.5919799 69.195763 7.5048421 69.178206 7.4052327 69.178206 C 7.3105061 69.178206 7.2245158 69.197541 7.1473674 69.236601 C 7.0711954 69.274687 7.0056274 69.329642 6.9499634 69.400932 C 6.8952758 69.47222 6.8525959 69.557637 6.8223226 69.657247 C 6.7930259 69.75588 6.7783976 69.865849 6.7783976 69.986943 L 6.7783976 70.017432 C 6.7783976 70.132666 6.7930257 70.23971 6.8223226 70.338342 C 6.852596 70.435998 6.8952758 70.520841 6.9499634 70.593107 C 7.0056274 70.665372 7.0711957 70.721533 7.1473674 70.761572 C 7.2245158 70.801612 7.3098755 70.822034 7.4026489 70.822034 C 7.5032349 70.822034 7.5910034 70.804537 7.6661987 70.770357 C 7.7407541 70.735497 7.8038191 70.686144 7.8553345 70.621529 L 7.8682536 70.792578 L 8.117334 70.792578 L 8.117334 68.542586 L 7.8449992 68.542586 z M 10.150285 68.542586 L 10.150285 70.792578 L 10.423136 70.792578 L 10.423136 68.542586 L 10.150285 68.542586 z M 9.1601644 69.178206 C 9.0712972 69.178206 8.9853068 69.196333 8.902299 69.232467 C 8.8192915 69.268599 8.7450036 69.321834 8.6795736 69.392147 C 8.614144 69.462459 8.5626303 69.54845 8.5245443 69.650012 C 8.4864583 69.750598 8.4671834 69.865271 8.4671834 69.994177 L 8.4671834 70.055672 C 8.4671834 70.167 8.4846802 70.269397 8.5188599 70.363147 C 8.5530396 70.456897 8.6016276 70.538184 8.6651042 70.606543 C 8.7295573 70.674902 8.8061971 70.728133 8.8950643 70.766223 C 8.984908 70.80333 9.0849528 70.822034 9.1953044 70.822034 L 9.1953044 70.821517 C 9.2997966 70.821517 9.3904338 70.806885 9.4666056 70.777592 C 9.5437538 70.748293 9.6086911 70.71026 9.6614258 70.663387 C 9.7141598 70.616514 9.7574704 70.567352 9.7916504 70.515592 L 9.6273193 70.385368 C 9.5775144 70.4508 9.5195758 70.502887 9.4531698 70.541947 C 9.3867636 70.581007 9.3059937 70.600342 9.2102905 70.600342 C 9.136072 70.600342 9.0694135 70.586287 9.0108195 70.557967 C 8.953202 70.529649 8.9040402 70.490468 8.8630249 70.440662 C 8.8229862 70.39086 8.7920088 70.333496 8.7705241 70.268062 C 8.7518908 70.207727 8.7417383 70.143934 8.740035 70.076343 L 9.812321 70.076343 L 9.812321 69.954386 C 9.812321 69.843058 9.7994711 69.740662 9.7740804 69.646912 C 9.7486901 69.552185 9.7095096 69.470268 9.6567749 69.400932 C 9.6040406 69.330616 9.5361776 69.275661 9.4531698 69.236601 C 9.3711386 69.197541 9.2734457 69.178206 9.1601644 69.178206 z M 11.474752 69.178206 C 11.379048 69.178206 11.29191 69.191684 11.213786 69.219031 C 11.13664 69.245397 11.070498 69.281651 11.014832 69.327551 C 10.960148 69.372471 10.918041 69.42278 10.888741 69.478446 C 10.859441 69.534111 10.844816 69.590272 10.844816 69.646912 L 11.115601 69.646912 C 11.115601 69.602967 11.130172 69.562008 11.158492 69.523922 C 11.18779 69.485835 11.227601 69.454861 11.278381 69.431421 C 11.330139 69.407981 11.390373 69.396281 11.458732 69.396281 C 11.531972 69.396281 11.59341 69.409128 11.643217 69.434521 C 11.693022 69.459914 11.729908 69.496169 11.754321 69.543042 C 11.779715 69.58894 11.792562 69.643323 11.792562 69.705823 L 11.792562 69.831396 L 11.524361 69.831396 C 11.415962 69.831396 11.317696 69.842526 11.229806 69.864986 C 11.141915 69.887446 11.066996 69.920775 11.004496 69.964722 C 10.941994 70.007693 10.894036 70.062076 10.860836 70.127502 C 10.827636 70.191956 10.811226 70.266817 10.811226 70.351778 C 10.811226 70.439669 10.832909 70.519234 10.876855 70.590523 C 10.921777 70.660835 10.984363 70.716995 11.064441 70.758988 C 11.145496 70.800982 11.239689 70.822034 11.347111 70.822034 C 11.433048 70.822034 11.510262 70.806885 11.578621 70.777592 C 11.647955 70.747317 11.707615 70.709857 11.757422 70.664937 C 11.772038 70.651727 11.785846 70.63868 11.798763 70.625146 C 11.80033 70.639191 11.802277 70.653391 11.804447 70.668038 C 11.812261 70.719799 11.822813 70.761331 11.836487 70.792578 L 12.119157 70.792578 L 12.119157 70.768807 C 12.100604 70.725841 12.086549 70.674901 12.076782 70.615328 C 12.067996 70.555757 12.063346 70.499596 12.063346 70.446863 L 12.063346 69.708407 C 12.063346 69.590243 12.038162 69.491976 11.987382 69.413851 C 11.937577 69.334747 11.868509 69.275661 11.779643 69.236601 C 11.691752 69.197541 11.589986 69.178206 11.474752 69.178206 z M 12.293306 69.207662 L 12.859163 70.775008 L 12.800252 70.935722 C 12.778766 71.001155 12.753011 71.052611 12.722738 71.089718 C 12.693439 71.127804 12.657184 71.154706 12.614217 71.170333 C 12.571251 71.186933 12.519164 71.195138 12.457638 71.195138 C 12.450804 71.195138 12.438527 71.194487 12.420947 71.192554 C 12.404347 71.19162 12.39207 71.190453 12.384257 71.189453 L 12.385807 71.409078 C 12.399481 71.412978 12.422887 71.418197 12.456087 71.424064 C 12.489287 71.429931 12.516766 71.432849 12.538253 71.432849 C 12.610516 71.432849 12.672528 71.419425 12.724288 71.393058 C 12.777025 71.367665 12.822057 71.334336 12.859163 71.293323 C 12.89627 71.252309 12.926157 71.208998 12.949597 71.163098 C 12.974011 71.118173 12.993862 71.076068 13.008508 71.037008 L 13.644128 69.207662 L 13.354224 69.207662 L 12.986287 70.393119 L 12.589412 69.207662 L 12.293306 69.207662 z M 9.1601644 69.400932 C 9.2529381 69.400932 9.3260786 69.422561 9.3797892 69.465527 C 9.4335002 69.508496 9.4726807 69.562935 9.4970947 69.629342 C 9.5224847 69.695748 9.537113 69.764184 9.5410197 69.834497 L 9.5410197 69.855168 L 8.7477865 69.855168 C 8.7529083 69.81445 8.7605967 69.776417 8.7705241 69.740963 C 8.7910321 69.667719 8.8197144 69.605708 8.8568237 69.554928 C 8.8939329 69.50415 8.9383909 69.465599 8.9901489 69.440206 C 9.0419069 69.413839 9.0986411 69.400932 9.1601644 69.400932 z M 7.4729289 69.406616 C 7.5412883 69.406616 7.6003744 69.418316 7.650179 69.441756 C 7.7009606 69.46519 7.7431237 69.497318 7.7773031 69.537358 C 7.8035846 69.566561 7.826358 69.598759 7.8449992 69.634509 L 7.8449992 70.35953 C 7.8407339 70.36775 7.8360874 70.375775 7.8315633 70.383818 C 7.7964073 70.446317 7.7495974 70.496626 7.6910034 70.534713 C 7.6333862 70.572799 7.559672 70.591557 7.4698283 70.591557 C 7.3965858 70.591557 7.3334265 70.576925 7.2806925 70.547632 C 7.2279585 70.517357 7.1846479 70.475825 7.1504679 70.423092 C 7.1162879 70.370357 7.0911049 70.309493 7.0745036 70.240157 C 7.0588789 70.170821 7.0507324 70.096533 7.0507324 70.017432 L 7.0507324 69.986943 C 7.0507324 69.907841 7.0588789 69.833553 7.0745036 69.764217 C 7.0911049 69.693904 7.1162879 69.632466 7.1504679 69.579732 C 7.1846473 69.526021 7.2279579 69.483915 7.2806925 69.453642 C 7.3344035 69.422395 7.3987101 69.406616 7.4729289 69.406616 z M 11.568286 70.022083 L 11.792562 70.022083 L 11.792562 70.346611 C 11.783261 70.365089 11.771585 70.384055 11.757422 70.402938 C 11.720309 70.453722 11.67 70.496459 11.606527 70.531612 C 11.54305 70.566765 11.46991 70.584322 11.386902 70.584322 C 11.320497 70.584322 11.264337 70.572622 11.218437 70.549182 C 11.173514 70.524769 11.139611 70.49201 11.117151 70.450997 C 11.094691 70.409983 11.083561 70.364895 11.083561 70.315088 C 11.083561 70.266261 11.094114 70.22358 11.115601 70.187447 C 11.137087 70.150334 11.168638 70.119876 11.209652 70.095463 C 11.250668 70.07105 11.301551 70.052923 11.362097 70.041203 C 11.422644 70.028509 11.491137 70.022083 11.568286 70.022083 z M 10.007141 71.588912 A 0.0625 0.0625 0 0 0 9.9492635 71.627153 L 9.9337606 71.662292 L 9.9084391 71.715002 A 0.0625 0.0625 0 0 0 9.9373779 71.798718 A 0.0625 0.0625 0 0 0 10.021611 71.769263 L 10.048999 71.712935 L 10.064502 71.675728 A 0.0625 0.0625 0 0 0 10.031429 71.593563 A 0.0625 0.0625 0 0 0 10.007141 71.588912 z M 9.5999308 72.276725 A 0.0625 0.0625 0 0 0 9.5508382 72.302563 L 9.4924438 72.382662 A 0.0625 0.0625 0 0 0 9.5058797 72.470512 A 0.0625 0.0625 0 0 0 9.5937297 72.457076 L 9.652124 72.376978 A 0.0625 0.0625 0 0 0 9.6386882 72.289128 A 0.0625 0.0625 0 0 0 9.5999308 72.276725 z M 9.0955688 72.89891 A 0.0625 0.0625 0 0 0 9.0526774 72.920097 L 8.9865316 72.993994 A 0.0625 0.0625 0 0 0 8.9901489 73.081844 A 0.0625 0.0625 0 0 0 9.0779989 73.078227 L 9.1446615 73.001746 A 0.0625 0.0625 0 0 0 9.1405273 72.913896 A 0.0625 0.0625 0 0 0 9.0955688 72.89891 z M 8.5524495 73.483887 A 0.0625 0.0625 0 0 0 8.5080078 73.504041 L 8.4392782 73.57432 A 0.0625 0.0625 0 0 0 8.4392782 73.66217 A 0.0625 0.0625 0 0 0 8.5271281 73.66217 L 8.597408 73.59189 L 8.597408 73.589823 A 0.0625 0.0625 0 0 0 8.597408 73.501973 A 0.0625 0.0625 0 0 0 8.5524495 73.483887 z M 7.9876261 74.049227 A 0.0625 0.0625 0 0 0 7.9431844 74.06628 L 7.8708374 74.13656 A 0.0625 0.0625 0 0 0 7.8708374 74.22441 A 0.0625 0.0625 0 0 0 7.9592041 74.226477 L 8.0310343 74.156197 A 0.0625 0.0625 0 0 0 8.0310343 74.068347 A 0.0625 0.0625 0 0 0 7.9876261 74.049227 z M 7.415568 74.607849 A 0.0625 0.0625 0 0 0 7.3711263 74.624902 L 7.2987793 74.695182 A 0.0625 0.0625 0 0 0 7.2987793 74.783032 A 0.0625 0.0625 0 0 0 7.3866292 74.785099 L 7.4589762 74.714819 A 0.0625 0.0625 0 0 0 7.4589762 74.626969 A 0.0625 0.0625 0 0 0 7.415568 74.607849 z M 6.8445435 75.170605 A 0.0625 0.0625 0 0 0 6.8006185 75.189726 L 6.7303385 75.260006 A 0.0625 0.0625 0 0 0 6.7303385 75.347856 A 0.0625 0.0625 0 0 0 6.8202555 75.347856 L 6.8905355 75.277576 A 0.0625 0.0625 0 0 0 6.8884684 75.187659 A 0.0625 0.0625 0 0 0 6.8445435 75.170605 z M 6.2890218 75.747314 A 0.0625 0.0625 0 0 0 6.2461304 75.767468 L 6.2130575 75.804675 L 6.1779175 75.843949 A 0.0625 0.0625 0 0 0 6.1836019 75.931799 A 0.0625 0.0625 0 0 0 6.2714518 75.925598 L 6.3045247 75.888391 L 6.3381144 75.853251 A 0.0625 0.0625 0 0 0 6.3339803 75.763851 A 0.0625 0.0625 0 0 0 6.2890218 75.747314 z M 5.7743245 76.356063 A 0.0625 0.0625 0 0 0 5.7247152 76.380868 L 5.6642537 76.460966 A 0.0625 0.0625 0 0 0 5.6756226 76.548816 A 0.0625 0.0625 0 0 0 5.7634725 76.53693 L 5.8244507 76.456832 A 0.0625 0.0625 0 0 0 5.8125651 76.368982 A 0.0625 0.0625 0 0 0 5.7743245 76.356063 z M 5.3299072 77.022689 A 0.0625 0.0625 0 0 0 5.2771973 77.056795 L 5.2420573 77.120874 L 5.2306885 77.146712 A 0.0625 0.0625 0 0 0 5.2596273 77.230428 A 0.0625 0.0625 0 0 0 5.3438599 77.200972 L 5.3536784 77.177718 L 5.3867513 77.11519 A 0.0625 0.0625 0 0 0 5.3614299 77.029407 A 0.0625 0.0625 0 0 0 5.3299072 77.022689 z M 5.0834106 77.776648 A 0.0625 0.0625 0 0 0 5.0213989 77.834009 L 5.0213989 77.839693 L 5.0177816 77.937362 A 0.0625 0.0625 0 0 0 5.078243 78.001957 A 0.0625 0.0625 0 0 0 5.1423218 77.943563 L 5.1464559 77.849512 L 5.1464559 77.847445 A 0.0625 0.0625 0 0 0 5.0916789 77.777165 A 0.0625 0.0625 0 0 0 5.0834106 77.776648 z M 13.488066 85.042354 L 13.488066 87.292346 L 13.7604 87.292346 L 13.7604 85.042354 L 13.488066 85.042354 z M 17.476969 85.042354 L 17.476969 87.292346 L 17.749304 87.292346 L 17.749304 86.734241 L 17.919836 86.557507 L 18.47019 87.292346 L 18.789551 87.292346 L 18.100187 86.368372 L 18.717721 85.70743 L 18.386475 85.70743 L 17.894515 86.228845 L 17.749304 86.402478 L 17.749304 85.042354 L 17.476969 85.042354 z M 12.529985 85.677974 C 12.410844 85.677974 12.306726 85.699026 12.217859 85.74102 C 12.129968 85.783012 12.056827 85.840894 11.998234 85.914136 C 11.940619 85.987378 11.897309 86.071648 11.868009 86.16735 C 11.839689 86.262077 11.825635 86.362695 11.825635 86.469141 L 11.825635 86.530636 C 11.825635 86.637081 11.839689 86.738274 11.868009 86.833976 C 11.897304 86.928703 11.940614 87.012915 11.998234 87.086157 C 12.056827 87.159399 12.129968 87.216763 12.217859 87.258757 C 12.306726 87.30075 12.410844 87.321802 12.529985 87.321802 C 12.642289 87.321802 12.74526 87.297248 12.83901 87.248421 C 12.932757 87.198617 13.008766 87.133679 13.066386 87.053601 C 13.124993 86.972546 13.156604 86.885352 13.161471 86.791602 L 12.903605 86.791602 C 12.898725 86.851174 12.87882 86.904408 12.84366 86.951282 C 12.808504 86.99718 12.763472 87.033436 12.708785 87.059802 C 12.654098 87.086169 12.594438 87.099076 12.529985 87.099076 C 12.445999 87.099076 12.375785 87.083244 12.319145 87.051017 C 12.263478 87.017813 12.219019 86.973412 12.185819 86.918726 C 12.153593 86.864038 12.130763 86.803174 12.11709 86.735791 C 12.103417 86.668408 12.096419 86.599972 12.096419 86.530636 L 12.096419 86.469141 C 12.096419 86.399805 12.103417 86.331942 12.11709 86.265535 C 12.131737 86.198152 12.155143 86.137288 12.18737 86.082601 C 12.22057 86.026937 12.265028 85.983053 12.320695 85.950826 C 12.377336 85.917626 12.446977 85.9007 12.529985 85.9007 C 12.602248 85.9007 12.665407 85.917049 12.71912 85.949276 C 12.773811 85.980526 12.816548 86.022633 12.847795 86.075366 C 12.880035 86.128104 12.898738 86.18719 12.903605 86.252616 L 13.161471 86.252616 C 13.156591 86.143242 13.127334 86.045548 13.073621 85.959611 C 13.020886 85.872699 12.947803 85.804262 12.855029 85.754456 C 12.762256 85.703676 12.654008 85.677974 12.529985 85.677974 z M 14.843022 85.677974 C 14.73267 85.677974 14.633199 85.698973 14.544332 85.739986 C 14.455465 85.780025 14.379456 85.836243 14.316956 85.909485 C 14.254453 85.98175 14.207012 86.067167 14.173812 86.1658 C 14.140612 86.263456 14.123686 86.369869 14.123686 86.484127 L 14.123686 86.517716 C 14.123686 86.631974 14.140612 86.737871 14.173812 86.835527 C 14.207015 86.933183 14.254456 87.0186 14.316956 87.091842 C 14.380432 87.16411 14.457015 87.220844 14.545882 87.261857 C 14.634749 87.301897 14.734794 87.321802 14.846122 87.321802 C 14.95745 87.321802 15.056921 87.301897 15.144812 87.261857 C 15.233679 87.220841 15.309172 87.164107 15.371672 87.091842 C 15.435151 87.0186 15.483682 86.933183 15.516882 86.835527 C 15.550089 86.737871 15.566492 86.631974 15.566492 86.517716 L 15.566492 86.484127 C 15.566492 86.369869 15.550089 86.263456 15.516882 86.1658 C 15.483676 86.067167 15.435145 85.98175 15.371672 85.909485 C 15.309172 85.836244 15.233106 85.780026 15.143262 85.739986 C 15.054394 85.698973 14.95435 85.677974 14.843022 85.677974 z M 16.540592 85.677974 C 16.421452 85.677974 16.317851 85.699026 16.228984 85.74102 C 16.141093 85.783012 16.067435 85.840894 16.008842 85.914136 C 15.951228 85.987378 15.907917 86.071648 15.878617 86.16735 C 15.850297 86.262077 15.836243 86.362695 15.836243 86.469141 L 15.836243 86.530636 C 15.836243 86.637081 15.850297 86.738274 15.878617 86.833976 C 15.907911 86.928703 15.951222 87.012915 16.008842 87.086157 C 16.067435 87.159399 16.141093 87.216763 16.228984 87.258757 C 16.317851 87.30075 16.421452 87.321802 16.540592 87.321802 C 16.652897 87.321802 16.755868 87.297248 16.849618 87.248421 C 16.943365 87.198617 17.019374 87.133679 17.076994 87.053601 C 17.135607 86.972546 17.167212 86.885352 17.172078 86.791602 L 16.914213 86.791602 C 16.909326 86.851174 16.889422 86.904408 16.854268 86.951282 C 16.819111 86.99718 16.77408 87.033436 16.719393 87.059802 C 16.664706 87.086169 16.605046 87.099076 16.540592 87.099076 C 16.456608 87.099076 16.386393 87.083244 16.329753 87.051017 C 16.274085 87.017813 16.229627 86.973412 16.196427 86.918726 C 16.164201 86.864038 16.141371 86.803174 16.127698 86.735791 C 16.114024 86.668408 16.107027 86.599972 16.107027 86.530636 L 16.107027 86.469141 C 16.107027 86.399805 16.114024 86.331942 16.127698 86.265535 C 16.142344 86.198152 16.165751 86.137288 16.197978 86.082601 C 16.231178 86.026937 16.275636 85.983053 16.331303 85.950826 C 16.387944 85.917626 16.457584 85.9007 16.540592 85.9007 C 16.612856 85.9007 16.676015 85.917049 16.729728 85.949276 C 16.784419 85.980526 16.827156 86.022633 16.858403 86.075366 C 16.890643 86.128104 16.909346 86.18719 16.914213 86.252616 L 17.172078 86.252616 C 17.167198 86.143242 17.137942 86.045548 17.084229 85.959611 C 17.031494 85.872699 16.958927 85.804262 16.866154 85.754456 C 16.773381 85.703676 16.664616 85.677974 16.540592 85.677974 z M 14.843022 85.9007 C 14.918214 85.9007 14.983725 85.916479 15.039392 85.947725 C 15.096035 85.978976 15.142845 86.02223 15.179952 86.076917 C 15.218039 86.130628 15.246148 86.19264 15.264701 86.262952 C 15.284235 86.332288 15.294157 86.406001 15.294157 86.484127 L 15.294157 86.517716 C 15.294157 86.596818 15.284235 86.671163 15.264701 86.741475 C 15.246141 86.810809 15.218609 86.872764 15.181502 86.926477 C 15.144392 86.980191 15.097582 87.022354 15.040942 87.053601 C 14.985278 87.083874 14.920341 87.099076 14.846122 87.099076 C 14.770926 87.099076 14.704841 87.083874 14.648201 87.053601 C 14.591561 87.022354 14.544178 86.98019 14.506091 86.926477 C 14.468978 86.872766 14.440929 86.810811 14.422375 86.741475 C 14.403822 86.671163 14.394987 86.596818 14.394987 86.517716 L 14.394987 86.484127 C 14.394987 86.406001 14.403822 86.332288 14.422375 86.262952 C 14.440935 86.192642 14.468985 86.13063 14.506091 86.076917 C 14.544175 86.022226 14.590985 85.978972 14.646651 85.947725 C 14.703292 85.916479 14.768803 85.9007 14.843022 85.9007 z M 11.550716 96.011711 C 11.443294 96.011711 11.350822 96.032192 11.272697 96.073206 C 11.194573 96.113245 11.13434 96.172905 11.092346 96.252006 C 11.051333 96.330131 11.030851 96.426103 11.030851 96.540361 L 11.030851 96.707275 L 10.780221 96.707275 L 10.780221 96.915531 L 11.030851 96.915531 L 11.030851 98.292708 L 11.302153 98.292708 L 11.302153 96.915531 L 11.639083 96.915531 L 11.639083 96.707275 L 11.302153 96.707275 L 11.302153 96.540361 C 11.302153 96.475909 11.312705 96.422043 11.334192 96.378097 C 11.355679 96.33415 11.386713 96.300821 11.427726 96.278361 C 11.469716 96.254921 11.519451 96.243221 11.577071 96.243221 C 11.602458 96.243221 11.628159 96.244388 11.653552 96.246322 C 11.679919 96.248288 11.703326 96.251273 11.723832 96.25614 L 11.738302 96.034965 C 11.708028 96.027178 11.676994 96.021328 11.644767 96.017395 C 11.613514 96.013462 11.581963 96.011711 11.550716 96.011711 z M 12.594063 96.011711 C 12.486641 96.011711 12.393652 96.032192 12.315527 96.073206 C 12.237403 96.113245 12.17717 96.172905 12.135177 96.252006 C 12.094163 96.330131 12.073682 96.426103 12.073682 96.540361 L 12.073682 96.707275 L 11.823568 96.707275 L 11.823568 96.915531 L 12.073682 96.915531 L 12.073682 98.292708 L 12.344983 98.292708 L 12.344983 96.915531 L 12.681913 96.915531 L 12.681913 96.707275 L 12.344983 96.707275 L 12.344983 96.540361 C 12.344983 96.475909 12.355536 96.422043 12.377022 96.378097 C 12.398509 96.33415 12.43006 96.300821 12.471073 96.278361 C 12.513063 96.254921 12.562798 96.243221 12.620418 96.243221 C 12.645805 96.243221 12.670989 96.244388 12.696383 96.246322 C 12.722749 96.248288 12.746156 96.251273 12.766663 96.25614 L 12.781649 96.034965 C 12.751375 96.027178 12.719824 96.021328 12.687598 96.017395 C 12.656344 96.013462 12.62531 96.011711 12.594063 96.011711 z M 7.5576782 96.042716 L 7.5576782 98.292708 L 7.8067586 98.292708 L 7.8207113 98.109257 C 7.8233548 98.112744 7.8262802 98.11618 7.8289795 98.119592 C 7.8807373 98.185018 7.9439534 98.235327 8.0191488 98.270487 C 8.0953206 98.304667 8.1836629 98.321647 8.2842489 98.321647 C 8.3828817 98.321647 8.4705933 98.301742 8.5467651 98.261702 C 8.6229367 98.221663 8.6873003 98.165503 8.740035 98.093237 C 8.7927691 98.020971 8.8325803 97.936128 8.8599243 97.838472 C 8.8872683 97.73984 8.9012655 97.632797 8.9012655 97.517562 L 8.9012655 97.487073 C 8.9012655 97.365979 8.8872683 97.25601 8.8599243 97.157377 C 8.8325808 97.057767 8.7927697 96.972351 8.740035 96.901062 C 8.6882772 96.829773 8.6239135 96.774818 8.5467651 96.736731 C 8.4696167 96.697671 8.3812744 96.678337 8.281665 96.678337 C 8.1820557 96.678337 8.0943441 96.695893 8.0191488 96.731047 C 7.9446617 96.764904 7.8815023 96.814394 7.830013 96.879875 L 7.830013 96.042716 L 7.5576782 96.042716 z M 13.570748 96.678337 C 13.481881 96.678337 13.396407 96.696464 13.313399 96.732597 C 13.230389 96.76873 13.1561 96.821964 13.090674 96.892277 C 13.025244 96.96259 12.973214 97.04858 12.935128 97.150142 C 12.897041 97.250728 12.878284 97.365401 12.878284 97.494307 L 12.878284 97.555802 C 12.878284 97.66713 12.895263 97.769527 12.929443 97.863277 C 12.963626 97.957027 13.012214 98.038314 13.075688 98.106673 C 13.140141 98.175032 13.21678 98.228267 13.305648 98.266353 C 13.395492 98.30346 13.495537 98.321647 13.605888 98.321647 C 13.71038 98.321647 13.801017 98.307016 13.877189 98.277722 C 13.954338 98.248424 14.019276 98.210391 14.072009 98.163517 C 14.124743 98.116645 14.168054 98.067483 14.202234 98.015723 L 14.03842 97.885498 C 13.988615 97.95093 13.93016 98.003018 13.863753 98.042078 C 13.797347 98.081138 13.716577 98.100472 13.620874 98.100472 C 13.546655 98.100472 13.479996 98.086417 13.421403 98.058097 C 13.363783 98.029779 13.314622 97.990598 13.273608 97.940792 C 13.233568 97.89099 13.202594 97.833626 13.181108 97.768193 C 13.162476 97.707857 13.152322 97.643547 13.150618 97.575956 L 14.222904 97.575956 L 14.222904 97.454517 C 14.222904 97.343189 14.210057 97.240792 14.184664 97.147042 C 14.159273 97.052315 14.120092 96.970398 14.067358 96.901062 C 14.014624 96.830747 13.946761 96.775791 13.863753 96.736731 C 13.781723 96.697671 13.684029 96.678337 13.570748 96.678337 z M 15.18512 96.678337 C 15.099182 96.678337 15.024894 96.69704 14.962394 96.734147 C 14.900872 96.770282 14.849989 96.820649 14.809949 96.886076 C 14.809298 96.887123 14.809043 96.888124 14.808398 96.889176 L 14.802714 96.707275 L 14.539164 96.707275 L 14.539164 98.292708 L 14.810465 98.292708 L 14.810465 97.165645 C 14.829493 97.121339 14.854122 97.082974 14.88488 97.050407 C 14.918082 97.015254 14.958466 96.987775 15.006319 96.968241 C 15.054171 96.948708 15.109701 96.938786 15.172201 96.938786 C 15.197587 96.938786 15.219847 96.939953 15.23938 96.941886 C 15.259887 96.942886 15.281515 96.945805 15.303975 96.950671 L 15.305526 96.69849 C 15.295759 96.693637 15.278209 96.689505 15.252816 96.685571 C 15.227429 96.680705 15.204653 96.678337 15.18512 96.678337 z M 10.21333 96.707275 L 10.21333 97.860177 C 10.183627 97.928746 10.137389 97.984014 10.07432 98.026058 C 10.006937 98.070005 9.9156698 98.091687 9.8004354 98.091687 C 9.7633258 98.091687 9.7270709 98.086407 9.6919149 98.075667 C 9.6577349 98.064927 9.6267005 98.046223 9.5983805 98.019857 C 9.5710365 97.992514 9.548836 97.956203 9.5322347 97.910303 C 9.51661 97.863428 9.5089803 97.804342 9.5089803 97.733053 L 9.5089803 96.707792 L 9.2381958 96.707792 L 9.2381958 97.729952 C 9.2381958 97.835421 9.2499553 97.926058 9.2743693 98.001253 C 9.2997597 98.07645 9.3354409 98.137314 9.3813395 98.184188 C 9.4272379 98.231064 9.4821939 98.265597 9.5456706 98.288057 C 9.6101237 98.310517 9.6809123 98.321647 9.7580607 98.321647 C 9.871342 98.321647 9.9673133 98.30352 10.046415 98.267387 C 10.116462 98.234523 10.174775 98.190678 10.221082 98.135612 L 10.226766 98.292708 L 10.486182 98.292708 L 10.486182 96.707275 L 10.21333 96.707275 z M 6.5665243 96.825098 C 6.6425243 96.989098 6.7156323 97.109866 6.7856323 97.187866 L 5.1237183 97.187866 L 5.1237183 97.35013 L 6.7856323 97.35013 C 6.7156323 97.42813 6.6425243 97.548899 6.5665243 97.712899 L 6.6988159 97.712899 C 6.8588159 97.526899 7.0255605 97.390071 7.1995605 97.302071 L 7.1995605 97.235925 C 7.0255605 97.147925 6.8588159 97.011098 6.6988159 96.825098 L 6.5665243 96.825098 z M 13.570748 96.901062 C 13.663519 96.901062 13.737176 96.922174 13.790889 96.965141 C 13.844601 97.008109 13.883265 97.063065 13.907678 97.129472 C 13.933045 97.195878 13.94767 97.264315 13.951603 97.334627 L 13.951603 97.354781 L 13.158887 97.354781 C 13.164008 97.314063 13.171181 97.276031 13.181108 97.240576 C 13.201621 97.167332 13.230817 97.105321 13.267924 97.054541 C 13.305031 97.003763 13.349489 96.965729 13.401249 96.940336 C 13.453004 96.913969 13.509221 96.901062 13.570748 96.901062 z M 8.2139689 96.906746 C 8.2911171 96.906746 8.3560544 96.922525 8.4087891 96.953772 C 8.4615233 96.984043 8.5042032 97.025632 8.5364299 97.079346 C 8.5686559 97.13208 8.5920611 97.194035 8.6067098 97.264347 C 8.6213585 97.333683 8.6284139 97.407971 8.6284139 97.487073 L 8.6284139 97.517562 C 8.6284139 97.596663 8.6207842 97.670951 8.6051595 97.740287 C 8.5895348 97.809625 8.5649823 97.870489 8.531779 97.923222 C 8.4995527 97.975957 8.4573896 98.017489 8.4046549 98.047762 C 8.3528971 98.077055 8.2903117 98.091687 8.2170695 98.091687 C 8.1282021 98.091687 8.0533404 98.071782 7.9927938 98.031742 C 7.9332233 97.991704 7.885266 97.940247 7.8491333 97.877747 C 7.8424307 97.865645 7.8360057 97.853852 7.830013 97.841573 L 7.830013 97.152726 C 7.8510428 97.109629 7.8773164 97.071111 7.9080444 97.036971 C 7.9432007 96.996938 7.9853638 96.965326 8.0351685 96.941886 C 8.0859497 96.918446 8.1456096 96.906746 8.2139689 96.906746 z M 5.0803101 102.93739 A 0.0625 0.0625 0 0 0 5.0177816 102.99991 A 0.0625 0.0625 0 0 0 5.0803101 103.06244 L 5.1795288 103.06244 A 0.0625 0.0625 0 0 0 5.2420573 102.99991 A 0.0625 0.0625 0 0 0 5.1795288 102.93739 L 5.0803101 102.93739 z M 5.880778 102.93739 A 0.0625 0.0625 0 0 0 5.8182495 102.99991 A 0.0625 0.0625 0 0 0 5.880778 103.06244 L 5.9805135 103.06244 A 0.0625 0.0625 0 0 0 6.043042 102.99991 A 0.0625 0.0625 0 0 0 5.9805135 102.93739 L 5.880778 102.93739 z M 6.6796956 102.93739 A 0.0625 0.0625 0 0 0 6.6171672 102.99991 A 0.0625 0.0625 0 0 0 6.6796956 103.06244 L 6.7794312 103.06244 A 0.0625 0.0625 0 0 0 6.8419596 102.99991 A 0.0625 0.0625 0 0 0 6.7794312 102.93739 L 6.6796956 102.93739 z M 7.4806803 102.93739 A 0.0625 0.0625 0 0 0 7.4181519 102.99991 A 0.0625 0.0625 0 0 0 7.4806803 103.06244 L 7.5798991 103.06244 A 0.0625 0.0625 0 0 0 7.6424276 102.99991 A 0.0625 0.0625 0 0 0 7.5798991 102.93739 L 7.4806803 102.93739 z M 8.2790812 102.93739 A 0.0625 0.0625 0 0 0 8.2165527 102.99991 A 0.0625 0.0625 0 0 0 8.2790812 103.06244 L 8.3808838 103.06244 A 0.0625 0.0625 0 0 0 8.4434123 102.99991 A 0.0625 0.0625 0 0 0 8.3808838 102.93739 L 8.2790812 102.93739 z M 9.0800659 102.93739 A 0.0625 0.0625 0 0 0 9.0175374 102.99991 A 0.0625 0.0625 0 0 0 9.0800659 103.06244 L 9.1798014 103.06244 A 0.0625 0.0625 0 0 0 9.2423299 102.99991 A 0.0625 0.0625 0 0 0 9.1798014 102.93739 L 9.0800659 102.93739 z M 9.8810506 102.93739 A 0.0625 0.0625 0 0 0 9.8185221 102.99991 A 0.0625 0.0625 0 0 0 9.8810506 103.06244 L 9.9802694 103.06244 A 0.0625 0.0625 0 0 0 10.042798 102.99991 A 0.0625 0.0625 0 0 0 9.9802694 102.93739 L 9.8810506 102.93739 z M 10.679451 102.93739 A 0.0625 0.0625 0 0 0 10.61744 102.99991 A 0.0625 0.0625 0 0 0 10.679451 103.06244 L 10.779187 103.06244 A 0.0625 0.0625 0 0 0 10.841715 102.99991 A 0.0625 0.0625 0 0 0 10.779187 102.93739 L 10.679451 102.93739 z M 11.480436 102.93739 A 0.0625 0.0625 0 0 0 11.417908 102.99991 A 0.0625 0.0625 0 0 0 11.480436 103.06244 L 11.580172 103.06244 A 0.0625 0.0625 0 0 0 11.6427 102.99991 A 0.0625 0.0625 0 0 0 11.580172 102.93739 L 11.480436 102.93739 z M 12.279354 102.93739 A 0.0625 0.0625 0 0 0 12.216825 102.99991 A 0.0625 0.0625 0 0 0 12.279354 103.06244 L 12.38064 103.06244 A 0.0625 0.0625 0 0 0 12.443168 102.99991 A 0.0625 0.0625 0 0 0 12.38064 102.93739 L 12.279354 102.93739 z M 13.079822 102.93739 A 0.0625 0.0625 0 0 0 13.01781 102.99991 A 0.0625 0.0625 0 0 0 13.079822 103.06244 L 13.179557 103.06244 A 0.0625 0.0625 0 0 0 13.242086 102.99991 A 0.0625 0.0625 0 0 0 13.179557 102.93739 L 13.079822 102.93739 z M 13.880806 102.93739 A 0.0625 0.0625 0 0 0 13.818278 102.99991 A 0.0625 0.0625 0 0 0 13.880806 103.06244 L 13.980542 103.06244 A 0.0625 0.0625 0 0 0 14.04307 102.99991 A 0.0625 0.0625 0 0 0 13.980542 102.93739 L 13.880806 102.93739 z M 14.679724 102.93739 A 0.0625 0.0625 0 0 0 14.617196 102.99991 A 0.0625 0.0625 0 0 0 14.679724 103.06244 L 14.77946 103.06244 A 0.0625 0.0625 0 0 0 14.841988 102.99991 A 0.0625 0.0625 0 0 0 14.77946 102.93739 L 14.679724 102.93739 z M 12.831775 107.32213 L 12.831775 107.70764 L 12.54187 107.70764 L 12.54187 107.91538 L 12.831775 107.91538 L 12.831775 108.89826 C 12.831775 109.00376 12.848124 109.08798 12.880351 109.15044 C 12.913551 109.21194 12.958009 109.25582 13.013676 109.28222 C 13.06934 109.30862 13.130204 109.32149 13.196611 109.32149 C 13.245439 109.32149 13.286971 109.31802 13.321151 109.31116 C 13.356304 109.30529 13.384413 109.29935 13.4059 109.29255 L 13.404867 109.07138 C 13.392173 109.07451 13.372899 109.07808 13.347506 109.08275 C 13.323092 109.08675 13.299686 109.08895 13.277226 109.08895 C 13.246952 109.08895 13.218843 109.08431 13.192476 109.07551 C 13.16611 109.06671 13.144481 109.04859 13.127881 109.02125 C 13.111281 108.99393 13.103076 108.95355 13.103076 108.89981 L 13.103076 107.91538 L 13.398665 107.91538 L 13.398665 107.70764 L 13.103076 107.70764 L 13.103076 107.32213 L 12.831775 107.32213 z M 7.6625814 107.67818 C 7.5766438 107.67818 7.502356 107.69634 7.439856 107.73348 C 7.3783322 107.76964 7.3274491 107.82052 7.2874105 107.88592 C 7.2867461 107.88699 7.2860022 107.88795 7.2853434 107.88902 L 7.2801758 107.70764 L 7.016626 107.70764 L 7.016626 109.29255 L 7.2874105 109.29255 L 7.2874105 108.16549 C 7.3064408 108.12114 7.3315638 108.0823 7.3623413 108.04974 C 7.3955446 108.0146 7.4359296 107.98762 7.4837809 107.96809 C 7.5316325 107.94855 7.5866455 107.93863 7.6491455 107.93863 C 7.6745362 107.93863 7.6973103 107.93973 7.7168416 107.94173 C 7.7373496 107.94307 7.7584597 107.94585 7.7809204 107.95052 L 7.7824707 107.69885 L 7.7824707 107.69834 C 7.7727054 107.69354 7.7551514 107.6889 7.7297607 107.6849 C 7.7043701 107.68023 7.6821127 107.67818 7.6625814 107.67818 z M 8.6278971 107.67818 C 8.5390299 107.67818 8.4530395 107.69631 8.3700317 107.73244 C 8.2870242 107.76858 8.2127363 107.82181 8.1473063 107.89212 C 8.0818767 107.96244 8.030363 108.04843 7.992277 108.14999 C 7.954191 108.25057 7.9349162 108.36525 7.9349162 108.49415 L 7.9349162 108.55565 C 7.9349162 108.66698 7.9518958 108.76938 7.9860758 108.86312 C 8.0202554 108.95688 8.0693602 109.03816 8.1328369 109.10652 C 8.19729 109.17489 8.2739298 109.22813 8.362797 109.2662 C 8.4526408 109.30333 8.5526856 109.32201 8.6630371 109.32201 C 8.7675293 109.32201 8.8576497 109.30742 8.9338216 109.27808 C 9.0109697 109.24878 9.0759071 109.21075 9.1286418 109.16388 C 9.1813758 109.11699 9.2246864 109.0673 9.2588664 109.01557 L 9.0950521 108.88534 C 9.0452471 108.95077 8.9873085 109.00286 8.9209025 109.04192 C 8.8544963 109.08099 8.7732096 109.10083 8.6775065 109.10083 C 8.603288 109.10083 8.5371462 109.08628 8.4785522 109.05794 C 8.4209348 109.02962 8.3712562 108.99095 8.3302409 108.94115 C 8.2902022 108.89132 8.2597415 108.83344 8.2382568 108.76804 C 8.219615 108.70767 8.2094641 108.64395 8.2077677 108.57632 L 9.2795369 108.57632 L 9.2795369 108.45436 C 9.2795369 108.34304 9.2666871 108.24064 9.2412964 108.14689 C 9.2159061 108.05216 9.1772423 107.97024 9.1245076 107.90091 C 9.0717733 107.8306 9.0039104 107.77564 8.9209025 107.73658 C 8.8388713 107.69751 8.7411784 107.67818 8.6278971 107.67818 z M 10.170439 107.67818 C 10.081571 107.67818 10.000859 107.69047 9.9285929 107.71487 C 9.8563275 107.73926 9.7943158 107.77264 9.7425578 107.81564 C 9.6917762 107.85861 9.652022 107.90829 9.623702 107.96395 C 9.596358 108.01965 9.5828776 108.07874 9.5828776 108.1412 C 9.5828776 108.20666 9.5957844 108.26345 9.6221517 108.31225 C 9.648519 108.36108 9.6864951 108.40376 9.7353231 108.43989 C 9.7851277 108.47603 9.8448446 108.50699 9.9151571 108.53239 C 9.9864465 108.55779 10.066012 108.57949 10.153902 108.59802 C 10.258392 108.61856 10.336753 108.64307 10.388513 108.6714 C 10.441249 108.69874 10.475783 108.7297 10.492383 108.7639 C 10.509963 108.7971 10.518738 108.83284 10.518738 108.87191 C 10.518738 108.91583 10.50583 108.95501 10.479464 108.98921 C 10.453095 109.02341 10.414488 109.05029 10.363708 109.06983 C 10.313904 109.08936 10.251892 109.09928 10.177673 109.09928 C 10.122009 109.09928 10.065848 109.09053 10.009208 109.07293 C 9.9525677 109.0544 9.9046104 109.02343 9.8655477 108.98043 C 9.8264857 108.93648 9.8048588 108.8774 9.8009521 108.80318 L 9.5286174 108.80318 C 9.5286174 108.89107 9.5537435 108.97471 9.6035482 109.05381 C 9.6533529 109.13292 9.7264933 109.19728 9.823173 109.24708 C 9.9198527 109.29688 10.038025 109.32201 10.177673 109.32201 C 10.270447 109.32201 10.354085 109.31037 10.428304 109.2879 C 10.503497 109.26444 10.567861 109.23227 10.621574 109.19127 C 10.676261 109.14925 10.717794 109.09952 10.746114 109.04192 C 10.775414 108.98431 10.790039 108.92109 10.790039 108.85175 C 10.790039 108.76676 10.769557 108.69425 10.728544 108.63471 C 10.687529 108.57513 10.624943 108.52482 10.540959 108.48382 C 10.456975 108.44277 10.349931 108.40766 10.220048 108.3784 C 10.145831 108.3618 10.084967 108.34539 10.037113 108.32879 C 9.989262 108.31219 9.9518597 108.29461 9.9254924 108.27608 C 9.899125 108.25654 9.8809406 108.2355 9.8701986 108.21303 C 9.8604332 108.18957 9.8552124 108.16323 9.8552124 108.13397 C 9.8552124 108.09488 9.8657103 108.05748 9.8862183 108.02235 C 9.9077024 107.98721 9.9410886 107.95851 9.9869873 107.93605 C 10.033862 107.91258 10.095243 107.90091 10.170439 107.90091 C 10.241729 107.90091 10.301446 107.9144 10.350273 107.94173 C 10.400075 107.96907 10.438051 108.00412 10.463444 108.04612 C 10.489811 108.08714 10.502718 108.12931 10.502718 108.17324 L 10.774019 108.17324 C 10.774019 108.08242 10.750042 107.99993 10.702189 107.92571 C 10.654338 107.85053 10.585327 107.79029 10.495483 107.74536 C 10.405639 107.70043 10.297391 107.67818 10.170439 107.67818 z M 11.766724 107.67818 C 11.677857 107.67818 11.592383 107.69631 11.509375 107.73244 C 11.426364 107.76858 11.352076 107.82181 11.28665 107.89212 C 11.22122 107.96244 11.16919 108.04843 11.131104 108.14999 C 11.093017 108.25057 11.074259 108.36525 11.074259 108.49415 L 11.074259 108.55565 C 11.074259 108.66698 11.091239 108.76938 11.125419 108.86312 C 11.159602 108.95688 11.20819 109.03816 11.271663 109.10652 C 11.336117 109.17489 11.412756 109.22813 11.501624 109.2662 C 11.591467 109.30333 11.691512 109.32201 11.801864 109.32201 C 11.906356 109.32201 11.996993 109.30742 12.073165 109.27808 C 12.150314 109.24878 12.215252 109.21075 12.267985 109.16388 C 12.320719 109.11699 12.36403 109.0673 12.39821 109.01557 L 12.234395 108.88534 C 12.184591 108.95077 12.126136 109.00286 12.059729 109.04192 C 11.993323 109.08099 11.912553 109.10083 11.81685 109.10083 C 11.74263 109.10083 11.675972 109.08628 11.617379 109.05794 C 11.559759 109.02962 11.510597 108.99095 11.469584 108.94115 C 11.429551 108.89132 11.39857 108.83344 11.377083 108.76804 C 11.358443 108.70767 11.348291 108.64395 11.346594 108.57632 L 12.41888 108.57632 L 12.41888 108.45436 C 12.41888 108.34304 12.406033 108.24064 12.38064 108.14689 C 12.355248 108.05216 12.316067 107.97024 12.263334 107.90091 C 12.2106 107.8306 12.142737 107.77564 12.059729 107.73658 C 11.977698 107.69751 11.880005 107.67818 11.766724 107.67818 z M 8.6278971 107.90091 C 8.7206708 107.90091 8.7938113 107.92257 8.847522 107.9655 C 8.901233 108.00848 8.9404135 108.06292 8.9648275 108.12932 C 8.9902175 108.19572 9.0048458 108.26416 9.0087524 108.33447 L 9.0087524 108.35514 L 8.2155192 108.35514 C 8.2206407 108.31447 8.2283386 108.27636 8.2382568 108.24094 C 8.2587648 108.16772 8.2874471 108.1057 8.3245565 108.0549 C 8.3616657 108.00413 8.4061237 107.9661 8.4578817 107.9407 C 8.5096396 107.9143 8.5663738 107.90091 8.6278971 107.90091 z M 11.766724 107.90091 C 11.859495 107.90091 11.933152 107.92257 11.986865 107.9655 C 12.040577 108.00848 12.079241 108.06292 12.103654 108.12932 C 12.129021 108.19572 12.143646 108.26416 12.147579 108.33447 L 12.147579 108.35514 L 11.354862 108.35514 C 11.359984 108.31447 11.367166 108.27636 11.377083 108.24094 C 11.397597 108.16772 11.426793 108.1057 11.4639 108.0549 C 11.501007 108.00413 11.545465 107.9661 11.597225 107.9407 C 11.648979 107.9143 11.705197 107.90091 11.766724 107.90091 z M -9.9999064 110 L -9.9999064 120.99985 L 30.320113 120.99985 L 30.320113 110 L -9.9999064 110 z M 4.9743734 122.38581 C 4.8786702 122.38581 4.7920492 122.3993 4.7139242 122.42664 C 4.6367756 122.45297 4.5701171 122.48922 4.5144531 122.53516 C 4.4597655 122.58008 4.4176593 122.63038 4.3883626 122.68605 C 4.359066 122.74168 4.3444377 122.79785 4.3444377 122.85452 L 4.6157389 122.85452 C 4.6157389 122.81056 4.6297936 122.76959 4.6581136 122.73153 C 4.6874104 122.69346 4.7272216 122.66249 4.7780029 122.63903 C 4.8297607 122.61556 4.8899943 122.60389 4.9583537 122.60389 C 5.0315959 122.60389 5.0930339 122.61673 5.1428385 122.64213 C 5.1926433 122.66753 5.2300456 122.70378 5.2544596 122.75065 C 5.2798503 122.79658 5.2921834 122.85044 5.2921834 122.91291 L 5.2921834 123.039 L 5.0244995 123.039 C 4.916101 123.039 4.8178344 123.05064 4.7299438 123.07311 C 4.6420532 123.09557 4.5666178 123.12839 4.5041178 123.17233 C 4.441618 123.21533 4.3941775 123.26971 4.3609741 123.33511 C 4.3277708 123.39956 4.310848 123.47442 4.310848 123.55938 C 4.310848 123.64728 4.3330485 123.72684 4.3769938 123.79813 C 4.4219157 123.86843 4.4845011 123.92459 4.5645793 123.96659 C 4.645634 124.00859 4.7398275 124.02964 4.8472493 124.02964 C 4.9331868 124.02964 5.0104004 124.01453 5.0787598 123.9852 C 5.1480957 123.95494 5.2072388 123.91748 5.2570435 123.87254 C 5.2716526 123.85934 5.2854728 123.84628 5.2983846 123.83275 C 5.2999495 123.84676 5.3019043 123.86103 5.304069 123.87564 C 5.3118817 123.92738 5.3224364 123.96892 5.3361084 124.00018 L 5.6192952 124.00018 L 5.6192952 123.97641 C 5.6007406 123.93347 5.5861691 123.88253 5.5764038 123.82293 C 5.5676145 123.76337 5.5634847 123.7072 5.5634847 123.65447 L 5.5634847 122.91601 C 5.5634847 122.79784 5.5377849 122.69958 5.4870036 122.62146 C 5.4371989 122.54236 5.3681315 122.48327 5.2792643 122.44421 C 5.1913737 122.40514 5.0896077 122.38581 4.9743734 122.38581 z M 6.7277547 122.38633 C 6.6320517 122.38633 6.5448568 122.40511 6.4657552 122.44317 C 6.3876303 122.48029 6.320341 122.53295 6.2637004 122.6013 C 6.2606548 122.60498 6.2573707 122.60892 6.2543986 122.61267 L 6.2461304 122.41527 L 5.9898153 122.41527 L 5.9898153 124.00018 L 6.2605998 124.00018 L 6.2605998 122.86899 C 6.2777756 122.83482 6.2976812 122.80305 6.3205444 122.7739 C 6.3605836 122.72411 6.4079673 122.68493 6.4626546 122.6566 C 6.5183187 122.62826 6.5797567 122.61422 6.6471395 122.61422 C 6.7154992 122.61422 6.7733809 122.62589 6.8202555 122.64936 C 6.8671306 122.67181 6.9028117 122.70863 6.9272257 122.75943 C 6.9516397 122.80923 6.963916 122.87537 6.963916 122.95839 L 6.963916 124.00018 L 7.2362508 124.00018 L 7.2362508 122.962 C 7.2362508 122.85751 7.2245482 122.76917 7.2011108 122.6969 C 7.1776734 122.62363 7.1437135 122.56397 7.0987915 122.5181 C 7.0548462 122.47224 7.0016113 122.4389 6.9391113 122.41837 C 6.8766113 122.3969 6.8058797 122.38633 6.7277547 122.38633 z M 2.7683065 122.41527 L 3.3429484 124.00018 L 3.5243327 124.00018 L 3.5491374 124.00018 L 4.1191284 122.41527 L 3.8421427 122.41527 L 3.4494019 123.62966 L 3.0468424 122.41527 L 2.7683065 122.41527 z M 5.0684245 123.22969 L 5.2921834 123.22969 L 5.2921834 123.55422 C 5.2828884 123.57267 5.2711865 123.59168 5.2570435 123.61054 C 5.2199342 123.66135 5.1696249 123.70408 5.1061483 123.73922 C 5.0426717 123.77435 4.9695313 123.79193 4.8865234 123.79193 C 4.8201174 123.79193 4.7639569 123.78025 4.7180583 123.75679 C 4.6731361 123.73239 4.6397499 123.6996 4.6172892 123.6586 C 4.5948286 123.61758 4.5831828 123.57249 4.5831828 123.52269 C 4.5831828 123.47387 4.5942543 123.43119 4.6157389 123.39505 C 4.6372236 123.35792 4.6682579 123.32695 4.7092733 123.30255 C 4.7502891 123.27815 4.8011721 123.26054 4.8617187 123.24881 C 4.9222656 123.23607 4.991276 123.22969 5.0684245 123.22969 z M 4.4085164 124.83786 C 4.3557823 124.83786 4.3154544 124.85307 4.2881104 124.88333 C 4.261743 124.91362 4.2488363 124.9505 4.2488363 124.99444 C 4.2488363 125.03644 4.261743 125.07269 4.2881104 125.10296 C 4.3154538 125.13222 4.3557818 125.14688 4.4085164 125.14688 C 4.460274 125.14688 4.4995115 125.13222 4.5268555 125.10296 C 4.5551755 125.07269 4.5697469 125.03644 4.5697469 124.99444 C 4.5697469 124.95048 4.5551755 124.9136 4.5268555 124.88333 C 4.4995119 124.85307 4.4602744 124.83786 4.4085164 124.83786 z M 2.3238892 124.86731 L 2.3238892 125.09882 L 3.0080851 125.09882 L 3.0080851 127 L 3.2861043 127 L 3.2861043 125.09882 L 3.9718506 125.09882 L 3.9718506 124.86731 L 2.3238892 124.86731 z M 5.5991414 125.38563 C 5.5102743 125.38563 5.4242839 125.40376 5.341276 125.43989 C 5.2582686 125.47602 5.1844974 125.52926 5.1190674 125.59957 C 5.0536377 125.66988 5.0016073 125.75587 4.9635213 125.85743 C 4.9254353 125.95802 4.9061605 126.07269 4.9061605 126.2016 L 4.9061605 126.26309 C 4.9061605 126.37443 4.9236569 126.47682 4.9578369 126.57057 C 4.9920164 126.66432 5.0406046 126.74561 5.1040812 126.81396 C 5.1685344 126.88234 5.2451741 126.93558 5.3340413 126.97365 C 5.4238851 127.01078 5.5239298 127.02946 5.6342814 127.02946 C 5.7387736 127.02946 5.8294108 127.01486 5.9055827 126.98553 C 5.9827308 126.95622 6.0476682 126.91819 6.1004028 126.87133 C 6.1531369 126.82443 6.1964474 126.77475 6.2306274 126.72301 L 6.0668132 126.59279 C 6.0170082 126.65822 5.9585528 126.7103 5.8921468 126.74937 C 5.8257405 126.78844 5.7449707 126.80828 5.6492676 126.80828 C 5.5750491 126.80828 5.5083905 126.79372 5.4497965 126.76539 C 5.3921791 126.73706 5.3430173 126.6984 5.302002 126.6486 C 5.2619633 126.59877 5.2309858 126.54088 5.2095011 126.47548 C 5.1908685 126.41515 5.1807159 126.35136 5.179012 126.28376 L 6.251298 126.28376 L 6.251298 126.16233 C 6.251298 126.051 6.2384481 125.94809 6.2130575 125.85433 C 6.1876671 125.75961 6.1484866 125.67769 6.095752 125.60835 C 6.0430176 125.53805 5.9751546 125.48361 5.8921468 125.44454 C 5.8101155 125.40547 5.7124227 125.38563 5.5991414 125.38563 z M 7.1416829 125.38563 C 7.0528157 125.38563 6.9721028 125.39792 6.8998372 125.42232 C 6.8275718 125.44671 6.7655601 125.4806 6.7138021 125.5236 C 6.6630205 125.56657 6.6237831 125.61573 6.5954631 125.6714 C 6.5681191 125.72709 6.5541219 125.78618 6.5541219 125.84865 C 6.5541219 125.91411 6.5675454 125.9709 6.5939128 126.0197 C 6.6202801 126.06852 6.6577394 126.11121 6.7065674 126.14734 C 6.756372 126.18347 6.8166056 126.21444 6.8869181 126.23984 C 6.9582072 126.26524 7.0377726 126.28694 7.1256632 126.30547 C 7.2301552 126.326 7.3085163 126.35052 7.3602743 126.37885 C 7.4130089 126.40618 7.4475425 126.43715 7.4641439 126.47135 C 7.4817219 126.50455 7.4904989 126.54029 7.4904989 126.57935 C 7.4904989 126.62328 7.4770753 126.66246 7.450708 126.69666 C 7.4243409 126.73086 7.3857341 126.75774 7.3349528 126.77727 C 7.2851481 126.79681 7.2231364 126.80673 7.1489176 126.80673 C 7.0932536 126.80673 7.0370931 126.79798 6.9804525 126.78038 C 6.923812 126.76184 6.8763714 126.73087 6.8373088 126.68787 C 6.7982468 126.64393 6.7766199 126.58484 6.7727132 126.51062 L 6.5003784 126.51062 C 6.5003784 126.59852 6.5249878 126.68215 6.5747925 126.76125 C 6.6245971 126.84036 6.6977377 126.90472 6.7944173 126.95452 C 6.8910971 127.00432 7.0092692 127.02946 7.1489176 127.02946 C 7.2416911 127.02946 7.3253296 127.01782 7.3995483 126.99535 C 7.4747439 126.97188 7.5391075 126.93971 7.5928182 126.89871 C 7.647506 126.8567 7.6890384 126.80697 7.7173584 126.74937 C 7.7466551 126.69176 7.7612834 126.62854 7.7612834 126.5592 C 7.7612834 126.47421 7.7408037 126.40169 7.6997884 126.34216 C 7.6587727 126.28257 7.5961873 126.23226 7.512203 126.19126 C 7.4282186 126.15022 7.3216919 126.11511 7.1918091 126.08584 C 7.1175901 126.06924 7.0562091 126.05283 7.0083577 126.03623 C 6.9605063 126.01963 6.9236208 126.00206 6.8972534 125.98352 C 6.8708861 125.96399 6.8521849 125.94295 6.8414429 125.92048 C 6.8316775 125.89701 6.8269735 125.87068 6.8269735 125.84141 C 6.8269735 125.80233 6.8369546 125.76493 6.8574626 125.72979 C 6.8789467 125.69466 6.9128497 125.66596 6.9587484 125.64349 C 7.0056234 125.62003 7.0664876 125.60835 7.1416829 125.60835 C 7.2129721 125.60835 7.2732057 125.62184 7.3220337 125.64918 C 7.3718384 125.67652 7.4092976 125.71156 7.4346883 125.75356 C 7.4610556 125.79459 7.4744792 125.83676 7.4744792 125.88069 L 7.7452637 125.88069 C 7.7452637 125.78987 7.7212848 125.70738 7.6734334 125.63316 C 7.6255818 125.55798 7.5565714 125.49826 7.4667277 125.45332 C 7.376884 125.40839 7.2686361 125.38563 7.1416829 125.38563 z M 4.2689901 125.41508 L 4.2689901 127 L 4.5418416 127 L 4.5418416 125.41508 L 4.2689901 125.41508 z M 5.5991414 125.60835 C 5.6919152 125.60835 5.7650556 125.63002 5.8187663 125.67295 C 5.8724773 125.71592 5.9116578 125.77036 5.9360718 125.83676 C 5.9614618 125.90317 5.9760901 125.97161 5.9799967 126.04192 L 5.9799967 126.06259 L 5.1872803 126.06259 C 5.192402 126.02188 5.1995748 125.98384 5.2095011 125.94838 C 5.2300091 125.87516 5.2592082 125.81315 5.2963175 125.76235 C 5.3334267 125.71158 5.377368 125.67354 5.429126 125.64814 C 5.4808838 125.62181 5.5376181 125.60835 5.5991414 125.60835 z " />
  <path
     id="text10"
     style="font-size:3px;font-family:Roboto;dominant-baseline:middle;text-anchor:middle;fill:#000010"
     d="M 11.011731 118.04241 L 11.011731 120.2924 L 11.284066 120.2924 L 11.284066 118.04241 L 11.011731 118.04241 z M 9.9265259 118.67803 C 9.8161743 118.67803 9.7161865 118.69852 9.6273193 118.73952 C 9.5384522 118.77956 9.4629598 118.83629 9.4004598 118.90954 C 9.33796 118.9818 9.2900026 119.06722 9.2567993 119.16585 C 9.223596 119.26351 9.2071899 119.3694 9.2071899 119.48366 L 9.2071899 119.51777 C 9.2071899 119.63202 9.223596 119.73792 9.2567993 119.83558 C 9.2900024 119.93323 9.3379598 120.01865 9.4004598 120.09189 C 9.4639363 120.16417 9.5400024 120.22091 9.6288696 120.26191 C 9.7177368 120.30198 9.8177816 120.32185 9.9291097 120.32185 C 10.040438 120.32185 10.140426 120.30198 10.228316 120.26191 C 10.317184 120.2209 10.392676 120.16416 10.455176 120.09189 C 10.518655 120.01865 10.567187 119.93323 10.600387 119.83558 C 10.633593 119.73792 10.649996 119.63202 10.649996 119.51777 L 10.649996 119.48366 C 10.649996 119.3694 10.633593 119.26351 10.600387 119.16585 C 10.567181 119.06722 10.518649 118.9818 10.455176 118.90954 C 10.392676 118.83632 10.31661 118.77959 10.226766 118.73952 C 10.137899 118.69852 10.037854 118.67803 9.9265259 118.67803 z M 8.3137044 118.67854 C 8.214095 118.67854 8.1258097 118.69612 8.0496379 118.73125 C 7.9735661 118.7654 7.9090039 118.81536 7.8553345 118.88163 L 7.8418986 118.70748 L 7.5928182 118.70748 L 7.5928182 120.90166 L 7.865153 120.90166 L 7.865153 120.13892 C 7.916871 120.19663 7.978883 120.24113 8.0511882 120.27225 C 8.1283366 120.30545 8.2172526 120.32185 8.3178385 120.32185 C 8.4164714 120.32185 8.504183 120.30198 8.5803548 120.26191 C 8.6565265 120.22187 8.7203164 120.16571 8.7720744 120.09344 C 8.8248085 120.02118 8.8646197 119.93582 8.8919637 119.83816 C 8.9193077 119.73953 8.9333049 119.633 8.9333049 119.51777 L 8.9333049 119.48676 C 8.9333049 119.36567 8.9193077 119.25622 8.8919637 119.15758 C 8.8655968 119.05797 8.8263593 118.97204 8.7736247 118.90075 C 8.7208903 118.82945 8.655953 118.77501 8.5788045 118.73694 C 8.5016561 118.69787 8.4133138 118.67854 8.3137044 118.67854 z M 11.545032 118.70748 L 12.110889 120.27586 L 12.051978 120.43606 C 12.030491 120.50146 12.004219 120.55292 11.973946 120.59006 C 11.944647 120.62819 11.908909 120.65507 11.865942 120.67067 C 11.82297 120.68727 11.770366 120.69548 11.708846 120.69548 C 11.702013 120.69548 11.690253 120.69437 11.672673 120.69237 C 11.656073 120.69104 11.643796 120.68994 11.635982 120.68927 L 11.637533 120.9089 C 11.651206 120.91263 11.674613 120.91789 11.707812 120.92389 C 11.741012 120.92989 11.767975 120.93267 11.789461 120.93267 C 11.861725 120.93267 11.923736 120.91928 11.975496 120.89288 C 12.028233 120.86748 12.073265 120.83466 12.110372 120.79366 C 12.147479 120.75261 12.177882 120.70879 12.201322 120.66292 C 12.225736 120.618 12.24507 120.57641 12.259717 120.53735 L 12.895854 118.70748 L 12.605432 118.70748 L 12.237496 119.89346 L 11.841138 118.70748 L 11.545032 118.70748 z M 9.9265259 118.90075 C 10.001718 118.90075 10.06723 118.91651 10.122896 118.94778 C 10.17954 118.97905 10.22635 119.02179 10.263456 119.07645 C 10.301543 119.13017 10.329652 119.19217 10.348206 119.26249 C 10.367739 119.33182 10.377661 119.40554 10.377661 119.48366 L 10.377661 119.51777 C 10.377661 119.59687 10.367739 119.67121 10.348206 119.74153 C 10.329646 119.81084 10.301596 119.8728 10.26449 119.92653 C 10.22738 119.98022 10.18057 120.02239 10.12393 120.05365 C 10.068266 120.08392 10.003328 120.09913 9.9291097 120.09913 C 9.8539144 120.09913 9.7883464 120.08392 9.7317057 120.05365 C 9.6750651 120.02243 9.6276815 119.98026 9.5895955 119.92653 C 9.5524862 119.87282 9.5244344 119.81086 9.5058797 119.74153 C 9.4873251 119.67121 9.4779744 119.59687 9.4779744 119.51777 L 9.4779744 119.48366 C 9.4779744 119.40554 9.4873251 119.33182 9.5058797 119.26249 C 9.5244344 119.19219 9.5524862 119.13019 9.5895955 119.07645 C 9.6276815 119.02178 9.6744914 118.97904 9.7301554 118.94778 C 9.786796 118.91651 9.8523071 118.90075 9.9265259 118.90075 z M 8.2346395 118.90695 C 8.3088586 118.90695 8.3726484 118.9222 8.426359 118.95346 C 8.4800696 118.98372 8.523954 119.02582 8.558134 119.07955 C 8.5932906 119.13229 8.6190473 119.19372 8.6356486 119.26404 C 8.6522499 119.33337 8.6609701 119.40766 8.6609701 119.48676 L 8.6609701 119.51777 C 8.6609701 119.59687 8.6522499 119.67121 8.6356486 119.74153 C 8.6190466 119.81084 8.59329 119.8728 8.558134 119.92653 C 8.523954 119.98022 8.4800697 120.02239 8.426359 120.05365 C 8.3736246 120.08392 8.3104655 120.09913 8.2372233 120.09913 C 8.1483564 120.09913 8.0746422 120.081 8.0160482 120.04487 C 7.9574542 120.00779 7.9106443 119.95926 7.8754883 119.89966 C 7.8719933 119.89364 7.8684936 119.88767 7.865153 119.88157 L 7.865153 119.12503 C 7.883206 119.09299 7.9042589 119.06378 7.9281982 119.03718 C 7.9633545 118.99718 8.0060344 118.96556 8.055839 118.94209 C 8.1066203 118.91863 8.1662802 118.90695 8.2346395 118.90695 z " />
</svg>
