<?xml version="1.0" encoding="UTF-8" standalone="no"?>
<svg
   width="30.48mm"
   height="128.5mm"
   viewBox="0 0 30.48 128.5"
   version="1.1"
   id="svg110"
   sodipodi:docname="Sjoegele.svg"
   inkscape:version="1.3.2 (1:1.3.2+202311252150+091e20ef0f)"
   xmlns:inkscape="http://www.inkscape.org/namespaces/inkscape"
   xmlns:sodipodi="http://sodipodi.sourceforge.net/DTD/sodipodi-0.dtd"
   xmlns="http://www.w3.org/2000/svg"
   xmlns:svg="http://www.w3.org/2000/svg">
  <defs
     id="defs114">
    <inkscape:path-effect
       effect="fillet_chamfer"
       id="path-effect1"
       is_visible="true"
       lpeversion="1"
       nodesatellites_param="F,0,0,1,0,1.3229167,0,1 @ F,0,0,1,0,1.3229167,0,1 @ F,0,0,1,0,1.3229167,0,1 @ F,0,0,1,0,1.3229167,0,1"
       radius="5"
       unit="px"
       method="auto"
       mode="F"
       chamfer_steps="1"
       flexible="false"
       use_knot_distance="true"
       apply_no_radius="true"
       apply_with_radius="true"
       only_selected="false"
       hide_knots="false" />
  </defs>
  <sodipodi:namedview
     id="namedview112"
     pagecolor="#ffffff"
     bordercolor="#666666"
     borderopacity="1.0"
     inkscape:showpageshadow="2"
     inkscape:pageopacity="0.0"
     inkscape:pagecheckerboard="0"
     inkscape:deskcolor="#d1d1d1"
     inkscape:document-units="mm"
     showgrid="false"
     inkscape:zoom="1.0377432"
     inkscape:cx="57.817773"
     inkscape:cy="242.83465"
     inkscape:window-width="1366"
     inkscape:window-height="704"
     inkscape:window-x="0"
     inkscape:window-y="27"
     inkscape:window-maximized="1"
     inkscape:current-layer="svg110" />
  <path
     id="rect2"
     style="fill:#000010"
     d="M 0,0 H 30.48 V 128.5 H 0 Z" />
  <g
     aria-label="sjoegele"
     id="text4"
     style="font-weight:bold;font-size:6px;font-family:Roboto;text-anchor:middle;fill:#ffffbf">
    <path
       d="m 5.8869724,9.1210938 q 0,-0.1347657 -0.1259765,-0.225586 Q 5.637949,8.8017578 5.2277927,8.7138672 4.7385349,8.6083984 4.4250584,8.3857422 4.1115818,8.1630859 4.1115818,7.7558594 q 0,-0.3955078 0.3339844,-0.6884766 0.336914,-0.2958984 0.9287109,-0.2958984 0.6181641,0 0.9726563,0.290039 0.3544922,0.2900391 0.3544922,0.7324219 H 5.8547459 q 0,-0.1816406 -0.1171875,-0.3017578 -0.1171875,-0.1201172 -0.366211,-0.1201172 -0.2109375,0 -0.3310547,0.099609 -0.1171875,0.09668 -0.1171875,0.243164 0,0.1347657 0.1259766,0.2226563 0.1259766,0.087891 0.4658203,0.1552734 0.515625,0.1025391 0.8554688,0.3134766 0.3398437,0.2109375 0.3398437,0.6826172 0,0.4189453 -0.3603515,0.6943359 -0.3603516,0.2753909 -0.9726563,0.2753909 -0.6650391,0 -1.0166016,-0.339844 Q 4.0090427,9.3759766 4.0090427,8.9892578 h 0.8056641 q 0.011719,0.2490235 0.1816406,0.3574219 0.1728516,0.1083984 0.3984375,0.1083984 0.4921875,0 0.4921875,-0.3339843 z"
       id="path117" />
    <path
       d="m 7.2404881,6.0097656 q 0,-0.1904297 0.1259765,-0.3134765 0.1289063,-0.1259766 0.3457031,-0.1259766 0.2167969,0 0.3457032,0.1259766 0.1289062,0.1230468 0.1289062,0.3134765 0,0.1875 -0.1289062,0.3134766 -0.1289063,0.1230469 -0.3457032,0.1230469 -0.2167968,0 -0.3457031,-0.1230469 Q 7.2404881,6.1972656 7.2404881,6.0097656 Z m 0.064453,0.8203125 h 0.8496094 v 3.3457029 q 0,0.536133 -0.2841797,0.820313 -0.28125,0.284179 -0.7939453,0.284179 -0.2226563,0 -0.4248047,-0.0498 V 10.55957 q 0.1347656,0.02637 0.2695312,0.02637 0.3837891,0 0.3837891,-0.410157 z"
       id="path119" />
    <path
       d="m 8.6877537,8.3857422 q 0,-0.6914063 0.3925781,-1.1513672 0.3925781,-0.4628906 1.1074222,-0.4628906 0.723632,0 1.113281,0.4628906 0.389648,0.4599609 0.389648,1.1513672 v 0.061523 q 0,0.6914063 -0.389648,1.1513672 -0.389649,0.4599612 -1.107422,0.4599612 -0.711914,0 -1.1044921,-0.4482424 -0.3896485,-0.4482422 -0.4013672,-1.125 z m 0.8496094,0.061523 q 0,0.3867188 0.1464843,0.6591797 0.1494141,0.2695313 0.5097656,0.2695313 0.354492,0 0.500977,-0.2695313 0.149414,-0.2695312 0.149414,-0.7207031 0,-0.3779297 -0.149414,-0.6533203 -0.146485,-0.2783203 -0.506836,-0.2783203 -0.3574222,0 -0.5039066,0.2753906 -0.1464843,0.2753906 -0.1464843,0.7177734 z"
       id="path121" />
    <path
       d="m 14.91041,9.484375 q -0.152344,0.2167969 -0.462891,0.3955078 -0.310547,0.1787112 -0.773437,0.1787112 -0.738281,0 -1.154297,-0.4453127 Q 12.103769,9.1650391 12.10084,8.5322266 V 8.4091797 q 0,-0.7177735 0.398437,-1.1777344 0.401367,-0.4599609 1.081055,-0.4599609 0.682617,0 1.040039,0.4277343 0.357422,0.4277344 0.357422,1.1308594 v 0.3603516 h -2.018555 q 0.04395,0.3076172 0.243164,0.4980469 0.199219,0.1875 0.524414,0.1875 0.483399,0 0.764649,-0.3544922 z M 13.574472,7.4541016 q -0.269531,0 -0.416015,0.1816406 -0.146485,0.1816406 -0.19043,0.4746094 h 1.177734 V 8.0458984 Q 14.139902,7.7910156 14.002207,7.6240234 13.867441,7.4541016 13.574472,7.4541016 Z"
       id="path123" />
    <path
       d="m 16.706308,11.248047 q -0.287109,0 -0.632812,-0.120117 -0.342774,-0.120117 -0.547852,-0.375 l 0.375,-0.515625 q 0.313477,0.351562 0.770508,0.351562 0.336914,0 0.524414,-0.18164 0.1875,-0.178711 0.1875,-0.5126957 V 9.7246094 q -0.298828,0.3339846 -0.770508,0.3339846 -0.588867,0 -0.93164,-0.4511721 Q 15.338144,9.15625 15.332285,8.4765625 v -0.084961 q 0,-0.7236329 0.342773,-1.171875 0.345703,-0.4482422 0.94336,-0.4482422 0.524414,0 0.814453,0.3574218 l 0.03223,-0.2988281 h 0.767579 v 3.0615235 q 0,0.6533204 -0.424805,1.0048824 -0.421875,0.351563 -1.101563,0.351563 z M 16.178965,8.453125 q 0,0.3808594 0.155273,0.6503906 0.158203,0.2666016 0.492188,0.2666016 0.386718,0 0.55664,-0.2929688 V 7.7470703 q -0.166992,-0.2900391 -0.550781,-0.2900391 -0.331055,0 -0.492188,0.272461 -0.161132,0.2695312 -0.161132,0.6621094 z"
       id="path125" />
    <path
       d="m 21.581308,9.484375 q -0.152343,0.2167969 -0.46289,0.3955078 -0.310547,0.1787112 -0.773438,0.1787112 -0.738281,0 -1.154297,-0.4453127 Q 18.774668,9.1650391 18.771738,8.5322266 V 8.4091797 q 0,-0.7177735 0.398438,-1.1777344 0.401367,-0.4599609 1.081054,-0.4599609 0.682617,0 1.040039,0.4277343 0.357422,0.4277344 0.357422,1.1308594 v 0.3603516 h -2.018555 q 0.04395,0.3076172 0.243165,0.4980469 0.199218,0.1875 0.524414,0.1875 0.483398,0 0.764648,-0.3544922 z M 20.245371,7.4541016 q -0.269531,0 -0.416016,0.1816406 -0.146484,0.1816406 -0.190429,0.4746094 H 20.81666 V 8.0458984 Q 20.810801,7.7910156 20.673105,7.6240234 20.53834,7.4541016 20.245371,7.4541016 Z"
       id="path127" />
    <path
       d="M 23.022715,5.5 V 10 h -0.84961 V 5.5 Z"
       id="path129" />
    <path
       d="m 26.415293,9.484375 q -0.152344,0.2167969 -0.462891,0.3955078 -0.310547,0.1787112 -0.773437,0.1787112 -0.738282,0 -1.154297,-0.4453127 Q 23.608652,9.1650391 23.605722,8.5322266 V 8.4091797 q 0,-0.7177735 0.398438,-1.1777344 0.401367,-0.4599609 1.081055,-0.4599609 0.682617,0 1.040039,0.4277343 0.357422,0.4277344 0.357422,1.1308594 v 0.3603516 h -2.018555 q 0.04395,0.3076172 0.243164,0.4980469 0.199219,0.1875 0.524414,0.1875 0.483398,0 0.764648,-0.3544922 z M 25.079355,7.4541016 q -0.269531,0 -0.416015,0.1816406 -0.146485,0.1816406 -0.19043,0.4746094 h 1.177734 V 8.0458984 Q 25.644785,7.7910156 25.50709,7.6240234 25.372324,7.4541016 25.079355,7.4541016 Z"
       id="path131" />
  </g>
  <g
     aria-label="double pendulum"
     id="text6"
     style="font-size:3px;font-family:Roboto;text-anchor:end;fill:#ffffbf">
    <path
       d="m 6.0713482,13 -0.013184,-0.169922 q -0.1625977,0.199219 -0.4526367,0.199219 -0.2783203,0 -0.4497071,-0.225586 -0.1713867,-0.225586 -0.1743164,-0.566895 v -0.04248 q 0,-0.363281 0.1713868,-0.585938 0.1728515,-0.222656 0.4555664,-0.222656 0.2797851,0 0.4394531,0.1875 V 10.75 H 6.3203716 V 13 Z M 5.2539654,12.225098 q 0,0.23584 0.099609,0.405761 0.099609,0.168457 0.3193359,0.168457 0.2519531,0 0.375,-0.22998 v -0.729492 q -0.121582,-0.225586 -0.3720703,-0.225586 -0.2211914,0 -0.3222656,0.172851 -0.099609,0.171387 -0.099609,0.407227 z"
       id="path134" />
    <path
       d="m 6.6690044,12.191406 q 0,-0.344238 0.1933594,-0.574218 0.1933594,-0.231446 0.5258789,-0.231446 0.3325196,0 0.5258789,0.227051 0.1933594,0.225586 0.1977539,0.563965 v 0.04834 q 0,0.344238 -0.1948242,0.574218 -0.1933594,0.229981 -0.5258789,0.229981 -0.3339844,0 -0.5288086,-0.229981 -0.1933594,-0.22998 -0.1933594,-0.574218 z m 0.2709961,0.03369 q 0,0.23584 0.1113282,0.408691 0.1127929,0.172852 0.3398437,0.172852 0.2211914,0 0.3339844,-0.169922 0.112793,-0.171387 0.1142578,-0.407227 v -0.03809 q 0,-0.23291 -0.112793,-0.407226 -0.1127929,-0.175782 -0.3383789,-0.175782 -0.2241211,0 -0.336914,0.175782 -0.1113282,0.174316 -0.1113282,0.407226 z"
       id="path136" />
    <path
       d="m 9.4346294,13 -0.00586,-0.156738 q -0.1552735,0.186035 -0.4628907,0.186035 -0.2329101,0 -0.3764648,-0.137695 Q 8.4458599,12.753906 8.4458599,12.4375 V 11.415039 H 8.716856 v 1.025391 q 0,0.213867 0.089355,0.287109 0.09082,0.07178 0.2021484,0.07178 0.3061524,0 0.4130859,-0.22998 v -1.154297 h 0.272461 V 13 Z"
       id="path138" />
    <path
       d="m 11.447325,12.225098 q 0,0.347168 -0.161133,0.575683 -0.161133,0.228516 -0.455566,0.228516 -0.300293,0 -0.462891,-0.212402 L 10.353086,13 h -0.249023 v -2.25 h 0.272461 v 0.836426 q 0.161133,-0.200684 0.451172,-0.200684 0.298828,0 0.458496,0.222656 0.161133,0.222657 0.161133,0.585938 z m -0.687012,-0.61084 q -0.147949,0 -0.240234,0.07178 -0.09229,0.07031 -0.143555,0.174317 v 0.689941 q 0.05273,0.105469 0.146484,0.177246 0.09375,0.07178 0.240235,0.07178 0.219726,0 0.314941,-0.168457 0.09668,-0.169921 0.09668,-0.405761 v -0.03076 q 0,-0.23584 -0.09228,-0.407227 -0.09082,-0.172851 -0.322266,-0.172851 z"
       id="path140" />
    <path
       d="M 12.084532,10.75 V 13 h -0.272461 v -2.25 z"
       id="path142" />
    <path
       d="m 13.773497,12.723145 q -0.07764,0.117187 -0.219727,0.212402 -0.14209,0.09375 -0.376465,0.09375 -0.331054,0 -0.530273,-0.215332 -0.197754,-0.215332 -0.197754,-0.550781 v -0.06152 q 0,-0.259277 0.09814,-0.440918 0.09961,-0.183105 0.257813,-0.27832 0.158203,-0.09668 0.336914,-0.09668 0.339844,0 0.495117,0.222656 0.156738,0.221192 0.156738,0.553711 v 0.121582 h -1.072265 q 0.0059,0.218262 0.128906,0.372071 0.124512,0.152343 0.341309,0.152343 0.143554,0 0.243164,-0.05859 0.09961,-0.05859 0.174316,-0.156739 z m -0.631348,-1.114747 q -0.161133,0 -0.272461,0.117188 -0.111328,0.117187 -0.13916,0.336914 h 0.79248 v -0.02051 q -0.01025,-0.158203 -0.09229,-0.295898 -0.08057,-0.137696 -0.288574,-0.137696 z"
       id="path144" />
    <path
       d="m 15.578184,13.029297 q -0.285644,0 -0.452637,-0.183106 v 0.763184 h -0.272461 v -2.194336 h 0.249024 l 0.01318,0.174316 q 0.166992,-0.203613 0.458496,-0.203613 0.300293,0 0.459961,0.222656 0.159668,0.222657 0.159668,0.585938 v 0.03076 q 0,0.347168 -0.161133,0.575683 -0.159668,0.228516 -0.454102,0.228516 z m -0.0835,-1.415039 q -0.246094,0 -0.369141,0.218262 v 0.758789 q 0.124512,0.215332 0.372071,0.215332 0.219726,0 0.320801,-0.172852 0.102539,-0.172851 0.102539,-0.408691 v -0.03076 q 0,-0.23584 -0.102539,-0.407227 -0.101075,-0.172851 -0.323731,-0.172851 z"
       id="path146" />
    <path
       d="m 17.793028,12.723145 q -0.07764,0.117187 -0.219727,0.212402 -0.14209,0.09375 -0.376465,0.09375 -0.331054,0 -0.530273,-0.215332 -0.197754,-0.215332 -0.197754,-0.550781 v -0.06152 q 0,-0.259277 0.09814,-0.440918 0.09961,-0.183105 0.257812,-0.27832 0.158203,-0.09668 0.336914,-0.09668 0.339844,0 0.495117,0.222656 0.156739,0.221192 0.156739,0.553711 v 0.121582 H 16.74127 q 0.0059,0.218262 0.128906,0.372071 0.124512,0.152343 0.341309,0.152343 0.143555,0 0.243164,-0.05859 0.09961,-0.05859 0.174316,-0.156739 z M 17.16168,11.608398 q -0.161133,0 -0.272461,0.117188 -0.111328,0.117187 -0.13916,0.336914 h 0.792481 v -0.02051 q -0.01025,-0.158203 -0.09229,-0.295898 -0.08057,-0.137696 -0.288574,-0.137696 z"
       id="path148" />
    <path
       d="m 18.787657,11.614258 q -0.130371,0 -0.229981,0.07031 -0.09961,0.07031 -0.156738,0.183106 V 13 h -0.270996 v -1.584961 h 0.256348 l 0.0088,0.197754 q 0.180175,-0.227051 0.473144,-0.227051 0.23291,0 0.369141,0.130371 0.137695,0.130371 0.13916,0.437989 V 13 h -0.272461 v -1.041504 q 0,-0.186035 -0.08203,-0.265137 -0.08057,-0.0791 -0.234375,-0.0791 z"
       id="path150" />
    <path
       d="m 20.809141,13 -0.01318,-0.169922 q -0.162598,0.199219 -0.452637,0.199219 -0.27832,0 -0.449707,-0.225586 -0.171387,-0.225586 -0.174317,-0.566895 v -0.04248 q 0,-0.363281 0.171387,-0.585938 0.172852,-0.222656 0.455567,-0.222656 0.279785,0 0.439453,0.1875 V 10.75 h 0.272461 V 13 Z m -0.817383,-0.774902 q 0,0.23584 0.09961,0.405761 0.09961,0.168457 0.319336,0.168457 0.251953,0 0.375,-0.22998 v -0.729492 q -0.121582,-0.225586 -0.372071,-0.225586 -0.221191,0 -0.322265,0.172851 -0.09961,0.171387 -0.09961,0.407227 z"
       id="path152" />
    <path
       d="m 22.461485,13 -0.0059,-0.156738 q -0.155274,0.186035 -0.462891,0.186035 -0.23291,0 -0.376465,-0.137695 -0.143555,-0.137696 -0.143555,-0.454102 v -1.022461 h 0.270996 v 1.025391 q 0,0.213867 0.08936,0.287109 0.09082,0.07178 0.202148,0.07178 0.306153,0 0.413086,-0.22998 v -1.154297 h 0.272461 V 13 Z"
       id="path154" />
    <path
       d="M 23.426817,10.75 V 13 h -0.272461 v -2.25 z"
       id="path156" />
    <path
       d="m 24.844786,13 -0.0059,-0.156738 q -0.155273,0.186035 -0.46289,0.186035 -0.23291,0 -0.376465,-0.137695 -0.143555,-0.137696 -0.143555,-0.454102 v -1.022461 h 0.270996 v 1.025391 q 0,0.213867 0.08936,0.287109 0.09082,0.07178 0.202148,0.07178 0.306153,0 0.413086,-0.22998 v -1.154297 h 0.272461 V 13 Z"
       id="path158" />
    <path
       d="m 26.149961,11.614258 q -0.266601,0 -0.364746,0.224121 V 13 h -0.272461 v -1.584961 h 0.257813 l 0.0073,0.172852 q 0.171387,-0.202149 0.46875,-0.202149 0.152344,0 0.270996,0.06152 0.120117,0.06006 0.183106,0.193359 0.0791,-0.114258 0.205078,-0.18457 0.127441,-0.07031 0.298828,-0.07031 0.254883,0 0.392578,0.136231 0.13916,0.13623 0.13916,0.436523 V 13 h -0.272461 v -1.044434 q 0,-0.199218 -0.09229,-0.269531 -0.09082,-0.07178 -0.246094,-0.07178 -0.164062,0 -0.257812,0.09814 -0.09375,0.09668 -0.108399,0.23584 V 13 H 26.48834 v -1.042969 q 0,-0.186035 -0.09229,-0.263672 -0.09229,-0.0791 -0.246094,-0.0791 z"
       id="path160" />
  </g>
  <g
     aria-label="simulator"
     id="text8"
     style="font-size:3px;font-family:Roboto;text-anchor:end;fill:#ffffbf">
    <path
       d="m 16.465879,15.57959 q 0,-0.08643 -0.06445,-0.155274 -0.06299,-0.07031 -0.292968,-0.117187 -0.265137,-0.0542 -0.421875,-0.156738 -0.156739,-0.104004 -0.156739,-0.301758 0,-0.1875 0.159668,-0.325195 0.161133,-0.137696 0.427735,-0.137696 0.284179,0 0.443847,0.14502 0.159668,0.145019 0.159668,0.350097 h -0.270996 q 0,-0.09814 -0.08643,-0.18457 -0.08643,-0.08789 -0.246093,-0.08789 -0.168457,0 -0.2417,0.07324 -0.07324,0.07324 -0.07324,0.159668 0,0.08642 0.06738,0.140625 0.06885,0.05273 0.290039,0.102539 0.291504,0.06592 0.433594,0.172851 0.143555,0.106934 0.143555,0.301758 0,0.209473 -0.168457,0.339844 -0.166993,0.130371 -0.443848,0.130371 -0.314942,0 -0.481934,-0.161133 -0.166992,-0.161133 -0.166992,-0.357422 h 0.272461 q 0.0088,0.168457 0.128906,0.23291 0.121582,0.06299 0.247559,0.06299 0.165527,0 0.253418,-0.06445 0.08789,-0.06445 0.08789,-0.162598 z"
       id="path163" />
    <path
       d="m 17.092833,13.994629 q 0,-0.06592 0.03955,-0.111328 0.04102,-0.04541 0.120118,-0.04541 0.07764,0 0.118652,0.04541 0.04248,0.04541 0.04248,0.111328 0,0.06299 -0.04248,0.108398 -0.04102,0.04395 -0.118652,0.04395 -0.0791,0 -0.120118,-0.04395 -0.03955,-0.04541 -0.03955,-0.108398 z m 0.292968,0.42041 V 16 H 17.11334 v -1.584961 z"
       id="path165" />
    <path
       d="m 18.455137,14.614258 q -0.266601,0 -0.364746,0.224121 V 16 H 17.81793 v -1.584961 h 0.257813 l 0.0073,0.172852 q 0.171387,-0.202149 0.46875,-0.202149 0.152344,0 0.270996,0.06152 0.120117,0.06006 0.183106,0.193359 0.0791,-0.114258 0.205078,-0.18457 0.127441,-0.07031 0.298828,-0.07031 0.254883,0 0.392578,0.136231 0.13916,0.13623 0.13916,0.436523 V 16 h -0.272461 v -1.044434 q 0,-0.199218 -0.09229,-0.269531 -0.09082,-0.07178 -0.246094,-0.07178 -0.164062,0 -0.257812,0.09814 -0.09375,0.09668 -0.108399,0.23584 V 16 h -0.270996 v -1.042969 q 0,-0.186035 -0.09229,-0.263672 -0.09229,-0.0791 -0.246094,-0.0791 z"
       id="path167" />
    <path
       d="m 21.434629,16 -0.0059,-0.156738 q -0.155273,0.186035 -0.462891,0.186035 -0.23291,0 -0.376464,-0.137695 Q 20.44586,15.753906 20.44586,15.4375 v -1.022461 h 0.270996 v 1.025391 q 0,0.213867 0.08936,0.287109 0.09082,0.07178 0.202149,0.07178 0.306152,0 0.413086,-0.22998 v -1.154297 h 0.272461 V 16 Z"
       id="path169" />
    <path
       d="M 22.399961,13.75 V 16 h -0.27246 v -2.25 z"
       id="path171" />
    <path
       d="m 23.813536,16 q -0.02637,-0.05713 -0.03809,-0.166992 -0.07617,0.08057 -0.19043,0.13916 -0.114258,0.05713 -0.260742,0.05713 -0.243164,0 -0.389649,-0.136231 -0.146484,-0.13623 -0.146484,-0.333984 0,-0.254883 0.193359,-0.386719 0.19336,-0.1333 0.52002,-0.1333 h 0.268066 v -0.125977 q 0,-0.140625 -0.08496,-0.224121 -0.0835,-0.08496 -0.249023,-0.08496 -0.153809,0 -0.249023,0.07617 -0.09375,0.07471 -0.09375,0.174316 h -0.270997 q 0,-0.169922 0.171387,-0.319336 0.171387,-0.149414 0.458496,-0.149414 0.257813,0 0.42334,0.131836 0.165527,0.131836 0.165527,0.398438 v 0.711914 q 0,0.219726 0.05566,0.348633 V 16 Z m -0.449707,-0.208008 q 0.146484,0 0.253418,-0.07324 0.108398,-0.07324 0.152343,-0.162598 v -0.32666 h -0.251953 q -0.457031,0.0088 -0.457031,0.292969 0,0.112793 0.07617,0.191894 0.07617,0.07764 0.227051,0.07764 z"
       id="path173" />
    <path
       d="m 25.137754,16 q -0.09229,0.0293 -0.209472,0.0293 -0.150879,0 -0.257813,-0.09229 -0.106933,-0.09228 -0.106933,-0.331055 v -0.98291 h -0.290039 v -0.208008 h 0.290039 v -0.385254 h 0.270996 v 0.385254 h 0.295898 v 0.208008 h -0.295898 v 0.984375 q 0,0.121582 0.05273,0.155273 0.05273,0.03369 0.121582,0.03369 0.05127,0 0.127442,-0.01758 z"
       id="path175" />
    <path
       d="m 25.347227,15.191406 q 0,-0.344238 0.193359,-0.574218 0.19336,-0.231446 0.525879,-0.231446 0.33252,0 0.525879,0.227051 0.19336,0.225586 0.197754,0.563965 v 0.04834 q 0,0.344238 -0.194824,0.574218 -0.193359,0.229981 -0.525879,0.229981 -0.333984,0 -0.528809,-0.229981 -0.193359,-0.22998 -0.193359,-0.574218 z m 0.270996,0.03369 q 0,0.23584 0.111328,0.408691 0.112793,0.172852 0.339844,0.172852 0.221191,0 0.333984,-0.169922 0.112793,-0.171387 0.114258,-0.407227 v -0.03809 q 0,-0.23291 -0.112793,-0.407226 -0.112793,-0.175782 -0.338379,-0.175782 -0.224121,0 -0.336914,0.175782 -0.111328,0.174316 -0.111328,0.407226 z"
       id="path177" />
    <path
       d="m 27.762754,14.646484 q -0.265136,0 -0.361816,0.228516 V 16 h -0.270996 v -1.584961 h 0.263672 l 0.0059,0.181641 q 0.130371,-0.210938 0.376465,-0.210938 0.07617,0 0.120117,0.02051 l -0.0015,0.251953 q -0.06006,-0.01172 -0.131836,-0.01172 z"
       id="path179" />
  </g>
  <g
     aria-label="van Ties"
     id="text10"
     style="font-size:3px;font-family:Roboto;text-anchor:middle;fill:#ffffbf">
    <path
       d="M 6.0269432,125.41504 5.457119,127 H 5.250576 l -0.5742187,-1.58496 h 0.2783203 l 0.402832,1.21435 0.3925781,-1.21435 z"
       id="path182" />
    <path
       d="m 7.2442284,127 q -0.026367,-0.0571 -0.038086,-0.16699 -0.076172,0.0806 -0.1904297,0.13916 -0.1142578,0.0571 -0.2607421,0.0571 -0.2431641,0 -0.3896485,-0.13623 -0.1464844,-0.13623 -0.1464844,-0.33399 0,-0.25488 0.1933594,-0.38672 0.1933594,-0.1333 0.5200195,-0.1333 h 0.2680665 v -0.12597 q 0,-0.14063 -0.084961,-0.22413 -0.083496,-0.085 -0.2490234,-0.085 -0.1538086,0 -0.2490235,0.0762 -0.09375,0.0747 -0.09375,0.17431 H 6.2525291 q 0,-0.16992 0.1713868,-0.31933 0.1713867,-0.14942 0.4584961,-0.14942 0.2578125,0 0.4233398,0.13184 0.1655273,0.13183 0.1655273,0.39844 v 0.71191 q 0,0.21973 0.055664,0.34863 V 127 Z m -0.4497071,-0.20801 q 0.1464844,0 0.253418,-0.0732 0.1083984,-0.0732 0.1523438,-0.1626 v -0.32666 H 6.9483299 q -0.4570312,0.009 -0.4570312,0.29297 0,0.11279 0.076172,0.1919 0.076172,0.0776 0.2270507,0.0776 z"
       id="path184" />
    <path
       d="m 8.5552635,125.61426 q -0.1303711,0 -0.2299804,0.0703 -0.099609,0.0703 -0.1567383,0.18311 V 127 H 7.8975487 v -1.58496 h 0.2563476 l 0.00879,0.19775 q 0.1801758,-0.22705 0.4731445,-0.22705 0.2329102,0 0.3691407,0.13037 0.1376953,0.13037 0.1391601,0.43799 V 127 H 8.8716698 v -1.0415 q 0,-0.18604 -0.082031,-0.26514 -0.080566,-0.0791 -0.234375,-0.0791 z"
       id="path186" />
    <path
       d="m 10.106533,125.09863 v -0.23144 h 1.647949 v 0.23144 H 11.068935 V 127 h -0.27832 v -1.90137 z"
       id="path188" />
    <path
       d="m 12.031338,124.99463 q 0,-0.0659 0.03955,-0.11133 0.04101,-0.0454 0.120117,-0.0454 0.07764,0 0.118652,0.0454 0.04248,0.0454 0.04248,0.11133 0,0.063 -0.04248,0.1084 -0.04102,0.0439 -0.118652,0.0439 -0.0791,0 -0.120117,-0.0439 -0.03955,-0.0454 -0.03955,-0.1084 z m 0.292968,0.42041 V 127 h -0.27246 v -1.58496 z"
       id="path190" />
    <path
       d="m 14.013271,126.72314 q -0.07764,0.11719 -0.219726,0.21241 -0.14209,0.0937 -0.376465,0.0937 -0.331055,0 -0.530274,-0.21534 -0.197753,-0.21533 -0.197753,-0.55078 v -0.0615 q 0,-0.25928 0.09814,-0.44092 0.09961,-0.1831 0.257813,-0.27832 0.158203,-0.0967 0.336914,-0.0967 0.339843,0 0.495117,0.22266 0.156738,0.22119 0.156738,0.55371 v 0.12158 h -1.072265 q 0.0059,0.21826 0.128906,0.37207 0.124511,0.15235 0.341308,0.15235 0.143555,0 0.243164,-0.0586 0.09961,-0.0586 0.174317,-0.15674 z m -0.631347,-1.11474 q -0.161133,0 -0.272461,0.11719 -0.111328,0.11718 -0.13916,0.33691 h 0.79248 v -0.0205 q -0.01025,-0.1582 -0.09229,-0.2959 -0.08057,-0.13769 -0.288574,-0.13769 z"
       id="path192" />
    <path
       d="m 15.273037,126.57959 q 0,-0.0864 -0.06445,-0.15527 -0.06299,-0.0703 -0.292969,-0.11719 -0.265137,-0.0542 -0.421875,-0.15674 -0.156738,-0.104 -0.156738,-0.30176 0,-0.1875 0.159668,-0.32519 0.161133,-0.1377 0.427734,-0.1377 0.28418,0 0.443848,0.14502 0.159668,0.14502 0.159668,0.3501 h -0.270996 q 0,-0.0982 -0.08643,-0.18457 -0.08643,-0.0879 -0.246094,-0.0879 -0.168457,0 -0.241699,0.0732 -0.07324,0.0732 -0.07324,0.15967 0,0.0864 0.06738,0.14062 0.06885,0.0527 0.290039,0.10254 0.291504,0.0659 0.433593,0.17285 0.143555,0.10694 0.143555,0.30176 0,0.20947 -0.168457,0.33985 -0.166992,0.13037 -0.443848,0.13037 -0.314941,0 -0.481933,-0.16114 -0.166992,-0.16113 -0.166992,-0.35742 h 0.272461 q 0.0088,0.16846 0.128906,0.23291 0.121582,0.063 0.247558,0.063 0.165528,0 0.253418,-0.0645 0.08789,-0.0645 0.08789,-0.1626 z"
       id="path194" />
  </g>
  <path
     id="polygon12"
     style="fill:#ffffbf"
     d="m 11.482917,99 37.674166,0 A 1.3229167,1.3229167 45 0 1 50.48,100.32292 v 19.35416 A 1.3229167,1.3229167 135 0 1 49.157083,121 l -37.674166,0 A 1.3229167,1.3229167 45 0 1 10.16,119.67708 V 100.32292 A 1.3229167,1.3229167 135 0 1 11.482917,99 Z"
     inkscape:path-effect="#path-effect1"
     inkscape:original-d="m 10.16,99 h 40.32 v 22 H 10.16 Z" />
  <path
     style="color:#000000;fill:#ffffbf;stroke-linecap:round;stroke-dasharray:0.1, 0.7;-inkscape-stroke:none"
     d="m 7.6210937,82.9375 a 0.0625,0.0625 0 0 0 -0.064453,0.06055 v 0.08789 a 0.0625,0.0625 0 0 0 0.060547,0.06445 0.0625,0.0625 0 0 0 0.064453,-0.06055 v -0.08789 A 0.0625,0.0625 0 0 0 7.6210937,82.9375 Z m -0.1132812,0.777344 a 0.0625,0.0625 0 0 0 -0.080078,0.03906 l -0.00391,0.01172 -0.029297,0.08008 a 0.0625,0.0625 0 0 0 0.037109,0.08008 0.0625,0.0625 0 0 0 0.080078,-0.03711 l 0.03125,-0.08203 0.00391,-0.01367 a 0.0625,0.0625 0 0 0 -0.039063,-0.07813 z m -0.34375,0.71875 a 0.0625,0.0625 0 0 0 -0.087891,0.01758 l -0.054687,0.08203 a 0.0625,0.0625 0 0 0 0.015625,0.08594 0.0625,0.0625 0 0 0 0.085937,-0.01563 l 0.056641,-0.08203 a 0.0625,0.0625 0 0 0 -0.015625,-0.08789 z m -0.4785156,0.640625 a 0.0625,0.0625 0 0 0 -0.087891,0.0098 l -0.058594,0.07031 -0.00391,0.0039 a 0.0625,0.0625 0 0 0 0.00586,0.08984 0.0625,0.0625 0 0 0 0.087891,-0.0078 l 0.00586,-0.0059 0.058594,-0.07031 a 0.0625,0.0625 0 0 0 -0.00781,-0.08984 z m -0.5644532,0.59375 a 0.0625,0.0625 0 0 0 -0.042969,0.02148 l -0.013672,0.01563 -0.050781,0.0625 a 0.0625,0.0625 0 0 0 0.00781,0.08789 0.0625,0.0625 0 0 0 0.087891,-0.0078 l 0.050781,-0.06055 0.013672,-0.01563 a 0.0625,0.0625 0 0 0 -0.00781,-0.08789 0.0625,0.0625 0 0 0 -0.044922,-0.01563 z m -0.4511718,0.642578 a 0.0625,0.0625 0 0 0 -0.087891,0.01563 l -0.054687,0.08398 a 0.0625,0.0625 0 0 0 0.015625,0.08594 0.0625,0.0625 0 0 0 0.085937,-0.01563 l 0.056641,-0.08398 a 0.0625,0.0625 0 0 0 -0.015625,-0.08594 z m -0.4433594,0.693359 a 0.0625,0.0625 0 0 0 -0.033203,0.03516 l -0.00586,0.0098 -0.029297,0.08398 -0.00195,0.002 a 0.0625,0.0625 0 0 0 0.039063,0.08008 0.0625,0.0625 0 0 0 0.080078,-0.03906 v -0.002 l 0.029297,-0.08008 0.00391,-0.0078 a 0.0625,0.0625 0 0 0 -0.035156,-0.08203 0.0625,0.0625 0 0 0 -0.046875,0 z m -0.140625,0.773438 a 0.0625,0.0625 0 0 0 -0.066406,0.05859 v 0.0078 l -0.00195,0.0957 a 0.0625,0.0625 0 0 0 0.060547,0.0625 0.0625,0.0625 0 0 0 0.064453,-0.06055 l 0.00195,-0.0918 v -0.0059 a 0.0625,0.0625 0 0 0 -0.058594,-0.06641 z"
     id="path14" />
  <path
     style="color:#000000;fill:#ffffbf;stroke-linecap:round;stroke-dasharray:0.1, 0.7;-inkscape-stroke:none"
     d="m 15.240234,54.976562 a 0.0625,0.0625 0 0 0 -0.0625,0.0625 v 0.101563 a 0.0625,0.0625 0 0 0 0.0625,0.0625 0.0625,0.0625 0 0 0 0.0625,-0.0625 v -0.101563 a 0.0625,0.0625 0 0 0 -0.0625,-0.0625 z m 0,0.800782 a 0.0625,0.0625 0 0 0 -0.0625,0.0625 v 0.09961 a 0.0625,0.0625 0 0 0 0.0625,0.0625 0.0625,0.0625 0 0 0 0.0625,-0.0625 v -0.09961 a 0.0625,0.0625 0 0 0 -0.0625,-0.0625 z m 0,0.800781 a 0.0625,0.0625 0 0 0 -0.0625,0.0625 v 0.09961 a 0.0625,0.0625 0 0 0 0.0625,0.0625 0.0625,0.0625 0 0 0 0.0625,-0.0625 v -0.09961 a 0.0625,0.0625 0 0 0 -0.0625,-0.0625 z m 0,0.798828 a 0.0625,0.0625 0 0 0 -0.0625,0.0625 v 0.09961 a 0.0625,0.0625 0 0 0 0.0625,0.0625 0.0625,0.0625 0 0 0 0.0625,-0.0625 v -0.09961 a 0.0625,0.0625 0 0 0 -0.0625,-0.0625 z m 0,0.800781 a 0.0625,0.0625 0 0 0 -0.0625,0.0625 v 0.09961 a 0.0625,0.0625 0 0 0 0.0625,0.0625 0.0625,0.0625 0 0 0 0.0625,-0.0625 v -0.09961 a 0.0625,0.0625 0 0 0 -0.0625,-0.0625 z m 0,0.798828 a 0.0625,0.0625 0 0 0 -0.0625,0.0625 v 0.101563 a 0.0625,0.0625 0 0 0 0.0625,0.0625 0.0625,0.0625 0 0 0 0.0625,-0.0625 v -0.101563 a 0.0625,0.0625 0 0 0 -0.0625,-0.0625 z m 0,0.800782 a 0.0625,0.0625 0 0 0 -0.0625,0.0625 v 0.09961 a 0.0625,0.0625 0 0 0 0.0625,0.0625 0.0625,0.0625 0 0 0 0.0625,-0.0625 v -0.09961 a 0.0625,0.0625 0 0 0 -0.0625,-0.0625 z m 0,0.800781 a 0.0625,0.0625 0 0 0 -0.0625,0.0625 v 0.09961 a 0.0625,0.0625 0 0 0 0.0625,0.0625 0.0625,0.0625 0 0 0 0.0625,-0.0625 v -0.09961 a 0.0625,0.0625 0 0 0 -0.0625,-0.0625 z m 0,0.798828 a 0.0625,0.0625 0 0 0 -0.0625,0.0625 v 0.09961 a 0.0625,0.0625 0 0 0 0.0625,0.0625 0.0625,0.0625 0 0 0 0.0625,-0.0625 v -0.09961 a 0.0625,0.0625 0 0 0 -0.0625,-0.0625 z m 0,0.800781 a 0.0625,0.0625 0 0 0 -0.0625,0.0625 v 0.09961 a 0.0625,0.0625 0 0 0 0.0625,0.0625 0.0625,0.0625 0 0 0 0.0625,-0.0625 v -0.09961 a 0.0625,0.0625 0 0 0 -0.0625,-0.0625 z m 0,0.798828 a 0.0625,0.0625 0 0 0 -0.0625,0.0625 v 0.101563 a 0.0625,0.0625 0 0 0 0.0625,0.0625 0.0625,0.0625 0 0 0 0.0625,-0.0625 v -0.101563 a 0.0625,0.0625 0 0 0 -0.0625,-0.0625 z m 0,0.800782 a 0.0625,0.0625 0 0 0 -0.0625,0.0625 v 0.09961 a 0.0625,0.0625 0 0 0 0.0625,0.0625 0.0625,0.0625 0 0 0 0.0625,-0.0625 v -0.09961 a 0.0625,0.0625 0 0 0 -0.0625,-0.0625 z m 0,0.800781 a 0.0625,0.0625 0 0 0 -0.0625,0.0625 v 0.09961 a 0.0625,0.0625 0 0 0 0.0625,0.0625 0.0625,0.0625 0 0 0 0.0625,-0.0625 v -0.09961 a 0.0625,0.0625 0 0 0 -0.0625,-0.0625 z m 0,0.798828 a 0.0625,0.0625 0 0 0 -0.0625,0.0625 v 0.09961 a 0.0625,0.0625 0 0 0 0.0625,0.0625 0.0625,0.0625 0 0 0 0.0625,-0.0625 v -0.09961 a 0.0625,0.0625 0 0 0 -0.0625,-0.0625 z m 0,0.800781 a 0.0625,0.0625 0 0 0 -0.0625,0.0625 v 0.09961 a 0.0625,0.0625 0 0 0 0.0625,0.0625 0.0625,0.0625 0 0 0 0.0625,-0.0625 v -0.09961 a 0.0625,0.0625 0 0 0 -0.0625,-0.0625 z m 0,0.798828 a 0.0625,0.0625 0 0 0 -0.0625,0.0625 v 0.101563 a 0.0625,0.0625 0 0 0 0.0625,0.0625 0.0625,0.0625 0 0 0 0.0625,-0.0625 v -0.101563 a 0.0625,0.0625 0 0 0 -0.0625,-0.0625 z m 0,0.800782 a 0.0625,0.0625 0 0 0 -0.0625,0.0625 v 0.09961 a 0.0625,0.0625 0 0 0 0.0625,0.0625 0.0625,0.0625 0 0 0 0.0625,-0.0625 v -0.09961 a 0.0625,0.0625 0 0 0 -0.0625,-0.0625 z m 0,0.800781 a 0.0625,0.0625 0 0 0 -0.0625,0.0625 v 0.09961 a 0.0625,0.0625 0 0 0 0.0625,0.0625 0.0625,0.0625 0 0 0 0.0625,-0.0625 v -0.09961 a 0.0625,0.0625 0 0 0 -0.0625,-0.0625 z m 0,0.798828 a 0.0625,0.0625 0 0 0 -0.0625,0.0625 v 0.09961 a 0.0625,0.0625 0 0 0 0.0625,0.0625 0.0625,0.0625 0 0 0 0.0625,-0.0625 v -0.09961 a 0.0625,0.0625 0 0 0 -0.0625,-0.0625 z m 0,0.800781 a 0.0625,0.0625 0 0 0 -0.0625,0.0625 v 0.09961 a 0.0625,0.0625 0 0 0 0.0625,0.0625 0.0625,0.0625 0 0 0 0.0625,-0.0625 v -0.09961 a 0.0625,0.0625 0 0 0 -0.0625,-0.0625 z m 0,0.798828 a 0.0625,0.0625 0 0 0 -0.0625,0.0625 v 0.101563 a 0.0625,0.0625 0 0 0 0.0625,0.0625 0.0625,0.0625 0 0 0 0.0625,-0.0625 v -0.101563 a 0.0625,0.0625 0 0 0 -0.0625,-0.0625 z m 0,0.800782 a 0.0625,0.0625 0 0 0 -0.0625,0.0625 v 0.09961 a 0.0625,0.0625 0 0 0 0.0625,0.0625 0.0625,0.0625 0 0 0 0.0625,-0.0625 v -0.09961 a 0.0625,0.0625 0 0 0 -0.0625,-0.0625 z m 0,0.800781 a 0.0625,0.0625 0 0 0 -0.0625,0.0625 v 0.09961 a 0.0625,0.0625 0 0 0 0.0625,0.0625 0.0625,0.0625 0 0 0 0.0625,-0.0625 v -0.09961 a 0.0625,0.0625 0 0 0 -0.0625,-0.0625 z m 0,0.798828 a 0.0625,0.0625 0 0 0 -0.0625,0.0625 v 0.09961 a 0.0625,0.0625 0 0 0 0.0625,0.0625 0.0625,0.0625 0 0 0 0.0625,-0.0625 v -0.09961 a 0.0625,0.0625 0 0 0 -0.0625,-0.0625 z m 0,0.800781 a 0.0625,0.0625 0 0 0 -0.0625,0.0625 v 0.09961 a 0.0625,0.0625 0 0 0 0.0625,0.0625 0.0625,0.0625 0 0 0 0.0625,-0.0625 v -0.09961 a 0.0625,0.0625 0 0 0 -0.0625,-0.0625 z m 0,0.798828 a 0.0625,0.0625 0 0 0 -0.0625,0.0625 v 0.101563 a 0.0625,0.0625 0 0 0 0.0625,0.0625 0.0625,0.0625 0 0 0 0.0625,-0.0625 v -0.101563 a 0.0625,0.0625 0 0 0 -0.0625,-0.0625 z m 0,0.800782 a 0.0625,0.0625 0 0 0 -0.0625,0.0625 v 0.09961 a 0.0625,0.0625 0 0 0 0.0625,0.0625 0.0625,0.0625 0 0 0 0.0625,-0.0625 v -0.09961 a 0.0625,0.0625 0 0 0 -0.0625,-0.0625 z m 0,0.800781 a 0.0625,0.0625 0 0 0 -0.0625,0.0625 v 0.09961 a 0.0625,0.0625 0 0 0 0.0625,0.0625 0.0625,0.0625 0 0 0 0.0625,-0.0625 v -0.09961 a 0.0625,0.0625 0 0 0 -0.0625,-0.0625 z m 0,0.798828 a 0.0625,0.0625 0 0 0 -0.0625,0.0625 v 0.09961 a 0.0625,0.0625 0 0 0 0.0625,0.0625 0.0625,0.0625 0 0 0 0.0625,-0.0625 v -0.09961 a 0.0625,0.0625 0 0 0 -0.0625,-0.0625 z m 0,0.800781 a 0.0625,0.0625 0 0 0 -0.0625,0.0625 v 0.09961 a 0.0625,0.0625 0 0 0 0.0625,0.0625 0.0625,0.0625 0 0 0 0.0625,-0.0625 v -0.09961 a 0.0625,0.0625 0 0 0 -0.0625,-0.0625 z m 0,0.798828 a 0.0625,0.0625 0 0 0 -0.0625,0.0625 v 0.101563 a 0.0625,0.0625 0 0 0 0.0625,0.0625 0.0625,0.0625 0 0 0 0.0625,-0.0625 v -0.101563 a 0.0625,0.0625 0 0 0 -0.0625,-0.0625 z m 0,0.800782 a 0.0625,0.0625 0 0 0 -0.0625,0.0625 v 0.09961 a 0.0625,0.0625 0 0 0 0.0625,0.0625 0.0625,0.0625 0 0 0 0.0625,-0.0625 v -0.09961 a 0.0625,0.0625 0 0 0 -0.0625,-0.0625 z m 0,0.800781 a 0.0625,0.0625 0 0 0 -0.0625,0.0625 v 0.09961 a 0.0625,0.0625 0 0 0 0.0625,0.0625 0.0625,0.0625 0 0 0 0.0625,-0.0625 v -0.09961 a 0.0625,0.0625 0 0 0 -0.0625,-0.0625 z m 0,0.798828 a 0.0625,0.0625 0 0 0 -0.0625,0.0625 v 0.09961 a 0.0625,0.0625 0 0 0 0.0625,0.0625 0.0625,0.0625 0 0 0 0.0625,-0.0625 v -0.09961 a 0.0625,0.0625 0 0 0 -0.0625,-0.0625 z m 0,0.800781 a 0.0625,0.0625 0 0 0 -0.0625,0.0625 v 0.09961 a 0.0625,0.0625 0 0 0 0.0625,0.0625 0.0625,0.0625 0 0 0 0.0625,-0.0625 v -0.09961 a 0.0625,0.0625 0 0 0 -0.0625,-0.0625 z m 0,0.798828 a 0.0625,0.0625 0 0 0 -0.0625,0.0625 v 0.101563 a 0.0625,0.0625 0 0 0 0.0625,0.0625 0.0625,0.0625 0 0 0 0.0625,-0.0625 v -0.101563 a 0.0625,0.0625 0 0 0 -0.0625,-0.0625 z m 0,0.800782 a 0.0625,0.0625 0 0 0 -0.0625,0.0625 v 0.09961 a 0.0625,0.0625 0 0 0 0.0625,0.0625 0.0625,0.0625 0 0 0 0.0625,-0.0625 v -0.09961 a 0.0625,0.0625 0 0 0 -0.0625,-0.0625 z m 0,0.800781 a 0.0625,0.0625 0 0 0 -0.0625,0.0625 v 0.09961 a 0.0625,0.0625 0 0 0 0.0625,0.0625 0.0625,0.0625 0 0 0 0.0625,-0.0625 v -0.09961 a 0.0625,0.0625 0 0 0 -0.0625,-0.0625 z m 0,0.798828 a 0.0625,0.0625 0 0 0 -0.0625,0.0625 v 0.09961 a 0.0625,0.0625 0 0 0 0.0625,0.0625 0.0625,0.0625 0 0 0 0.0625,-0.0625 v -0.09961 a 0.0625,0.0625 0 0 0 -0.0625,-0.0625 z m 0,0.800781 a 0.0625,0.0625 0 0 0 -0.0625,0.0625 v 0.09961 a 0.0625,0.0625 0 0 0 0.0625,0.0625 0.0625,0.0625 0 0 0 0.0625,-0.0625 v -0.09961 a 0.0625,0.0625 0 0 0 -0.0625,-0.0625 z m 0,0.798828 a 0.0625,0.0625 0 0 0 -0.0625,0.0625 v 0.101563 a 0.0625,0.0625 0 0 0 0.0625,0.0625 0.0625,0.0625 0 0 0 0.0625,-0.0625 v -0.101563 a 0.0625,0.0625 0 0 0 -0.0625,-0.0625 z m 0,0.800782 a 0.0625,0.0625 0 0 0 -0.0625,0.0625 v 0.09961 a 0.0625,0.0625 0 0 0 0.0625,0.0625 0.0625,0.0625 0 0 0 0.0625,-0.0625 v -0.09961 a 0.0625,0.0625 0 0 0 -0.0625,-0.0625 z"
     id="path16" />
  <path
     style="color:#000000;fill:#ffffbf;stroke-linecap:round;stroke-dasharray:0.1, 0.7;-inkscape-stroke:none"
     d="m 22.859375,82.9375 a 0.0625,0.0625 0 0 0 -0.0625,0.06445 l 0.002,0.08789 a 0.0625,0.0625 0 0 0 0.06445,0.06055 0.0625,0.0625 0 0 0 0.06055,-0.06445 l -0.002,-0.08789 a 0.0625,0.0625 0 0 0 -0.0625,-0.06055 z m 0.113281,0.777344 a 0.0625,0.0625 0 0 0 -0.03906,0.07813 l 0.0039,0.01367 0.0293,0.08203 a 0.0625,0.0625 0 0 0 0.08203,0.03711 0.0625,0.0625 0 0 0 0.03516,-0.08008 l -0.0293,-0.08008 -0.0039,-0.01172 a 0.0625,0.0625 0 0 0 -0.07813,-0.03906 z m 0.390625,0.708984 a 0.0625,0.0625 0 0 0 -0.04687,0.0098 0.0625,0.0625 0 0 0 -0.01758,0.08789 l 0.05664,0.08203 a 0.0625,0.0625 0 0 0 0.08789,0.01563 0.0625,0.0625 0 0 0 0.01563,-0.08594 l -0.05664,-0.08203 a 0.0625,0.0625 0 0 0 -0.03906,-0.02734 z m 0.431641,0.650391 a 0.0625,0.0625 0 0 0 -0.0098,0.08984 l 0.06055,0.07031 0.0059,0.0059 a 0.0625,0.0625 0 0 0 0.08789,0.0078 0.0625,0.0625 0 0 0 0.0059,-0.08984 l -0.0039,-0.0039 -0.05859,-0.07031 a 0.0625,0.0625 0 0 0 -0.08789,-0.0098 z m 0.517578,0.609375 a 0.0625,0.0625 0 0 0 -0.0059,0.08789 l 0.01172,0.01563 0.05273,0.06055 a 0.0625,0.0625 0 0 0 0.08789,0.0078 0.0625,0.0625 0 0 0 0.0078,-0.08789 l -0.05273,-0.0625 -0.01172,-0.01563 a 0.0625,0.0625 0 0 0 -0.08984,-0.0059 z m 0.498047,0.626953 a 0.0625,0.0625 0 0 0 -0.01758,0.08594 l 0.05664,0.08398 a 0.0625,0.0625 0 0 0 0.08789,0.01563 0.0625,0.0625 0 0 0 0.01563,-0.08594 l -0.05664,-0.08398 a 0.0625,0.0625 0 0 0 -0.08594,-0.01563 z m 0.394531,0.693359 a 0.0625,0.0625 0 0 0 -0.0332,0.08203 l 0.0039,0.0078 0.0293,0.08008 v 0.002 a 0.0625,0.0625 0 0 0 0.07813,0.03906 0.0625,0.0625 0 0 0 0.04102,-0.08008 l -0.002,-0.002 -0.03125,-0.08398 -0.0039,-0.0098 a 0.0625,0.0625 0 0 0 -0.08203,-0.03516 z m 0.189453,0.773438 a 0.0625,0.0625 0 0 0 -0.05859,0.06641 v 0.0059 l 0.002,0.0918 a 0.0625,0.0625 0 0 0 0.0625,0.06055 0.0625,0.0625 0 0 0 0.0625,-0.0625 l -0.002,-0.0957 v -0.0078 a 0.0625,0.0625 0 0 0 -0.06641,-0.05859 z"
     id="path18" />
  <g
     aria-label="start"
     id="text20"
     style="font-size:3px;font-family:Roboto;dominant-baseline:middle;text-anchor:middle;fill:#ffffbf">
    <path
       d="m 13.252939,54.37207 q 0,-0.08642 -0.06445,-0.155273 -0.06299,-0.07031 -0.292969,-0.117188 -0.265136,-0.0542 -0.421875,-0.156738 -0.156738,-0.104004 -0.156738,-0.301758 0,-0.1875 0.159668,-0.325195 0.161133,-0.137695 0.427734,-0.137695 0.28418,0 0.443848,0.145019 0.159668,0.14502 0.159668,0.350098 h -0.270996 q 0,-0.09815 -0.08643,-0.18457 -0.08643,-0.08789 -0.246094,-0.08789 -0.168457,0 -0.241699,0.07324 -0.07324,0.07324 -0.07324,0.159668 0,0.08643 0.06738,0.140625 0.06885,0.05273 0.290039,0.102539 0.291504,0.06592 0.433594,0.172852 0.143554,0.106933 0.143554,0.301757 0,0.209473 -0.168457,0.339844 -0.166992,0.130371 -0.443847,0.130371 -0.314942,0 -0.481934,-0.161132 -0.166992,-0.161133 -0.166992,-0.357422 h 0.272461 q 0.0088,0.168457 0.128906,0.23291 0.121582,0.06299 0.247559,0.06299 0.165527,0 0.253418,-0.06445 0.08789,-0.06445 0.08789,-0.162598 z"
       id="path198" />
    <path
       d="m 14.549326,54.79248 q -0.09229,0.0293 -0.209473,0.0293 -0.150879,0 -0.257812,-0.09228 -0.106934,-0.09229 -0.106934,-0.331055 v -0.98291 H 13.685068 V 53.20752 h 0.290039 v -0.385254 h 0.270996 v 0.385254 h 0.295899 v 0.208007 h -0.295899 v 0.984375 q 0,0.121582 0.05274,0.155274 0.05273,0.03369 0.121582,0.03369 0.05127,0 0.127441,-0.01758 z"
       id="path200" />
    <path
       d="m 15.838388,54.79248 q -0.02637,-0.05713 -0.03809,-0.166992 -0.07617,0.08057 -0.19043,0.13916 -0.114258,0.05713 -0.260742,0.05713 -0.243164,0 -0.389649,-0.13623 -0.146484,-0.136231 -0.146484,-0.333985 0,-0.254882 0.193359,-0.386718 0.19336,-0.133301 0.52002,-0.133301 h 0.268066 v -0.125977 q 0,-0.140625 -0.08496,-0.224121 -0.0835,-0.08496 -0.249023,-0.08496 -0.153809,0 -0.249024,0.07617 -0.09375,0.07471 -0.09375,0.174317 h -0.270996 q 0,-0.169922 0.171387,-0.319336 0.171387,-0.149414 0.458496,-0.149414 0.257813,0 0.42334,0.131836 0.165527,0.131836 0.165527,0.398437 v 0.711914 q 0,0.219727 0.05566,0.348633 v 0.02344 z m -0.449707,-0.208007 q 0.146485,0 0.253418,-0.07324 0.108399,-0.07324 0.152344,-0.162597 v -0.32666 H 15.54249 q -0.457031,0.0088 -0.457031,0.292968 0,0.112793 0.07617,0.191895 0.07617,0.07764 0.22705,0.07764 z"
       id="path202" />
    <path
       d="m 17.124521,53.438965 q -0.265136,0 -0.361816,0.228515 v 1.125 h -0.270996 v -1.58496 h 0.263672 l 0.0059,0.18164 q 0.130371,-0.210937 0.376465,-0.210937 0.07617,0 0.120117,0.02051 l -0.0015,0.251954 q -0.06006,-0.01172 -0.131836,-0.01172 z"
       id="path204" />
    <path
       d="m 18.252451,54.79248 q -0.09229,0.0293 -0.209473,0.0293 -0.150879,0 -0.257812,-0.09228 -0.106934,-0.09229 -0.106934,-0.331055 v -0.98291 H 17.388193 V 53.20752 h 0.290039 v -0.385254 h 0.270996 v 0.385254 h 0.295899 v 0.208007 h -0.295899 v 0.984375 q 0,0.121582 0.05273,0.155274 0.05273,0.03369 0.121582,0.03369 0.05127,0 0.127441,-0.01758 z"
       id="path206" />
  </g>
  <g
     aria-label="θ₁"
     id="text22"
     style="font-size:3px;font-family:Roboto;dominant-baseline:middle;text-anchor:middle;fill:#ffffbf">
    <path
       d="m 7.7415819,66.85498 q 0,0.493653 -0.1801758,0.730957 -0.1801757,0.23584 -0.4907226,0.23584 -0.3017578,0 -0.4863281,-0.22998 -0.1831055,-0.229981 -0.1889649,-0.706055 v -0.301758 q 0,-0.493652 0.1831055,-0.723632 0.1831054,-0.229981 0.4892578,-0.229981 0.3061523,0 0.4863281,0.224121 0.1816406,0.222656 0.1875,0.698731 z M 6.6663866,66.619141 h 0.8041992 v -0.08057 q 0,-0.331054 -0.102539,-0.508301 -0.1025391,-0.178711 -0.300293,-0.178711 -0.1948242,0 -0.2988281,0.178711 -0.1025391,0.177247 -0.1025391,0.508301 z m 0,0.27832 q 0,0.331055 0.1040039,0.51709 0.1054688,0.18457 0.300293,0.18457 0.1992187,0 0.2988281,-0.18457 0.1010742,-0.186035 0.1010742,-0.51709 v -0.05713 H 6.6663866 Z"
       id="path209" />
    <path
       d="m 8.649785,67.174316 v 1.155762 H 8.4212694 v -0.880371 l -0.3164062,0.0835 v -0.188965 l 0.5185547,-0.169922 z"
       id="path211" />
  </g>
  <g
     aria-label="θ₂"
     id="text24"
     style="font-size:3px;font-family:Roboto;dominant-baseline:middle;text-anchor:middle;fill:#ffffbf">
    <path
       d="m 22.981583,66.85498 q 0,0.493653 -0.180176,0.730957 -0.180176,0.23584 -0.490723,0.23584 -0.301758,0 -0.486328,-0.22998 -0.183105,-0.229981 -0.188965,-0.706055 v -0.301758 q 0,-0.493652 0.183106,-0.723632 0.183105,-0.229981 0.489258,-0.229981 0.306152,0 0.486328,0.224121 0.18164,0.222656 0.1875,0.698731 z m -1.075196,-0.235839 h 0.8042 v -0.08057 q 0,-0.331054 -0.10254,-0.508301 -0.102539,-0.178711 -0.300292,-0.178711 -0.194825,0 -0.298829,0.178711 -0.102539,0.177247 -0.102539,0.508301 z m 0,0.27832 q 0,0.331055 0.104004,0.51709 0.105469,0.18457 0.300293,0.18457 0.199219,0 0.298828,-0.18457 0.101075,-0.186035 0.101075,-0.51709 v -0.05713 h -0.8042 z"
       id="path214" />
    <path
       d="m 24.165176,68.142578 v 0.1875 H 23.2892 v -0.158203 l 0.445312,-0.418945 q 0.152344,-0.146485 0.152344,-0.246094 0,-0.07031 -0.04687,-0.115723 -0.04687,-0.04541 -0.133301,-0.04541 -0.109863,0 -0.162597,0.05566 -0.05127,0.05566 -0.05127,0.13916 h -0.231445 q 0,-0.156738 0.115722,-0.269531 0.117188,-0.112793 0.323731,-0.112793 0.196289,0 0.307617,0.09375 0.111328,0.09229 0.111328,0.251953 0,0.117188 -0.07617,0.212403 -0.07617,0.09521 -0.205078,0.212402 l -0.256347,0.213867 z"
       id="path216" />
  </g>
  <g
     aria-label="length"
     id="text26"
     style="font-size:3px;font-family:Roboto;dominant-baseline:middle;text-anchor:middle;fill:#ffffbf">
    <path
       d="m 3.9732714,80.54248 v 2.25 h -0.272461 v -2.25 z"
       id="path219" />
    <path
       d="m 5.6622362,82.515625 q -0.077637,0.117187 -0.2197265,0.212402 -0.1420899,0.09375 -0.3764649,0.09375 -0.3310547,0 -0.5302734,-0.215332 -0.1977539,-0.215332 -0.1977539,-0.550781 v -0.06152 q 0,-0.259278 0.098145,-0.440918 0.099609,-0.183106 0.2578125,-0.278321 0.1582031,-0.09668 0.3369141,-0.09668 0.3398437,0 0.4951171,0.222656 0.1567383,0.221191 0.1567383,0.553711 v 0.121582 H 4.6104784 q 0.00586,0.218262 0.1289063,0.37207 0.1245117,0.152344 0.3413085,0.152344 0.1435547,0 0.2431641,-0.05859 0.099609,-0.05859 0.1743164,-0.156738 z M 5.0308886,81.400879 q -0.1611329,0 -0.272461,0.117187 -0.1113281,0.117188 -0.1391601,0.336914 h 0.7924804 v -0.02051 Q 5.401494,81.67627 5.3194628,81.538574 5.2388964,81.400879 5.0308886,81.400879 Z"
       id="path221" />
    <path
       d="m 6.6568651,81.406738 q -0.1303711,0 -0.2299804,0.07031 -0.099609,0.07031 -0.1567383,0.183105 V 82.79248 H 5.9991503 v -1.58496 h 0.2563476 l 0.00879,0.197753 q 0.1801758,-0.22705 0.4731445,-0.22705 0.2329102,0 0.3691407,0.130371 0.1376953,0.130371 0.1391601,0.437988 V 82.79248 H 6.9732714 v -1.041503 q 0,-0.186036 -0.082031,-0.265137 -0.080566,-0.0791 -0.234375,-0.0791 z"
       id="path223" />
    <path
       d="m 8.2579393,83.417969 q -0.1230468,0 -0.3017578,-0.06006 -0.1787109,-0.06006 -0.2856445,-0.215332 l 0.1420898,-0.161133 q 0.1757813,0.213867 0.4248047,0.213867 0.1918946,0 0.3061524,-0.108398 0.1142578,-0.106934 0.1142578,-0.314941 v -0.139161 q -0.1611328,0.188965 -0.4438477,0.188965 -0.2856445,0 -0.4541015,-0.228515 -0.1684571,-0.228516 -0.1684571,-0.575684 v -0.03076 q 0,-0.363281 0.1669922,-0.585937 0.1684571,-0.222656 0.4584961,-0.222656 0.2915039,0 0.4526367,0.205078 L 8.682744,81.20752 h 0.2460938 v 1.551269 q 0,0.314941 -0.1875,0.486328 -0.1875,0.172852 -0.4833985,0.172852 z M 7.8624315,82.017578 q 0,0.23584 0.098145,0.405762 0.099609,0.168457 0.3193359,0.168457 0.2578125,0 0.3779297,-0.234375 v -0.722168 q -0.05127,-0.09815 -0.1420899,-0.162598 -0.09082,-0.06592 -0.2329101,-0.06592 -0.2211914,0 -0.3208008,0.172852 -0.099609,0.171387 -0.099609,0.407226 z"
       id="path225" />
    <path
       d="m 10.011357,82.79248 q -0.092285,0.0293 -0.2094723,0.0293 -0.150879,0 -0.2578125,-0.09229 -0.1069336,-0.09228 -0.1069336,-0.331055 v -0.98291 H 9.1470995 V 81.20752 h 0.2900391 v -0.385254 h 0.2709961 v 0.385254 h 0.2958983 v 0.208007 H 9.7081347 v 0.984375 q 0,0.121582 0.052734,0.155274 0.052734,0.03369 0.1215821,0.03369 0.051269,0 0.1274409,-0.01758 z"
       id="path227" />
    <path
       d="m 10.979619,81.406738 q -0.130371,0 -0.22998,0.07031 -0.09961,0.07031 -0.156739,0.183105 v 1.132324 h -0.270996 v -2.25 H 10.5929 v 0.854004 q 0.180176,-0.218261 0.467285,-0.218261 0.232911,0 0.369141,0.130371 0.137695,0.130371 0.13916,0.437988 v 1.045898 h -0.272461 v -1.041503 q 0,-0.186036 -0.08203,-0.265137 -0.08057,-0.0791 -0.234375,-0.0791 z"
       id="path229" />
  </g>
  <g
     aria-label="gravity"
     id="text28"
     style="font-size:3px;font-family:Roboto;dominant-baseline:middle;text-anchor:middle;fill:#ffffbf">
    <path
       d="m 19.250626,83.417969 q -0.123047,0 -0.301758,-0.06006 -0.178711,-0.06006 -0.285645,-0.215332 l 0.14209,-0.161133 q 0.175781,0.213867 0.424805,0.213867 0.191894,0 0.306152,-0.108398 0.114258,-0.106934 0.114258,-0.314941 v -0.139161 q -0.161133,0.188965 -0.443848,0.188965 -0.285644,0 -0.454101,-0.228515 -0.168457,-0.228516 -0.168457,-0.575684 v -0.03076 q 0,-0.363281 0.166992,-0.585937 0.168457,-0.222656 0.458496,-0.222656 0.291504,0 0.452637,0.205078 l 0.01318,-0.175781 h 0.246094 v 1.551269 q 0,0.314941 -0.1875,0.486328 -0.1875,0.172852 -0.483398,0.172852 z m -0.395508,-1.400391 q 0,0.23584 0.09814,0.405762 0.09961,0.168457 0.319336,0.168457 0.257813,0 0.37793,-0.234375 v -0.722168 q -0.05127,-0.09815 -0.14209,-0.162598 -0.09082,-0.06592 -0.23291,-0.06592 -0.221191,0 -0.320801,0.172852 -0.09961,0.171387 -0.09961,0.407226 z"
       id="path232" />
    <path
       d="m 20.965958,81.438965 q -0.265137,0 -0.361817,0.228515 v 1.125 h -0.270996 v -1.58496 h 0.263672 l 0.0059,0.18164 q 0.130371,-0.210937 0.376465,-0.210937 0.07617,0 0.120117,0.02051 l -0.0015,0.251954 q -0.06006,-0.01172 -0.131836,-0.01172 z"
       id="path234" />
    <path
       d="m 22.269669,82.79248 q -0.02637,-0.05713 -0.03809,-0.166992 -0.07617,0.08057 -0.19043,0.13916 -0.114258,0.05713 -0.260742,0.05713 -0.243164,0 -0.389649,-0.13623 -0.146484,-0.136231 -0.146484,-0.333985 0,-0.254882 0.193359,-0.386718 0.19336,-0.133301 0.52002,-0.133301 h 0.268066 v -0.125977 q 0,-0.140625 -0.08496,-0.224121 -0.0835,-0.08496 -0.249023,-0.08496 -0.153809,0 -0.249024,0.07617 -0.09375,0.07471 -0.09375,0.174317 h -0.270996 q 0,-0.169922 0.171387,-0.319336 0.171387,-0.149414 0.458496,-0.149414 0.257813,0 0.42334,0.131836 0.165527,0.131836 0.165527,0.398437 v 0.711914 q 0,0.219727 0.05566,0.348633 v 0.02344 z m -0.449707,-0.208007 q 0.146484,0 0.253418,-0.07324 0.108398,-0.07324 0.152343,-0.162597 v -0.32666 H 21.97377 q -0.457031,0.0088 -0.457031,0.292968 0,0.112793 0.07617,0.191895 0.07617,0.07764 0.227051,0.07764 z"
       id="path236" />
    <path
       d="m 24.093399,81.20752 -0.569824,1.58496 h -0.206543 l -0.574219,-1.58496 h 0.27832 l 0.402832,1.214355 0.392579,-1.214355 z"
       id="path238" />
    <path
       d="m 24.355606,80.787109 q 0,-0.06592 0.03955,-0.111328 0.04101,-0.04541 0.120117,-0.04541 0.07764,0 0.118652,0.04541 0.04248,0.04541 0.04248,0.111328 0,0.06299 -0.04248,0.108399 -0.04101,0.04394 -0.118652,0.04394 -0.0791,0 -0.120117,-0.04394 -0.03955,-0.04541 -0.03955,-0.108399 z m 0.292969,0.420411 v 1.58496 h -0.272461 v -1.58496 z"
       id="path240" />
    <path
       d="m 25.754532,82.79248 q -0.09229,0.0293 -0.209473,0.0293 -0.150879,0 -0.257812,-0.09229 -0.106934,-0.09228 -0.106934,-0.331055 v -0.98291 H 24.890274 V 81.20752 h 0.290039 v -0.385254 h 0.270996 v 0.385254 h 0.295899 v 0.208007 h -0.295899 v 0.984375 q 0,0.121582 0.05274,0.155274 0.05273,0.03369 0.121582,0.03369 0.05127,0 0.127441,-0.01758 z"
       id="path242" />
    <path
       d="m 26.605606,83.037109 q -0.140625,0.372071 -0.424805,0.394043 l -0.04541,0.0015 q -0.08643,0 -0.152344,-0.02344 l -0.0015,-0.219727 0.07324,0.0059 q 0.137695,0 0.215332,-0.05713 0.07764,-0.05566 0.127441,-0.202149 l 0.05859,-0.161133 -0.56543,-1.567382 h 0.295899 l 0.396972,1.186523 0.367676,-1.186523 h 0.290039 z"
       id="path244" />
  </g>
  <g
     aria-label="θ₁"
     id="text30"
     style="font-size:3px;font-family:Roboto;dominant-baseline:middle;text-anchor:middle;fill:#ffffbf">
    <path
       d="m 5.201582,108.35498 q 0,0.49365 -0.1801758,0.73096 -0.1801758,0.23584 -0.4907227,0.23584 -0.3017578,0 -0.4863281,-0.22998 -0.1831055,-0.22998 -0.1889649,-0.70606 v -0.30176 q 0,-0.49365 0.1831055,-0.72363 0.1831055,-0.22998 0.4892578,-0.22998 0.3061524,0 0.4863282,0.22412 0.1816406,0.22266 0.1875,0.69873 z m -1.0751954,-0.23584 h 0.8041993 v -0.0806 q 0,-0.33105 -0.1025391,-0.5083 -0.1025391,-0.17871 -0.300293,-0.17871 -0.1948242,0 -0.2988281,0.17871 -0.1025391,0.17725 -0.1025391,0.5083 z m 0,0.27832 q 0,0.33106 0.1040039,0.51709 0.1054688,0.18457 0.300293,0.18457 0.1992188,0 0.2988281,-0.18457 0.1010743,-0.18603 0.1010743,-0.51709 v -0.0571 H 4.1263866 Z"
       id="path247" />
    <path
       d="m 6.1097851,108.67432 v 1.15576 H 5.8812695 v -0.88037 l -0.3164063,0.0835 v -0.18896 l 0.5185547,-0.16992 z"
       id="path249" />
  </g>
  <g
     aria-label="θ₂"
     id="text32"
     style="font-size:3px;font-family:Roboto;dominant-baseline:middle;text-anchor:middle;fill:#ffffbf">
    <path
       d="m 5.201582,119.35498 q 0,0.49365 -0.1801758,0.73096 -0.1801758,0.23584 -0.4907227,0.23584 -0.3017578,0 -0.4863281,-0.22998 -0.1831055,-0.22998 -0.1889649,-0.70606 v -0.30176 q 0,-0.49365 0.1831055,-0.72363 0.1831055,-0.22998 0.4892578,-0.22998 0.3061524,0 0.4863282,0.22412 0.1816406,0.22266 0.1875,0.69873 z m -1.0751954,-0.23584 h 0.8041993 v -0.0806 q 0,-0.33105 -0.1025391,-0.5083 -0.1025391,-0.17871 -0.300293,-0.17871 -0.1948242,0 -0.2988281,0.17871 -0.1025391,0.17725 -0.1025391,0.5083 z m 0,0.27832 q 0,0.33106 0.1040039,0.51709 0.1054688,0.18457 0.300293,0.18457 0.1992188,0 0.2988281,-0.18457 0.1010743,-0.18603 0.1010743,-0.51709 v -0.0571 H 4.1263866 Z"
       id="path252" />
    <path
       d="m 6.3851757,120.64258 v 0.1875 H 5.5091991 v -0.1582 l 0.4453125,-0.41895 q 0.1523438,-0.14648 0.1523438,-0.24609 0,-0.0703 -0.046875,-0.11573 -0.046875,-0.0454 -0.1333008,-0.0454 -0.1098633,0 -0.1625976,0.0557 -0.05127,0.0557 -0.05127,0.13916 H 5.4813671 q 0,-0.15674 0.1157227,-0.26953 0.1171875,-0.1128 0.3237304,-0.1128 0.1962891,0 0.3076172,0.0937 0.1113281,0.0923 0.1113281,0.25196 0,0.11718 -0.076172,0.2124 -0.076172,0.0952 -0.2050782,0.2124 l -0.2563476,0.21387 z"
       id="path254" />
  </g>
  <g
     aria-label="x₁"
     id="text34"
     style="font-size:3px;font-family:Roboto;dominant-baseline:middle;text-anchor:middle;fill:#000010">
    <path
       d="m 14.335459,107.70752 0.347168,0.57715 0.351562,-0.57715 h 0.317871 l -0.518554,0.78223 0.534668,0.80273 h -0.313477 l -0.366211,-0.59473 -0.366211,0.59473 h -0.314941 l 0.533203,-0.80273 -0.51709,-0.78223 z"
       id="path257" />
    <path
       d="m 16.159189,108.67432 v 1.15576 h -0.228515 v -0.88037 l -0.316407,0.0835 v -0.18896 l 0.518555,-0.16992 z"
       id="path259" />
  </g>
  <g
     aria-label="y₁"
     id="text36"
     style="font-size:3px;font-family:Roboto;dominant-baseline:middle;text-anchor:middle;fill:#000010">
    <path
       d="m 24.887304,109.53711 q -0.140625,0.37207 -0.424804,0.39404 l -0.04541,0.001 q -0.08643,0 -0.152343,-0.0234 l -0.0015,-0.21973 0.07324,0.006 q 0.137695,0 0.215332,-0.0571 0.07764,-0.0557 0.127441,-0.20214 l 0.05859,-0.16114 -0.565429,-1.56738 h 0.295898 l 0.396973,1.18652 0.367675,-1.18652 h 0.290039 z"
       id="path262" />
    <path
       d="m 26.284765,108.67432 v 1.15576 H 26.05625 v -0.88037 l -0.316407,0.0835 v -0.18896 l 0.518555,-0.16992 z"
       id="path264" />
  </g>
  <g
     aria-label="x₂"
     id="text38"
     style="font-size:3px;font-family:Roboto;dominant-baseline:middle;text-anchor:middle;fill:#000010">
    <path
       d="m 14.335459,118.70752 0.347168,0.57715 0.351562,-0.57715 h 0.317871 l -0.518554,0.78223 0.534668,0.80273 h -0.313477 l -0.366211,-0.59473 -0.366211,0.59473 h -0.314941 l 0.533203,-0.80273 -0.51709,-0.78223 z"
       id="path267" />
    <path
       d="m 16.43458,120.64258 v 0.1875 h -0.875977 v -0.1582 l 0.445313,-0.41895 q 0.152344,-0.14648 0.152344,-0.24609 0,-0.0703 -0.04687,-0.11573 -0.04687,-0.0454 -0.133301,-0.0454 -0.109864,0 -0.162598,0.0557 -0.05127,0.0557 -0.05127,0.13916 h -0.231446 q 0,-0.15674 0.115723,-0.26953 0.117187,-0.1128 0.32373,-0.1128 0.196289,0 0.307618,0.0937 0.111328,0.0923 0.111328,0.25196 0,0.11718 -0.07617,0.2124 -0.07617,0.0952 -0.205078,0.2124 l -0.256348,0.21387 z"
       id="path269" />
  </g>
  <g
     aria-label="y₂"
     id="text40"
     style="font-size:3px;font-family:Roboto;dominant-baseline:middle;text-anchor:middle;fill:#000010">
    <path
       d="m 24.887304,120.53711 q -0.140625,0.37207 -0.424804,0.39404 l -0.04541,0.001 q -0.08643,0 -0.152343,-0.0234 l -0.0015,-0.21973 0.07324,0.006 q 0.137695,0 0.215332,-0.0571 0.07764,-0.0557 0.127441,-0.20214 l 0.05859,-0.16114 -0.565429,-1.56738 h 0.295898 l 0.396973,1.18652 0.367675,-1.18652 h 0.290039 z"
       id="path272" />
    <path
       d="m 26.560156,120.64258 v 0.1875 h -0.875977 v -0.1582 l 0.445313,-0.41895 q 0.152344,-0.14648 0.152344,-0.24609 0,-0.0703 -0.04687,-0.11573 -0.04687,-0.0454 -0.133301,-0.0454 -0.109864,0 -0.162598,0.0557 -0.05127,0.0557 -0.05127,0.13916 h -0.231446 q 0,-0.15674 0.115723,-0.26953 0.117187,-0.1128 0.32373,-0.1128 0.196289,0 0.307618,0.0937 0.111328,0.0923 0.111328,0.25196 0,0.11718 -0.07617,0.2124 -0.07617,0.0952 -0.205078,0.2124 l -0.256348,0.21387 z"
       id="path274" />
  </g>
  <path
     style="color:#000000;fill:#ffffbf;stroke-linecap:round;-inkscape-stroke:none"
     d="m 7.53125,60.912109 -2.2910156,2.291016 a 0.125,0.125 0 0 0 0,0.175781 0.125,0.125 0 0 0 0.1777343,0 l 2.2910157,-2.291015 a 0.125,0.125 0 0 0 0,-0.175782 0.125,0.125 0 0 0 -0.1777344,0 z"
     id="path42" />
  <g
     aria-label="0"
     id="text44"
     style="font-size:2.5px;font-family:Roboto;dominant-baseline:middle;text-anchor:middle;fill:#ffffbf">
    <path
       d="m 4.829227,64.252808 q 0,0.437011 -0.1513672,0.610351 -0.1501465,0.17334 -0.4089356,0.17334 -0.2514648,0 -0.4052734,-0.168457 -0.1525879,-0.168457 -0.1574707,-0.587158 v -0.299072 q 0,-0.435791 0.1525879,-0.603028 0.1525879,-0.168457 0.4077148,-0.168457 0.255127,0 0.4064942,0.163574 0.1513672,0.162354 0.15625,0.579834 z M 4.6021762,63.94397 q 0,-0.300293 -0.085449,-0.424805 -0.085449,-0.124512 -0.2502442,-0.124512 -0.1586914,0 -0.2453613,0.12085 -0.085449,0.12085 -0.087891,0.411377 v 0.362549 q 0,0.297851 0.08667,0.429687 0.087891,0.131836 0.2490234,0.131836 0.164795,0 0.2478028,-0.129394 0.084229,-0.130616 0.085449,-0.422364 z"
       id="path277" />
  </g>
  <path
     style="color:#000000;fill:#ffffbf;stroke-linecap:round;-inkscape-stroke:none"
     d="m 7.6191406,57.634766 a 0.125,0.125 0 0 0 -0.125,0.125 V 61 a 0.125,0.125 0 0 0 0.125,0.125 0.125,0.125 0 0 0 0.125,-0.125 v -3.240234 a 0.125,0.125 0 0 0 -0.125,-0.125 z"
     id="path46" />
  <g
     aria-label="π"
     id="text48"
     style="font-size:2.5px;font-family:Roboto;dominant-baseline:middle;text-anchor:middle;fill:#ffffbf">
    <path
       d="m 6.9248095,55.786366 v -0.186768 h 1.3378906 v 0.186768 h -0.189209 v 0.797119 q 0,0.101318 0.043945,0.130615 0.043945,0.02808 0.1013184,0.02808 0.042725,0 0.1062011,-0.01465 l 0.00122,0.183105 q -0.080566,0.02564 -0.1745605,0.02564 -0.1257324,0 -0.2160645,-0.0769 -0.089111,-0.07813 -0.089111,-0.2771 V 55.786366 H 7.3581591 v 1.134033 H 7.1311083 v -1.134033 z"
       id="path280" />
  </g>
  <path
     style="color:#000000;fill:#ffffbf;stroke-linecap:round;-inkscape-stroke:none"
     d="m 7.53125,60.912109 a 0.125,0.125 0 0 0 0,0.175782 l 2.2910156,2.291015 a 0.125,0.125 0 0 0 0.1777344,0 0.125,0.125 0 0 0 0,-0.175781 L 7.7089844,60.912109 a 0.125,0.125 0 0 0 -0.1777344,0 z"
     id="path50" />
  <g
     aria-label="0"
     id="text52"
     style="font-size:2.5px;font-family:Roboto;dominant-baseline:middle;text-anchor:middle;fill:#ffffbf">
    <path
       d="m 11.532599,64.252808 q 0,0.437011 -0.151367,0.610351 -0.150146,0.17334 -0.408935,0.17334 -0.251465,0 -0.405274,-0.168457 -0.152588,-0.168457 -0.15747,-0.587158 v -0.299072 q 0,-0.435791 0.152587,-0.603028 0.152588,-0.168457 0.407715,-0.168457 0.255127,0 0.406494,0.163574 0.151368,0.162354 0.15625,0.579834 z m -0.22705,-0.308838 q 0,-0.300293 -0.08545,-0.424805 -0.08545,-0.124512 -0.250244,-0.124512 -0.158691,0 -0.245361,0.12085 -0.08545,0.12085 -0.08789,0.411377 v 0.362549 q 0,0.297851 0.08667,0.429687 0.08789,0.131836 0.249024,0.131836 0.164795,0 0.247802,-0.129394 0.08423,-0.130616 0.08545,-0.422364 z"
       id="path283" />
  </g>
  <path
     style="color:#000000;fill:#ffffbf;stroke-linecap:round;-inkscape-stroke:none"
     d="m 22.859375,60.875 a 0.125,0.125 0 0 0 -0.08789,0.03711 l -2.291015,2.291016 a 0.125,0.125 0 0 0 0,0.175781 0.125,0.125 0 0 0 0.177734,0 l 2.291016,-2.291015 a 0.125,0.125 0 0 0 0,-0.175782 0.125,0.125 0 0 0 -0.08984,-0.03711 z"
     id="path54" />
  <g
     aria-label="0"
     id="text56"
     style="font-size:2.5px;font-family:Roboto;dominant-baseline:middle;text-anchor:middle;fill:#ffffbf">
    <path
       d="m 20.069227,64.252808 q 0,0.437011 -0.151367,0.610351 -0.150146,0.17334 -0.408936,0.17334 -0.251464,0 -0.405273,-0.168457 -0.152588,-0.168457 -0.157471,-0.587158 v -0.299072 q 0,-0.435791 0.152588,-0.603028 0.152588,-0.168457 0.407715,-0.168457 0.255127,0 0.406494,0.163574 0.151367,0.162354 0.15625,0.579834 z M 19.842176,63.94397 q 0,-0.300293 -0.08545,-0.424805 -0.08545,-0.124512 -0.250244,-0.124512 -0.158691,0 -0.245361,0.12085 -0.08545,0.12085 -0.08789,0.411377 v 0.362549 q 0,0.297851 0.08667,0.429687 0.08789,0.131836 0.249023,0.131836 0.164795,0 0.247803,-0.129394 0.08423,-0.130616 0.08545,-0.422364 z"
       id="path286" />
  </g>
  <path
     style="color:#000000;fill:#ffffbf;stroke-linecap:round;-inkscape-stroke:none"
     d="m 22.859375,57.634766 a 0.125,0.125 0 0 0 -0.125,0.125 V 61 a 0.125,0.125 0 0 0 0.125,0.125 0.125,0.125 0 0 0 0.125,-0.125 v -3.240234 a 0.125,0.125 0 0 0 -0.125,-0.125 z"
     id="path58" />
  <g
     aria-label="π"
     id="text60"
     style="font-size:2.5px;font-family:Roboto;dominant-baseline:middle;text-anchor:middle;fill:#ffffbf">
    <path
       d="m 22.16481,55.786366 v -0.186768 h 1.337891 v 0.186768 h -0.189209 v 0.797119 q 0,0.101318 0.04395,0.130615 0.04395,0.02808 0.101318,0.02808 0.04273,0 0.106202,-0.01465 l 0.0012,0.183105 q -0.08057,0.02564 -0.17456,0.02564 -0.125733,0 -0.216065,-0.0769 -0.08911,-0.07813 -0.08911,-0.2771 V 55.786366 H 22.59816 v 1.134033 h -0.227051 v -1.134033 z"
       id="path289" />
  </g>
  <path
     style="color:#000000;fill:#ffffbf;stroke-linecap:round;-inkscape-stroke:none"
     d="m 22.859375,60.875 a 0.125,0.125 0 0 0 -0.08789,0.03711 0.125,0.125 0 0 0 0,0.175782 l 2.291016,2.291015 a 0.125,0.125 0 0 0 0.177734,0 0.125,0.125 0 0 0 0,-0.175781 L 22.949219,60.912109 A 0.125,0.125 0 0 0 22.859375,60.875 Z"
     id="path62" />
  <g
     aria-label="0"
     id="text64"
     style="font-size:2.5px;font-family:Roboto;dominant-baseline:middle;text-anchor:middle;fill:#ffffbf">
    <path
       d="m 26.7726,64.252808 q 0,0.437011 -0.151367,0.610351 -0.150146,0.17334 -0.408936,0.17334 -0.251464,0 -0.405273,-0.168457 -0.152588,-0.168457 -0.157471,-0.587158 v -0.299072 q 0,-0.435791 0.152588,-0.603028 0.152588,-0.168457 0.407715,-0.168457 0.255127,0 0.406494,0.163574 0.151367,0.162354 0.15625,0.579834 z M 26.545549,63.94397 q 0,-0.300293 -0.08545,-0.424805 -0.08545,-0.124512 -0.250244,-0.124512 -0.158691,0 -0.245361,0.12085 -0.08545,0.12085 -0.08789,0.411377 v 0.362549 q 0,0.297851 0.08667,0.429687 0.08789,0.131836 0.249023,0.131836 0.164795,0 0.247803,-0.129394 0.08423,-0.130616 0.08545,-0.422364 z"
       id="path292" />
  </g>
  <path
     style="color:#000000;fill:#ffffbf;stroke-linecap:round;-inkscape-stroke:none"
     d="m 7.53125,75.912109 -2.2910156,2.291016 a 0.125,0.125 0 0 0 0,0.175781 0.125,0.125 0 0 0 0.1777343,0 l 2.2910157,-2.291015 a 0.125,0.125 0 0 0 0,-0.175782 0.125,0.125 0 0 0 -0.1777344,0 z"
     id="path66" />
  <g
     aria-label=".01"
     id="text68"
     style="font-size:2.5px;font-family:Roboto;dominant-baseline:middle;text-anchor:middle;fill:#ffffbf">
    <path
       d="m 2.709476,79.892456 q 0,-0.05737 0.0354,-0.09643 0.036621,-0.04028 0.1049805,-0.04028 0.068359,0 0.1037597,0.04028 0.036621,0.03906 0.036621,0.09643 0,0.05615 -0.036621,0.09522 -0.0354,0.03906 -0.1037597,0.03906 -0.068359,0 -0.1049805,-0.03906 -0.0354,-0.03906 -0.0354,-0.09522 z"
       id="path295" />
    <path
       d="m 4.4563022,79.252808 q 0,0.437011 -0.1513672,0.610351 -0.1501465,0.17334 -0.4089356,0.17334 -0.2514648,0 -0.4052734,-0.168457 -0.1525879,-0.168457 -0.1574707,-0.587158 v -0.299072 q 0,-0.435791 0.1525879,-0.603028 0.1525879,-0.168457 0.4077148,-0.168457 0.255127,0 0.4064942,0.163574 0.1513672,0.162354 0.15625,0.579834 z M 4.2292514,78.94397 q 0,-0.300293 -0.085449,-0.424805 -0.085449,-0.124512 -0.2502442,-0.124512 -0.1586914,0 -0.2453613,0.12085 -0.085449,0.12085 -0.087891,0.411377 v 0.362549 q 0,0.297851 0.08667,0.429687 0.087891,0.131836 0.2490234,0.131836 0.164795,0 0.2478028,-0.129394 0.084229,-0.130616 0.085449,-0.422364 z"
       id="path297" />
    <path
       d="m 5.4877963,78.224976 v 1.787109 H 5.2619662 V 78.506958 L 4.806644,78.672974 v -0.203858 l 0.6457519,-0.24414 z"
       id="path299" />
  </g>
  <path
     style="color:#000000;fill:#ffffbf;stroke-linecap:round;-inkscape-stroke:none"
     d="m 7.6191406,72.634766 a 0.125,0.125 0 0 0 -0.125,0.125 V 76 a 0.125,0.125 0 0 0 0.125,0.125 0.125,0.125 0 0 0 0.125,-0.125 v -3.240234 a 0.125,0.125 0 0 0 -0.125,-0.125 z"
     id="path70" />
  <g
     aria-label="1"
     id="text72"
     style="font-size:2.5px;font-family:Roboto;dominant-baseline:middle;text-anchor:middle;fill:#ffffbf">
    <path
       d="m 7.8073778,70.133293 v 1.78711 H 7.5815477 v -1.505127 l -0.4553222,0.166015 v -0.203857 l 0.6457519,-0.244141 z"
       id="path302" />
  </g>
  <path
     style="color:#000000;fill:#ffffbf;stroke-linecap:round;-inkscape-stroke:none"
     d="m 7.53125,75.912109 a 0.125,0.125 0 0 0 0,0.175782 l 2.2910156,2.291015 a 0.125,0.125 0 0 0 0.1777344,0 0.125,0.125 0 0 0 0,-0.175781 L 7.7089844,75.912109 a 0.125,0.125 0 0 0 -0.1777344,0 z"
     id="path74" />
  <g
     aria-label="100"
     id="text76"
     style="font-size:2.5px;font-family:Roboto;dominant-baseline:middle;text-anchor:middle;fill:#ffffbf">
    <path
       d="m 9.754035,78.224976 v 1.787109 H 9.5282049 v -1.505127 l -0.4553222,0.166016 v -0.203858 l 0.6457519,-0.24414 z"
       id="path305" />
    <path
       d="m 11.532599,79.252808 q 0,0.437011 -0.151367,0.610351 -0.150146,0.17334 -0.408935,0.17334 -0.251465,0 -0.405274,-0.168457 -0.152588,-0.168457 -0.15747,-0.587158 v -0.299072 q 0,-0.435791 0.152587,-0.603028 0.152588,-0.168457 0.407715,-0.168457 0.255127,0 0.406494,0.163574 0.151368,0.162354 0.15625,0.579834 z m -0.22705,-0.308838 q 0,-0.300293 -0.08545,-0.424805 -0.08545,-0.124512 -0.250244,-0.124512 -0.158691,0 -0.245361,0.12085 -0.08545,0.12085 -0.08789,0.411377 v 0.362549 q 0,0.297851 0.08667,0.429687 0.08789,0.131836 0.249024,0.131836 0.164795,0 0.247802,-0.129394 0.08423,-0.130616 0.08545,-0.422364 z"
       id="path307" />
    <path
       d="m 12.937629,79.252808 q 0,0.437011 -0.151367,0.610351 -0.150147,0.17334 -0.408936,0.17334 -0.251465,0 -0.405273,-0.168457 -0.152588,-0.168457 -0.157471,-0.587158 v -0.299072 q 0,-0.435791 0.152588,-0.603028 0.152588,-0.168457 0.407715,-0.168457 0.255127,0 0.406494,0.163574 0.151367,0.162354 0.15625,0.579834 z M 12.710578,78.94397 q 0,-0.300293 -0.08545,-0.424805 -0.08545,-0.124512 -0.250244,-0.124512 -0.158692,0 -0.245362,0.12085 -0.08545,0.12085 -0.08789,0.411377 v 0.362549 q 0,0.297851 0.08667,0.429687 0.08789,0.131836 0.249023,0.131836 0.164795,0 0.247803,-0.129394 0.08423,-0.130616 0.08545,-0.422364 z"
       id="path309" />
  </g>
  <path
     style="color:#000000;fill:#ffffbf;stroke-linecap:round;-inkscape-stroke:none"
     d="m 22.859375,75.875 a 0.125,0.125 0 0 0 -0.08789,0.03711 l -2.291015,2.291016 a 0.125,0.125 0 0 0 0,0.175781 0.125,0.125 0 0 0 0.177734,0 l 2.291016,-2.291015 a 0.125,0.125 0 0 0 0,-0.175782 0.125,0.125 0 0 0 -0.08984,-0.03711 z"
     id="path78" />
  <g
     id="text80"
     style="font-size:2.5px;font-family:Roboto;dominant-baseline:middle;text-anchor:middle;fill:#ffffbf" />
  <path
     style="color:#000000;fill:#ffffbf;stroke-linecap:round;-inkscape-stroke:none"
     d="m 22.820312,75.880859 -3.076171,1.015625 a 0.125,0.125 0 0 0 -0.08008,0.158203 0.125,0.125 0 0 0 0.158204,0.07813 l 3.076171,-1.013671 a 0.125,0.125 0 0 0 0.08008,-0.158204 0.125,0.125 0 0 0 -0.158204,-0.08008 z"
     id="path82" />
  <g
     aria-label="♇"
     id="text84"
     style="font-size:2.5px;font-family:Roboto;dominant-baseline:middle;text-anchor:middle;fill:#ffffbf">
    <path
       d="m 17.848175,76.341827 h 0.499268 q 0.368652,0 0.490722,0.253907 0.03906,0.09399 0.03906,0.209961 0,0.324707 -0.306397,0.437011 -0.07202,0.02075 -0.137939,0.02075 h -0.417481 v 0.726319 h 0.773926 l 0.0098,0.0098 v 0.158692 l -0.0098,0.0098 h -0.941162 l -0.0098,-0.0098 v -1.80542 z m 0.167236,0.170899 v 0.581055 h 0.39795 q 0.158691,0 0.246582,-0.158692 0.01953,-0.03174 0.0293,-0.129394 0,-0.200196 -0.197754,-0.273438 -0.04517,-0.01953 -0.144043,-0.01953 z"
       id="path313" />
  </g>
  <path
     style="color:#000000;fill:#ffffbf;stroke-linecap:round;-inkscape-stroke:none"
     d="m 19.857422,74.777344 a 0.125,0.125 0 0 0 -0.160156,0.07617 0.125,0.125 0 0 0 0.07422,0.160156 l 3.046875,1.103515 a 0.125,0.125 0 0 0 0.158203,-0.07422 0.125,0.125 0 0 0 -0.07422,-0.160157 z"
     id="path86" />
  <g
     aria-label="☾︎"
     id="text88"
     style="font-size:2.5px;font-family:Roboto;dominant-baseline:middle;text-anchor:middle;fill:#ffffbf">
    <path
       d="m 18.434465,75.067673 q -0.482177,0 -0.815429,-0.460205 -0.128174,-0.211182 -0.128174,-0.452881 0,-0.478516 0.483398,-0.792237 0.218506,-0.120849 0.434571,-0.120849 h 0.05981 q 0.05615,0 0.153809,0.01831 v 0.0085 q -0.336914,0.09644 -0.490723,0.3125 -0.187988,0.247803 -0.187988,0.573731 0,0.488281 0.407715,0.762939 0.166015,0.09644 0.279541,0.115967 v 0.0049 q 0,0.01221 -0.181885,0.0293 z m -0.03418,-0.07568 v -0.0037 q -0.557862,-0.240478 -0.557862,-0.842285 0,-0.489502 0.410157,-0.772705 l 0.05371,-0.0293 v -0.0037 h -0.0073 q -0.10498,0 -0.299072,0.101318 -0.283203,0.183106 -0.384521,0.482178 -0.03418,0.112305 -0.03418,0.227051 v 0.01099 q 0,0.388184 0.422363,0.705566 0.200196,0.124512 0.393067,0.124512 z"
       id="path316" />
  </g>
  <path
     style="color:#000000;fill:#ffffbf;stroke-linecap:round;-inkscape-stroke:none"
     d="m 20.880859,73.322266 a 0.125,0.125 0 0 0 -0.0918,0.02539 0.125,0.125 0 0 0 -0.02148,0.175781 l 1.994141,2.552735 a 0.125,0.125 0 0 0 0.175781,0.02148 0.125,0.125 0 0 0 0.02148,-0.173828 l -1.996093,-2.554687 a 0.125,0.125 0 0 0 -0.08203,-0.04687 z"
     id="path90" />
  <g
     aria-label="☿"
     id="text92"
     style="font-size:2.5px;font-family:Roboto;dominant-baseline:middle;text-anchor:middle;fill:#ffffbf">
    <path
       d="m 20.240303,71.593384 q 0.04883,0.03174 0.09277,0.07568 0.162354,0.159912 0.162354,0.390625 0,0.229493 -0.161133,0.38086 -0.131836,0.12207 -0.306396,0.13916 v 0.255127 l 0.263672,-0.0024 v 0.122071 l -0.268555,0.0012 0.0012,0.246583 h -0.157471 l -0.0012,-0.247803 h -0.246582 v -0.119629 h 0.246582 l -0.0024,-0.255127 q -0.179444,-0.01587 -0.3125,-0.13916 -0.162354,-0.151367 -0.162354,-0.38086 0,-0.230713 0.162354,-0.390625 0.04395,-0.04394 0.09277,-0.07568 -0.04883,-0.03052 -0.09277,-0.07568 -0.162354,-0.159912 -0.162354,-0.389404 v -0.0098 h 0.17334 v 0.01221 q 0,0.158692 0.111084,0.268555 0.10376,0.101318 0.246582,0.109863 h 0.04639 q 0.141601,-0.0085 0.245361,-0.109863 0.111084,-0.109863 0.111084,-0.268555 v -0.01221 h 0.17334 v 0.0098 q 0,0.229492 -0.162354,0.389404 -0.04394,0.04517 -0.09277,0.07568 z m -0.274658,0.08545 h -0.04639 q -0.142822,0.0073 -0.246582,0.109863 -0.111084,0.108643 -0.111084,0.267334 0,0.158692 0.111084,0.262451 0.112305,0.10376 0.270996,0.10376 0.155029,0 0.266113,-0.10376 0.112305,-0.103759 0.112305,-0.262451 0,-0.158691 -0.111084,-0.267334 -0.10376,-0.102539 -0.245361,-0.109863 z"
       id="path319" />
  </g>
  <path
     style="color:#000000;fill:#ffffbf;stroke-linecap:round;-inkscape-stroke:none"
     d="m 22.859375,72.634766 a 0.125,0.125 0 0 0 -0.125,0.125 V 76 a 0.125,0.125 0 0 0 0.125,0.125 0.125,0.125 0 0 0 0.125,-0.125 v -3.240234 a 0.125,0.125 0 0 0 -0.125,-0.125 z"
     id="path94" />
  <g
     aria-label="🜨"
     id="text96"
     style="font-size:2.5px;font-family:Roboto;dominant-baseline:middle;text-anchor:middle;fill:#ffffbf">
    <path
       d="m 22.860003,71.965002 q -0.19,0 -0.36,-0.0725 -0.1675,-0.0725 -0.295,-0.2 -0.125,-0.1275 -0.1975,-0.295 -0.0725,-0.1675 -0.0725,-0.3575 0,-0.1925 0.07,-0.36 0.0725,-0.1675 0.1975,-0.2925 0.1275,-0.1275 0.295,-0.2 0.17,-0.0725 0.3625,-0.0725 0.19,0 0.3575,0.0725 0.1675,0.0725 0.295,0.2 0.1275,0.125 0.2,0.2925 0.0725,0.1675 0.0725,0.36 0,0.19 -0.0725,0.36 -0.0725,0.1675 -0.2,0.295 -0.125,0.125 -0.2925,0.1975 -0.1675,0.0725 -0.36,0.0725 z m -0.7325,-1.015 h 0.6425 v -0.6425 q -0.165,0.02 -0.305,0.11 -0.1375,0.09 -0.2275,0.2275 -0.09,0.1375 -0.11,0.305 z m 0.8225,0 h 0.64 q -0.02,-0.1675 -0.11,-0.305 -0.09,-0.1375 -0.2275,-0.2275 -0.1375,-0.09 -0.3025,-0.11 z m -0.18,0.8225 v -0.6425 h -0.6425 q 0.02,0.165 0.1075,0.3025 0.09,0.1375 0.2275,0.2275 0.14,0.09 0.3075,0.1125 z m 0.18,0 q 0.1675,-0.02 0.305,-0.1075 0.1375,-0.09 0.225,-0.2275 0.09,-0.14 0.11,-0.3075 h -0.64 z"
       id="path322" />
  </g>
  <path
     style="color:#000000;fill:#ffffbf;stroke-linecap:round;-inkscape-stroke:none"
     d="m 24.830078,73.316406 a 0.125,0.125 0 0 0 -0.08203,0.04687 l -1.986328,2.560547 a 0.125,0.125 0 0 0 0.02148,0.175781 0.125,0.125 0 0 0 0.175781,-0.02344 l 1.986328,-2.558594 a 0.125,0.125 0 0 0 -0.02148,-0.175781 0.125,0.125 0 0 0 -0.09375,-0.02539 z"
     id="path98" />
  <g
     aria-label="♃"
     id="text100"
     style="font-size:2.5px;font-family:Roboto;dominant-baseline:middle;text-anchor:middle;fill:#ffffbf">
    <path
       d="m 25.598892,72.290802 v -0.0012 q 0.148926,0 0.252686,-0.103759 0.10376,-0.104981 0.10376,-0.252686 0,-0.147705 -0.10376,-0.251465 -0.102539,-0.10498 -0.252686,-0.10498 -0.147705,0 -0.252685,0.10498 -0.10376,0.10376 -0.10376,0.251465 v 0.0024 h -0.183106 q 0,-0.22583 0.157471,-0.384521 0.157471,-0.158691 0.38208,-0.158691 0.228272,0 0.385742,0.158691 0.157471,0.158691 0.157471,0.384521 0,0.205079 -0.133057,0.355225 h 0.2771 v -1.177979 h 0.184326 v 1.826172 h -0.184326 v -0.463867 h -1.226807 v -0.184326 z"
       id="path325" />
  </g>
  <path
     style="color:#000000;fill:#ffffbf;stroke-linecap:round;-inkscape-stroke:none"
     d="m 22.939453,75.904297 a 0.125,0.125 0 0 0 -0.175781,0.01563 0.125,0.125 0 0 0 0.01563,0.175781 l 2.496094,2.068359 a 0.125,0.125 0 0 0 0.175781,-0.01563 0.125,0.125 0 0 0 -0.01758,-0.177734 z"
     id="path102" />
  <g
     aria-label="☉"
     id="text104"
     style="font-size:2.5px;font-family:Roboto;dominant-baseline:middle;text-anchor:middle;fill:#ffffbf">
    <path
       d="m 27.422194,78.79567 q 0,0.379638 -0.267334,0.646972 -0.267334,0.266113 -0.646973,0.266113 -0.377197,0 -0.644531,-0.266113 -0.267334,-0.267334 -0.267334,-0.646972 0,-0.236817 0.12207,-0.456543 0.123291,-0.220948 0.343018,-0.338135 0.219726,-0.118408 0.446777,-0.118408 0.230713,0 0.450439,0.118408 0.219727,0.117187 0.341797,0.336914 0.122071,0.218506 0.122071,0.457764 z m -1.737061,0 q 0,0.341796 0.240478,0.582275 0.240479,0.239258 0.582276,0.239258 0.341797,0 0.582275,-0.239258 0.240479,-0.240479 0.240479,-0.582275 0,-0.216065 -0.109863,-0.412598 -0.109864,-0.196533 -0.307618,-0.302734 -0.197754,-0.106202 -0.405273,-0.106202 -0.20752,0 -0.405274,0.106202 -0.197753,0.106201 -0.307617,0.302734 -0.109863,0.196533 -0.109863,0.412598 z m 1.052246,0 q 0,0.09521 -0.06714,0.162353 -0.06592,0.06592 -0.161132,0.06592 -0.09399,0 -0.161133,-0.06592 -0.06714,-0.06714 -0.06714,-0.162353 0,-0.05982 0.03052,-0.114747 0.03052,-0.05493 0.08545,-0.08423 0.05493,-0.0293 0.112305,-0.0293 0.05737,0 0.112304,0.0293 0.05493,0.0293 0.08545,0.08423 0.03052,0.05493 0.03052,0.114747 z"
       id="path328" />
  </g>
  <path
     style="color:#000000;fill:#ffffbf;stroke-linecap:round;-inkscape-stroke:none"
     d="m 22.859375,75.875 a 0.125,0.125 0 0 0 -0.08789,0.03711 0.125,0.125 0 0 0 0,0.175782 l 2.291016,2.291015 a 0.125,0.125 0 0 0 0.177734,0 0.125,0.125 0 0 0 0,-0.175781 L 22.949219,75.912109 A 0.125,0.125 0 0 0 22.859375,75.875 Z"
     id="path106" />
  <g
     id="text108"
     style="font-size:2.5px;font-family:Roboto;dominant-baseline:middle;text-anchor:middle;fill:#ffffbf" />
</svg>
