<svg version="1.1" xmlns="http://www.w3.org/2000/svg" xmlns:xlink="http://www.w3.org/1999/xlink" width="1200" height="800"><defs/><g transform="scale(2,2)"><g id="background-50fdaed2"><rect fill="white" stroke="none" x="0" y="0" width="600" height="400" class="dcg-svg-background"/></g><g id="graphpaper-50fdaed2"><g id="axis-50fdaed2"><g id="yaxis-50fdaed2"><title>Y axis</title><g><path fill="none" stroke="rgb(0,0,0)" class="dcg-svg-axis-line" paint-order="fill stroke markers" d=" M 0 0 L 0 400" stroke-opacity="0.9" stroke-miterlimit="10" stroke-width="2" stroke-dasharray=""/></g></g><g id="xaxis-50fdaed2"><title>X axis</title><g><path fill="none" stroke="rgb(0,0,0)" class="dcg-svg-axis-line" paint-order="fill stroke markers" d=" M 0 400 L 600 400" stroke-opacity="0.9" stroke-miterlimit="10" stroke-width="2" stroke-dasharray=""/></g></g><g><g class="dcg-svg-axis-value"><text fill="none" stroke="#ffffff" font-family="Arial" font-size="17px" font-style="normal" font-weight="normal" text-decoration="normal" x="-9.724999904632568" y="418.124" text-anchor="middle" stroke-miterlimit="2" stroke-width="3" stroke-dasharray="">0</text><text fill="#000000" stroke="none" font-family="Arial" font-size="17px" font-style="normal" font-weight="normal" text-decoration="normal" x="-9.724999904632568" y="418.124" text-anchor="middle">0</text></g><g><path fill="none" stroke="rgb(0,0,0)" class="dcg-svg-tickmark" paint-order="fill stroke markers" d=" M 300 396 L 300 404 M 600 396 L 600 404 M -4 200 L 4 200 M -4 0 L 4 0" stroke-opacity="0.9" stroke-miterlimit="2" stroke-width="2" stroke-dasharray=""/></g><g class="dcg-svg-axis-value"><text fill="none" stroke="#ffffff" font-family="Arial" font-size="17px" font-style="normal" font-weight="normal" text-decoration="normal" x="300" y="393.124" text-anchor="middle" stroke-miterlimit="2" stroke-width="3" stroke-dasharray="">0.25</text><text fill="rgb(150,150,150)" stroke="none" font-family="Arial" font-size="17px" font-style="normal" font-weight="normal" text-decoration="normal" x="300" y="393.124" text-anchor="middle" fill-opacity="1">0.25</text></g><g class="dcg-svg-axis-value dcg-svg-offcenter-axis-value"><text fill="none" stroke="#ffffff" font-family="Arial" font-size="17px" font-style="normal" font-weight="normal" text-decoration="normal" x="585.1916666030884" y="393.124" text-anchor="middle" stroke-miterlimit="2" stroke-width="3" stroke-dasharray="">0.5</text><text fill="rgb(150,150,150)" stroke="none" font-family="Arial" font-size="17px" font-style="normal" font-weight="normal" text-decoration="normal" x="585.1916666030884" y="393.124" text-anchor="middle" fill-opacity="1">0.5</text></g><g class="dcg-svg-axis-value"><text fill="none" stroke="#ffffff" font-family="Arial" font-size="17px" font-style="normal" font-weight="normal" text-decoration="normal" x="14.808333396911621" y="204.624" text-anchor="middle" stroke-miterlimit="2" stroke-width="3" stroke-dasharray="">0.5</text><text fill="rgb(150,150,150)" stroke="none" font-family="Arial" font-size="17px" font-style="normal" font-weight="normal" text-decoration="normal" x="14.808333396911621" y="204.624" text-anchor="middle" fill-opacity="1">0.5</text></g><g class="dcg-svg-axis-value dcg-svg-offcenter-axis-value"><text fill="none" stroke="#ffffff" font-family="Arial" font-size="17px" font-style="normal" font-weight="normal" text-decoration="normal" x="7.724999904632568" y="16.124000000000002" text-anchor="middle" stroke-miterlimit="2" stroke-width="3" stroke-dasharray="">1</text><text fill="rgb(150,150,150)" stroke="none" font-family="Arial" font-size="17px" font-style="normal" font-weight="normal" text-decoration="normal" x="7.724999904632568" y="16.124000000000002" text-anchor="middle" fill-opacity="1">1</text></g></g></g></g><g id="expressions-50fdaed2"><g id="sketch-50fdaed2"><title>Expression 4</title><path fill="#c74440" stroke="none" paint-order="stroke fill markers" d="" fill-opacity="0.4"/><g><path fill="none" stroke="#c74440" class="dcg-svg-curve" paint-order="fill stroke markers" d=" M 0 400 L 0 400 L 6.591796875 389.0859410282751 L 13.18359375 377.550129902014 L 19.775390625 365.3768022363591 L 26.513671875 352.26227220711894 L 33.3984375 338.1561831158062 L 40.4296875 323.0149125622426 L 47.607421875 306.8053519395006 L 55.078125 289.156240658889 L 62.98828125 269.6599834733288 L 71.484375 247.89184335358573 L 81.298828125 221.87314115917502 L 94.62890625 185.58222271798792 L 113.671875 133.78789702903828 L 122.314453125 111.20366063267994 L 129.345703125 93.6500083777575 L 135.498046875 79.0832283384903 L 141.064453125 66.66950365158414 L 146.19140625 55.971835305837885 L 151.025390625 46.60167467177547 L 155.56640625 38.48514712294161 L 159.814453125 31.532201804593967 L 163.916015625 25.434984754899176 L 167.87109375 20.15028852971875 L 171.6796875 15.628818252076087 L 175.341796875 11.816841082493681 L 179.00390625 8.536782515763207 L 182.51953125 5.89173237405754 L 185.7421875 3.9011703792924095 L 188.818359375 2.3870442851768985 L 191.6015625 1.3396266056437298 L 194.384765625 0.595441546541565 L 197.021484375 0.16655214563547815 L 199.658203125 0.002179428031581665 L 202.294921875 0.0975911730261032 L 204.931640625 0.44744773137642824 L 207.71484375 1.08625224915329 L 210.64453125 2.049521462069549 L 213.720703125 3.3717485401866156 L 216.943359375 5.085799827427024 L 220.458984375 7.322915214101158 L 224.267578125 10.156973103462349 L 228.515625 13.79108563309586 L 233.056640625 18.187535110443832 L 237.890625 23.398870004361925 L 243.017578125 29.464811940071684 L 248.583984375 36.6047643228236 L 254.736328125 45.07290316447222 L 261.62109375 55.142808005577194 L 269.53125 67.31612733484388 L 279.345703125 83.04783471940158 L 294.580078125 108.16791602910968 L 316.40625 144.0753812902126 L 328.7109375 163.67023694012195 L 339.55078125 180.3314463238626 L 349.658203125 195.2784574632401 L 359.47265625 209.20589465058956 L 368.994140625 222.14436060604288 L 378.369140625 234.32470466589464 L 387.744140625 245.95208331001973 L 397.119140625 257.03499717331556 L 406.640625 267.7476438351685 L 416.30859375 278.0829969711093 L 426.123046875 288.03805522459726 L 436.083984375 297.61322290401085 L 446.337890625 306.9413602631905 L 456.73828125 315.88422883553915 L 467.28515625 324.4502413229877 L 477.83203125 332.54016587630065 L 488.525390625 340.28645403211567 L 499.21875 347.6026550269257 L 510.05859375 354.60850189547506 L 521.044921875 361.3149845611633 L 532.32421875 367.8153668082208 L 543.75 374.0297737305667 L 555.46875 380.0433353345391 L 567.333984375 385.78675523100867 L 579.4921875 391.3374485073289 L 592.08984375 396.7576494114181 L 599.9999999999999 400" stroke-linecap="round" stroke-linejoin="round" stroke-miterlimit="10" stroke-width="3.5" stroke-dasharray=""/></g></g><g id="sketch-50fdaed2"><title>Expression 5</title><path fill="#2d70b3" stroke="none" paint-order="stroke fill markers" d="" fill-opacity="0.4"/></g><g id="sketch-50fdaed2"><title>Expression 6</title><path fill="none" stroke="#c74440" class="dcg-svg-point" paint-order="fill stroke markers" d=" M 199.9 -0.1 L 199.9 0.1 L 200.1 0.1 L 200.1 -0.1" stroke-linecap="round" stroke-linejoin="round" stroke-miterlimit="10" stroke-width="10.5" stroke-dasharray=""/></g><g id="sketch-50fdaed2"><title>Expression 7</title></g><g id="sketch-50fdaed2"><title>Expression 8</title><path fill="none" stroke="#c74440" class="dcg-svg-point" paint-order="fill stroke markers" d=" M -0.1 399.9 L -0.1 400.1 L 0.1 400.1 L 0.1 399.9" stroke-linecap="round" stroke-linejoin="round" stroke-miterlimit="10" stroke-width="10.5" stroke-dasharray=""/></g><g id="sketch-50fdaed2"><title>Expression 9</title></g><g id="sketch-50fdaed2"><title>Expression 10</title></g></g><g id="labels-50fdaed2"/><path fill="none" stroke="#c74440" class="dcg-svg-point" paint-order="fill stroke markers" d=" M 299.9 117.05728752538099 L 299.9 117.25728752538097 L 300.1 117.25728752538097 L 300.1 117.05728752538099" stroke-linecap="round" stroke-linejoin="round" stroke-miterlimit="10" stroke-width="8" stroke-dasharray=""/><g id="labels-50fdaed2"/></g></svg>