<svg version="1.1" xmlns="http://www.w3.org/2000/svg" xmlns:xlink="http://www.w3.org/1999/xlink" width="1200" height="800"><defs/><g transform="scale(2,2)"><g id="background-b09761fd"><rect fill="white" stroke="none" x="0" y="0" width="600" height="400" class="dcg-svg-background"/></g><g id="graphpaper-b09761fd"><g id="axis-b09761fd"><g id="yaxis-b09761fd"><title>Y axis</title><g><path fill="none" stroke="rgb(0,0,0)" class="dcg-svg-axis-line" paint-order="fill stroke markers" d=" M 0 0 L 0 400" stroke-opacity="0.9" stroke-miterlimit="10" stroke-width="2" stroke-dasharray=""/></g></g><g id="xaxis-b09761fd"><title>X axis</title><g><path fill="none" stroke="rgb(0,0,0)" class="dcg-svg-axis-line" paint-order="fill stroke markers" d=" M 0 200 L 600 200" stroke-opacity="0.9" stroke-miterlimit="10" stroke-width="2" stroke-dasharray=""/></g></g><g><g class="dcg-svg-axis-value"><text fill="none" stroke="#ffffff" font-family="Arial" font-size="17px" font-style="normal" font-weight="normal" text-decoration="normal" x="-9.724999904632568" y="218.124" text-anchor="middle" stroke-miterlimit="2" stroke-width="3" stroke-dasharray="">0</text><text fill="#000000" stroke="none" font-family="Arial" font-size="17px" font-style="normal" font-weight="normal" text-decoration="normal" x="-9.724999904632568" y="218.124" text-anchor="middle">0</text></g><g><path fill="none" stroke="rgb(0,0,0)" class="dcg-svg-tickmark" paint-order="fill stroke markers" d=" M 300 196 L 300 204 M 600 196 L 600 204 M -4 400 L 4 400 M -4 0 L 4 0" stroke-opacity="0.9" stroke-miterlimit="2" stroke-width="2" stroke-dasharray=""/></g><g class="dcg-svg-axis-value"><text fill="none" stroke="#ffffff" font-family="Arial" font-size="17px" font-style="normal" font-weight="normal" text-decoration="normal" x="300" y="218.124" text-anchor="middle" stroke-miterlimit="2" stroke-width="3" stroke-dasharray="">0.5</text><text fill="#000000" stroke="none" font-family="Arial" font-size="17px" font-style="normal" font-weight="normal" text-decoration="normal" x="300" y="218.124" text-anchor="middle">0.5</text></g><g class="dcg-svg-axis-value dcg-svg-offcenter-axis-value"><text fill="none" stroke="#ffffff" font-family="Arial" font-size="17px" font-style="normal" font-weight="normal" text-decoration="normal" x="592.2750000953674" y="218.124" text-anchor="middle" stroke-miterlimit="2" stroke-width="3" stroke-dasharray="">1</text><text fill="#000000" stroke="none" font-family="Arial" font-size="17px" font-style="normal" font-weight="normal" text-decoration="normal" x="592.2750000953674" y="218.124" text-anchor="middle">1</text></g><g class="dcg-svg-axis-value dcg-svg-offcenter-axis-value"><text fill="none" stroke="#ffffff" font-family="Arial" font-size="17px" font-style="normal" font-weight="normal" text-decoration="normal" x="10.558333396911621" y="393.124" text-anchor="middle" stroke-miterlimit="2" stroke-width="3" stroke-dasharray="">-1</text><text fill="rgb(150,150,150)" stroke="none" font-family="Arial" font-size="17px" font-style="normal" font-weight="normal" text-decoration="normal" x="10.558333396911621" y="393.124" text-anchor="middle" fill-opacity="1">-1</text></g><g class="dcg-svg-axis-value dcg-svg-offcenter-axis-value"><text fill="none" stroke="#ffffff" font-family="Arial" font-size="17px" font-style="normal" font-weight="normal" text-decoration="normal" x="7.724999904632568" y="16.124000000000002" text-anchor="middle" stroke-miterlimit="2" stroke-width="3" stroke-dasharray="">1</text><text fill="rgb(150,150,150)" stroke="none" font-family="Arial" font-size="17px" font-style="normal" font-weight="normal" text-decoration="normal" x="7.724999904632568" y="16.124000000000002" text-anchor="middle" fill-opacity="1">1</text></g></g></g></g><g id="expressions-b09761fd"><g id="sketch-b09761fd"><title>Expression 4</title><path fill="#c74440" stroke="none" paint-order="stroke fill markers" d="" fill-opacity="0.4"/><g><path fill="none" stroke="#c74440" class="dcg-svg-curve" paint-order="fill stroke markers" d=" M 0 200 L 0 200 L 4.6875 192.14605184824146 L 9.375 183.65640947479795 L 14.0625 174.512464287664 L 18.896484375 164.3896948807199 L 23.876953125 153.23339548956713 L 29.150390625 140.6548184741622 L 35.009765625 125.8502034068088 L 41.89453125 107.57779357051015 L 62.6953125 51.709079724429785 L 67.3828125 40.38667166211334 L 71.337890625 31.61370486217507 L 74.853515625 24.54235833434953 L 78.076171875 18.744284399870736 L 81.005859375 14.094492697301575 L 83.7890625 10.260664133443896 L 86.42578125 7.175729642045525 L 89.0625 4.637620595570809 L 91.552734375 2.749474975885107 L 93.75 1.4949722670226606 L 95.80078125 0.6698133028218649 L 97.705078125 0.19847203522297718 L 99.609375 0.005699370603593934 L 101.513671875 0.08474636998664664 L 103.41796875 0.4275272646299868 L 105.46875 1.0809513841501257 L 107.666015625 2.0937797668006226 L 110.009765625 3.5114728980487087 L 112.646484375 5.494877340506804 L 115.72265625 8.2848520037208 L 119.091796875 11.865570063007937 L 122.75390625 16.29615012946445 L 126.85546875 21.811878708920773 L 131.689453125 28.899211805649912 L 137.6953125 38.32157650344726 L 147.0703125 53.7193774446726 L 161.1328125 76.74351952369605 L 169.189453125 89.28028082367763 L 176.3671875 99.85365684078357 L 183.251953125 109.40779674658916 L 189.990234375 118.18117575020023 L 196.58203125 126.21251064266029 L 203.3203125 133.87382191758425 L 210.05859375 141.0045506571708 L 217.08984375 147.91131791155712 L 224.267578125 154.4366037755923 L 231.73828125 160.70672401080918 L 239.208984375 166.48812069497708 L 246.826171875 171.9230756786827 L 254.443359375 176.93510334498188 L 262.20703125 181.64813870305056 L 270.263671875 186.15660387336715 L 278.466796875 190.3853411119083 L 286.962890625 194.41829942676313 L 295.751953125 198.25632738651586 L 299.99999999999994 200" stroke-linecap="round" stroke-linejoin="round" stroke-miterlimit="10" stroke-width="3.5" stroke-dasharray=""/></g></g><g id="sketch-b09761fd"><title>Expression 5</title><path fill="#2d70b3" stroke="none" paint-order="stroke fill markers" d="" fill-opacity="0.4"/><g><path fill="none" stroke="#2d70b3" class="dcg-svg-curve" paint-order="fill stroke markers" d=" M 300.00000000000006 200.00000000000003 L 300.00000000000006 200.00000000000003 L 308.935546875 203.7505261064145 L 317.578125 207.69554822270482 L 325.927734375 211.8369038892087 L 333.984375 216.17438265502548 L 341.89453125 220.79436210597427 L 349.51171875 225.61695390566115 L 356.982421875 230.73900579581107 L 364.306640625 236.17437180939558 L 371.630859375 242.05788558223043 L 378.80859375 248.29745281838336 L 385.986328125 255.04551047287305 L 392.87109375 262.0323637135484 L 399.609375 269.3904191157893 L 406.201171875 277.1126889836347 L 412.79296875 285.3730832304641 L 419.384765625 294.18129600842605 L 426.123046875 303.7458993951408 L 433.30078125 314.52463372915224 L 441.2109375 327.0158140483974 L 451.904296875 344.5792101036026 L 464.6484375 365.4182750421213 L 470.654296875 374.6052507231525 L 475.341796875 381.20848128061357 L 479.443359375 386.4245077124054 L 483.10546875 390.5284004272447 L 486.328125 393.629648420834 L 489.404296875 396.0822511650474 L 492.041015625 397.7476254007766 L 494.384765625 398.86141793236914 L 496.58203125 399.57247273537 L 498.6328125 399.93080824998094 L 500.537109375 399.98921691465773 L 502.44140625 399.7752375761337 L 504.345703125 399.28222965269924 L 506.25 398.50502773297734 L 508.30078125 397.3461469016321 L 510.498046875 395.7316087421184 L 512.98828125 393.4359200820476 L 515.625 390.471511669193 L 518.26171875 386.9707134099673 L 521.044921875 382.71479389354766 L 524.12109375 377.3768091147308 L 527.34375 371.1239507689344 L 530.859375 363.61081921218977 L 534.814453125 354.4168340885734 L 539.501953125 342.7072577174572 L 545.5078125 326.81631062204383 L 568.06640625 266.2771010457188 L 573.779296875 252.26335818611702 L 579.052734375 240.11602862377333 L 584.033203125 229.39133635760462 L 588.8671875 219.69521248660584 L 593.701171875 210.6994264628454 L 598.388671875 202.6296097322209 L 599.9999999999999 200.0000000000001" stroke-linecap="round" stroke-linejoin="round" stroke-miterlimit="10" stroke-width="3.5" stroke-dasharray=""/></g></g><g id="sketch-b09761fd"><title>Expression 6</title><path fill="none" stroke="#c74440" class="dcg-svg-point" paint-order="fill stroke markers" d=" M 99.9 -0.1 L 99.9 0.1 L 100.1 0.1 L 100.1 -0.1" stroke-linecap="round" stroke-linejoin="round" stroke-miterlimit="10" stroke-width="10.5" stroke-dasharray=""/></g><g id="sketch-b09761fd"><title>Expression 7</title></g><g id="sketch-b09761fd"><title>Expression 8</title><path fill="none" stroke="#c74440" class="dcg-svg-point" paint-order="fill stroke markers" d=" M -0.1 199.9 L -0.1 200.1 L 0.1 200.1 L 0.1 199.9" stroke-linecap="round" stroke-linejoin="round" stroke-miterlimit="10" stroke-width="10.5" stroke-dasharray=""/></g><g id="sketch-b09761fd"><title>Expression 9</title></g><g id="sketch-b09761fd"><title>Expression 10</title><path fill="none" stroke="#2d70b3" class="dcg-svg-point" paint-order="fill stroke markers" d=" M 499.9 399.9 L 499.9 400.1 L 500.1 400.1 L 500.1 399.9" stroke-linecap="round" stroke-linejoin="round" stroke-miterlimit="10" stroke-width="10.5" stroke-dasharray=""/></g></g><g id="labels-b09761fd"/><path fill="none" stroke="#c74440" class="dcg-svg-point" paint-order="fill stroke markers" d=" M 149.9 58.47864376269049 L 149.9 58.67864376269049 L 150.1 58.67864376269049 L 150.1 58.47864376269049" stroke-linecap="round" stroke-linejoin="round" stroke-miterlimit="10" stroke-width="8" stroke-dasharray=""/><path fill="none" stroke="#2d70b3" class="dcg-svg-point" paint-order="fill stroke markers" d=" M 449.9 341.3213562373095 L 449.9 341.52135623730953 L 450.1 341.52135623730953 L 450.1 341.3213562373095" stroke-linecap="round" stroke-linejoin="round" stroke-miterlimit="10" stroke-width="8" stroke-dasharray=""/><g id="labels-b09761fd"/></g></svg>