<svg version="1.1" xmlns="http://www.w3.org/2000/svg" xmlns:xlink="http://www.w3.org/1999/xlink" width="800" height="800"><defs/><g transform="scale(2,2)"><g id="background-d12833d2"><rect fill="white" stroke="none" x="0" y="0" width="400" height="400" class="dcg-svg-background"/></g><g id="graphpaper-d12833d2"><g id="axis-d12833d2"><g id="yaxis-d12833d2"><title>Y axis</title><g><path fill="none" stroke="rgb(0,0,0)" class="dcg-svg-axis-line" paint-order="fill stroke markers" d=" M 0 0 L 0 400" stroke-opacity="0.9" stroke-miterlimit="10" stroke-width="2" stroke-dasharray=""/></g></g><g id="xaxis-d12833d2"><title>X axis</title><g><path fill="none" stroke="rgb(0,0,0)" class="dcg-svg-axis-line" paint-order="fill stroke markers" d=" M 0 400 L 400 400" stroke-opacity="0.9" stroke-miterlimit="10" stroke-width="2" stroke-dasharray=""/></g></g><g><g class="dcg-svg-axis-value"><text fill="none" stroke="#ffffff" font-family="Arial" font-size="17px" font-style="normal" font-weight="normal" text-decoration="normal" x="-9.724999904632568" y="418.124" text-anchor="middle" stroke-miterlimit="2" stroke-width="3" stroke-dasharray="">0</text><text fill="#000000" stroke="none" font-family="Arial" font-size="17px" font-style="normal" font-weight="normal" text-decoration="normal" x="-9.724999904632568" y="418.124" text-anchor="middle">0</text></g><g><path fill="none" stroke="rgb(0,0,0)" class="dcg-svg-tickmark" paint-order="fill stroke markers" d=" M 200 396 L 200 404 M 400 396 L 400 404 M -4 200 L 4 200 M -4 0 L 4 0" stroke-opacity="0.9" stroke-miterlimit="2" stroke-width="2" stroke-dasharray=""/></g><g class="dcg-svg-axis-value"><text fill="none" stroke="#ffffff" font-family="Arial" font-size="17px" font-style="normal" font-weight="normal" text-decoration="normal" x="200" y="393.124" text-anchor="middle" stroke-miterlimit="2" stroke-width="3" stroke-dasharray="">0.5</text><text fill="rgb(150,150,150)" stroke="none" font-family="Arial" font-size="17px" font-style="normal" font-weight="normal" text-decoration="normal" x="200" y="393.124" text-anchor="middle" fill-opacity="1">0.5</text></g><g class="dcg-svg-axis-value dcg-svg-offcenter-axis-value"><text fill="none" stroke="#ffffff" font-family="Arial" font-size="17px" font-style="normal" font-weight="normal" text-decoration="normal" x="392.27500009536743" y="393.124" text-anchor="middle" stroke-miterlimit="2" stroke-width="3" stroke-dasharray="">1</text><text fill="rgb(150,150,150)" stroke="none" font-family="Arial" font-size="17px" font-style="normal" font-weight="normal" text-decoration="normal" x="392.27500009536743" y="393.124" text-anchor="middle" fill-opacity="1">1</text></g><g class="dcg-svg-axis-value"><text fill="none" stroke="#ffffff" font-family="Arial" font-size="17px" font-style="normal" font-weight="normal" text-decoration="normal" x="14.808333396911621" y="204.624" text-anchor="middle" stroke-miterlimit="2" stroke-width="3" stroke-dasharray="">0.5</text><text fill="rgb(150,150,150)" stroke="none" font-family="Arial" font-size="17px" font-style="normal" font-weight="normal" text-decoration="normal" x="14.808333396911621" y="204.624" text-anchor="middle" fill-opacity="1">0.5</text></g><g class="dcg-svg-axis-value dcg-svg-offcenter-axis-value"><text fill="none" stroke="#ffffff" font-family="Arial" font-size="17px" font-style="normal" font-weight="normal" text-decoration="normal" x="7.724999904632568" y="16.124000000000002" text-anchor="middle" stroke-miterlimit="2" stroke-width="3" stroke-dasharray="">1</text><text fill="rgb(150,150,150)" stroke="none" font-family="Arial" font-size="17px" font-style="normal" font-weight="normal" text-decoration="normal" x="7.724999904632568" y="16.124000000000002" text-anchor="middle" fill-opacity="1">1</text></g></g></g></g><g id="expressions-d12833d2"><g id="sketch-d12833d2"><title>Expression 1</title><path fill="#c74440" stroke="none" paint-order="stroke fill markers" d="" fill-opacity="0.4"/><g><path fill="none" stroke="#c74440" class="dcg-svg-curve" paint-order="fill stroke markers" d=" M 0 400 L 0 400 L 12.6953125 397.61825060769627 L 24.70703125 395.0996340701826 L 36.03515625 392.45960919309084 L 46.77734375 389.6914649363185 L 57.03125 386.78250765018265 L 66.89453125 383.7128875666019 L 76.26953125 380.52373376800085 L 85.3515625 377.15763083382035 L 94.04296875 373.65792609218755 L 102.44140625 369.9946554094888 L 110.546875 366.1745448640562 L 118.45703125 362.1549580827824 L 126.171875 357.9354455589928 L 133.69140625 353.5169254931326 L 141.015625 348.9018200245321 L 148.14453125 344.0941818694414 L 155.17578125 339.0271258577553 L 162.109375 333.69395290247974 L 168.9453125 328.08884636490836 L 175.68359375 322.207046636362 L 182.421875 315.95161801763186 L 189.16015625 309.3032422435093 L 195.80078125 302.3482756222154 L 202.5390625 294.8640755467307 L 209.27734375 286.932733440528 L 216.11328125 278.41367787648386 L 223.046875 269.27258885517256 L 229.98046875 259.61695771800146 L 236.9140625 249.44061008296603 L 243.84765625 238.74307820804233 L 250.87890625 227.36934744439387 L 258.10546875 215.14465293592377 L 265.625 201.879086302473 L 273.53515625 187.37599396148096 L 282.2265625 170.88266889437534 L 292.578125 150.66187400541597 L 325 86.88799590788301 L 332.2265625 73.50959839754887 L 338.4765625 62.47068565182906 L 344.140625 52.99105000462288 L 349.4140625 44.68661990510981 L 354.39453125 37.362073643968756 L 359.1796875 30.844686456950114 L 363.76953125 25.108148621782902 L 368.06640625 20.22147494871166 L 372.0703125 16.107808797165262 L 375.87890625 12.60163730083741 L 379.4921875 9.650712120449157 L 383.0078125 7.1362121945052195 L 386.328125 5.087704490406566 L 389.55078125 3.404026795684672 L 392.7734375 2.0204030697777853 L 395.8984375 0.9640609437487342 L 399.0234375 0.18637957187934262 L 400 -3.410605131648481e-13" stroke-linecap="round" stroke-linejoin="round" stroke-miterlimit="10" stroke-width="3.5" stroke-dasharray=""/></g></g><g id="sketch-d12833d2"><title>Expression 5</title><path fill="#2d70b3" stroke="none" paint-order="stroke fill markers" d="" fill-opacity="0.4"/><g><path fill="none" stroke="#2d70b3" class="dcg-svg-curve" paint-order="fill stroke markers" d=" M 0 400 L 0 400 L 2.44140625 393.45757573329513 L 4.98046875 387.31554943367496 L 7.6171875 381.541272470789 L 10.44921875 375.9190820398843 L 13.4765625 370.47037425118043 L 16.69921875 365.207447955161 L 20.21484375 359.99718198998386 L 24.0234375 354.87619505205083 L 28.125 349.868445526994 L 32.421875 345.09095527660446 L 37.01171875 340.4270866283226 L 41.89453125 335.8780540754907 L 47.16796875 331.35903864764157 L 52.83203125 326.8791634969612 L 58.984375 322.37041119899186 L 65.72265625 317.77648223149396 L 73.14453125 313.04754327524483 L 81.54296875 308.02183113803375 L 91.2109375 302.55785233369863 L 102.734375 296.3630214659575 L 117.7734375 288.60063253631154 L 174.8046875 259.4605217061071 L 188.671875 251.9074490541491 L 200.9765625 244.90669320601407 L 212.3046875 238.1589020319396 L 222.94921875 231.50804110839246 L 233.0078125 224.90596393907484 L 242.578125 218.29997031904483 L 251.66015625 211.7026339444127 L 260.3515625 205.05522119708903 L 268.75 198.28780609000808 L 276.85546875 191.40196377414202 L 284.66796875 184.40165063403037 L 292.28515625 177.19842825920958 L 299.70703125 169.785421658056 L 306.93359375 162.15656190906918 L 313.96484375 154.30667001058947 L 320.80078125 146.23156215620034 L 327.5390625 137.80247714688898 L 334.08203125 129.12836812406454 L 340.4296875 120.20745146087847 L 346.58203125 111.03949276665037 L 352.44140625 101.7848631038429 L 358.10546875 92.30727882117043 L 363.4765625 82.79220115920032 L 368.65234375 73.09232110843493 L 373.73046875 63.02291638535502 L 378.61328125 52.77778176518626 L 383.30078125 42.37622319940175 L 387.890625 31.605638113148984 L 392.3828125 20.452627348816407 L 396.6796875 9.167632287144727 L 400 5.115907697472721e-13" stroke-linecap="round" stroke-linejoin="round" stroke-miterlimit="10" stroke-width="3.5" stroke-dasharray=""/></g></g><g id="sketch-d12833d2"><title>Expression 9</title><path fill="none" stroke="#c74440" class="dcg-svg-point" paint-order="fill stroke markers" d=" M -0.1 399.9 L -0.1 400.1 L 0.1 400.1 L 0.1 399.9" stroke-linecap="round" stroke-linejoin="round" stroke-miterlimit="10" stroke-width="10.5" stroke-dasharray=""/></g><g id="sketch-d12833d2"><title>Expression 10</title><path fill="none" stroke="#c74440" class="dcg-svg-point" paint-order="fill stroke markers" d=" M 399.9 -0.1 L 399.9 0.1 L 400.1 0.1 L 400.1 -0.1" stroke-linecap="round" stroke-linejoin="round" stroke-miterlimit="10" stroke-width="10.5" stroke-dasharray=""/></g><g id="sketch-d12833d2"><title>Expression 11</title></g></g><g id="labels-d12833d2"/><path fill="none" stroke="#c74440" class="dcg-svg-point" paint-order="fill stroke markers" d=" M 266.5666666666666 199.9 L 266.5666666666666 200.1 L 266.76666666666665 200.1 L 266.76666666666665 199.9" stroke-linecap="round" stroke-linejoin="round" stroke-miterlimit="10" stroke-width="8" stroke-dasharray=""/><g id="labels-d12833d2"/></g></svg>